<ttFont>
<head>
    <!-- Most of this table will be recalculated by the compiler -->
    <tableVersion value="1.0"/>
    <fontRevision value="2.2"/>
    <checkSumAdjustment value="0x78277dd6"/>
    <magicNumber value="0x5f0f3cf5"/>
    <flags value="00000000 00000101"/>
    <unitsPerEm value="1000"/>
    <created value="Mon Jun 22 21:16:58 2020"/>
    <modified value="Mon Jun 22 22:23:38 2020"/>
    <xMin value="-215"/>
    <yMin value="-364"/>
    <xMax value="1433"/>
    <yMax value="1122"/>
    <macStyle value="00000000 00000010"/>
    <lowestRecPPEM value="9"/>
    <fontDirectionHint value="2"/>
    <indexToLocFormat value="0"/>
    <glyphDataFormat value="0"/>
  </head>
    <TTGlyph name=".notdef" xMin="0" yMin="-200" xMax="500" yMax="800">
      <contour>
        <pt x="0" y="-200" on="1"/>
        <pt x="0" y="800" on="1"/>
        <pt x="500" y="800" on="1"/>
        <pt x="500" y="-200" on="1"/>
      </contour>
      <contour>
        <pt x="250" y="360" on="1"/>
        <pt x="429" y="750" on="1"/>
        <pt x="71" y="750" on="1"/>
      </contour>
      <contour>
        <pt x="50" y="-76" on="1"/>
        <pt x="222" y="300" on="1"/>
        <pt x="50" y="676" on="1"/>
      </contour>
      <contour>
        <pt x="450" y="-76" on="1"/>
        <pt x="450" y="676" on="1"/>
        <pt x="278" y="300" on="1"/>
      </contour>
      <contour>
        <pt x="71" y="-150" on="1"/>
        <pt x="429" y="-150" on="1"/>
        <pt x="250" y="240" on="1"/>
      </contour>
    </TTGlyph>
    <TTGlyph name="A" xMin="-54" yMin="0" xMax="665" yMax="662">
      <contour>
        <pt x="-54" y="0" on="1"/>
        <pt x="-33" y="87" on="1"/>
        <pt x="33" y="87" on="1"/>
        <pt x="372" y="662" on="1"/>
        <pt x="525" y="662" on="1"/>
        <pt x="583" y="87" on="1"/>
        <pt x="665" y="87" on="1"/>
        <pt x="644" y="0" on="1"/>
        <pt x="322" y="0" on="1"/>
        <pt x="344" y="87" on="1"/>
        <pt x="426" y="87" on="1"/>
        <pt x="417" y="210" on="1"/>
        <pt x="206" y="210" on="1"/>
        <pt x="136" y="87" on="1"/>
        <pt x="221" y="87" on="1"/>
        <pt x="199" y="0" on="1"/>
      </contour>
      <contour>
        <pt x="250" y="289" on="1"/>
        <pt x="412" y="289" on="1"/>
        <pt x="395" y="538" on="1"/>
        <pt x="391" y="538" on="1"/>
      </contour>
    </TTGlyph>
    <TTGlyph name="AE" xMin="-73" yMin="0" xMax="1089" yMax="658">
      <contour>
        <pt x="-73" y="0" on="1"/>
        <pt x="-52" y="87" on="1"/>
        <pt x="13" y="87" on="1"/>
        <pt x="444" y="571" on="1"/>
        <pt x="353" y="571" on="1"/>
        <pt x="375" y="658" on="1"/>
        <pt x="1089" y="658" on="1"/>
        <pt x="1030" y="424" on="1"/>
        <pt x="951" y="424" on="1"/>
        <pt x="952" y="471" on="0"/>
        <pt x="947" y="529" on="0"/>
        <pt x="928" y="562" on="0"/>
        <pt x="890" y="573" on="0"/>
        <pt x="858" y="573" on="1"/>
        <pt x="713" y="573" on="1"/>
        <pt x="663" y="374" on="1"/>
        <pt x="698" y="374" on="1"/>
        <pt x="719" y="374" on="0"/>
        <pt x="746" y="380" on="0"/>
        <pt x="767" y="399" on="0"/>
        <pt x="785" y="436" on="0"/>
        <pt x="798" y="466" on="1"/>
        <pt x="876" y="466" on="1"/>
        <pt x="810" y="199" on="1"/>
        <pt x="733" y="199" on="1"/>
        <pt x="740" y="259" on="0"/>
        <pt x="723" y="293" on="0"/>
        <pt x="683" y="293" on="1"/>
        <pt x="643" y="293" on="1"/>
        <pt x="591" y="85" on="1"/>
        <pt x="733" y="85" on="1"/>
        <pt x="770" y="85" on="0"/>
        <pt x="819" y="100" on="0"/>
        <pt x="856" y="140" on="0"/>
        <pt x="890" y="208" on="0"/>
        <pt x="912" y="260" on="1"/>
        <pt x="999" y="260" on="1"/>
        <pt x="934" y="0" on="1"/>
        <pt x="325" y="0" on="1"/>
        <pt x="346" y="87" on="1"/>
        <pt x="435" y="87" on="1"/>
        <pt x="468" y="220" on="1"/>
        <pt x="246" y="220" on="1"/>
        <pt x="130" y="86" on="1"/>
        <pt x="209" y="86" on="1"/>
        <pt x="188" y="0" on="1"/>
      </contour>
      <contour>
        <pt x="313" y="299" on="1"/>
        <pt x="488" y="299" on="1"/>
        <pt x="556" y="569" on="1"/>
        <pt x="545" y="569" on="1"/>
      </contour>
    </TTGlyph>
    <TTGlyph name="AEacute" xMin="-73" yMin="0" xMax="1089" yMax="945">
      <component glyphName="AE" x="0" y="0" flags="0x204"/>
      <component glyphName="acute" x="520" y="194" flags="0x4"/>
    </TTGlyph>
    <TTGlyph name="Aacute" xMin="-54" yMin="0" xMax="665" yMax="945">
      <component glyphName="A" x="0" y="0" flags="0x204"/>
      <component glyphName="acute" x="288" y="194" flags="0x4"/>
    </TTGlyph>
    <TTGlyph name="Abreve" xMin="-54" yMin="0" xMax="665" yMax="911">
      <component glyphName="A" x="0" y="0" flags="0x204"/>
      <component glyphName="breve" x="196" y="194" flags="0x4"/>
    </TTGlyph>
    <TTGlyph name="Acircumflex" xMin="-54" yMin="0" xMax="665" yMax="926">
      <component glyphName="A" x="0" y="0" flags="0x204"/>
      <component glyphName="circumflex" x="202" y="194" flags="0x4"/>
    </TTGlyph>
    <TTGlyph name="Adieresis" xMin="-54" yMin="0" xMax="665" yMax="887">
      <component glyphName="A" x="0" y="0" flags="0x204"/>
      <component glyphName="dieresis" x="193" y="194" flags="0x4"/>
    </TTGlyph>
    <TTGlyph name="Agrave" xMin="-54" yMin="0" xMax="665" yMax="946">
      <component glyphName="A" x="0" y="0" flags="0x204"/>
      <component glyphName="grave" x="188" y="194" flags="0x4"/>
    </TTGlyph>
    <TTGlyph name="Amacron" xMin="-54" yMin="0" xMax="665" yMax="832">
      <component glyphName="A" x="0" y="0" flags="0x204"/>
      <component glyphName="macron" x="204" y="194" flags="0x4"/>
    </TTGlyph>
    <TTGlyph name="Aogonek" xMin="-54" yMin="-250" xMax="665" yMax="662">
      <contour>
        <pt x="-54" y="0" on="1"/>
        <pt x="-33" y="87" on="1"/>
        <pt x="33" y="87" on="1"/>
        <pt x="372" y="662" on="1"/>
        <pt x="525" y="662" on="1"/>
        <pt x="583" y="87" on="1"/>
        <pt x="665" y="87" on="1"/>
        <pt x="644" y="0" on="1"/>
        <pt x="564" y="0" on="1"/>
        <pt x="552" y="-9" on="1"/>
        <pt x="491" y="-55" on="0"/>
        <pt x="446" y="-108" on="0"/>
        <pt x="446" y="-133" on="1"/>
        <pt x="446" y="-150" on="0"/>
        <pt x="469" y="-178" on="0"/>
        <pt x="497" y="-178" on="1"/>
        <pt x="511" y="-178" on="0"/>
        <pt x="541" y="-169" on="0"/>
        <pt x="557" y="-160" on="1"/>
        <pt x="577" y="-212" on="1"/>
        <pt x="552" y="-228" on="0"/>
        <pt x="491" y="-250" on="0"/>
        <pt x="457" y="-250" on="1"/>
        <pt x="407" y="-250" on="0"/>
        <pt x="333" y="-204" on="0"/>
        <pt x="333" y="-154" on="1"/>
        <pt x="333" y="-108" on="0"/>
        <pt x="408" y="-37" on="0"/>
        <pt x="473" y="0" on="1"/>
        <pt x="322" y="0" on="1"/>
        <pt x="344" y="87" on="1"/>
        <pt x="426" y="87" on="1"/>
        <pt x="417" y="210" on="1"/>
        <pt x="206" y="210" on="1"/>
        <pt x="136" y="87" on="1"/>
        <pt x="221" y="87" on="1"/>
        <pt x="199" y="0" on="1"/>
      </contour>
      <contour>
        <pt x="250" y="289" on="1"/>
        <pt x="412" y="289" on="1"/>
        <pt x="395" y="538" on="1"/>
        <pt x="391" y="538" on="1"/>
      </contour>
    </TTGlyph>
    <TTGlyph name="Aring" xMin="-54" yMin="0" xMax="665" yMax="864">
      <contour>
        <pt x="-54" y="0" on="1"/>
        <pt x="-33" y="87" on="1"/>
        <pt x="33" y="87" on="1"/>
        <pt x="372" y="661" on="1"/>
        <pt x="356" y="675" on="0"/>
        <pt x="338" y="715" on="0"/>
        <pt x="338" y="737" on="1"/>
        <pt x="338" y="787" on="0"/>
        <pt x="412" y="864" on="0"/>
        <pt x="473" y="864" on="1"/>
        <pt x="529" y="864" on="0"/>
        <pt x="591" y="802" on="0"/>
        <pt x="591" y="760" on="1"/>
        <pt x="591" y="725" on="0"/>
        <pt x="557" y="665" on="0"/>
        <pt x="526" y="649" on="1"/>
        <pt x="583" y="87" on="1"/>
        <pt x="665" y="87" on="1"/>
        <pt x="644" y="0" on="1"/>
        <pt x="322" y="0" on="1"/>
        <pt x="344" y="87" on="1"/>
        <pt x="426" y="87" on="1"/>
        <pt x="417" y="210" on="1"/>
        <pt x="206" y="210" on="1"/>
        <pt x="136" y="87" on="1"/>
        <pt x="221" y="87" on="1"/>
        <pt x="199" y="0" on="1"/>
      </contour>
      <contour>
        <pt x="459" y="682" on="1"/>
        <pt x="484" y="682" on="0"/>
        <pt x="516" y="731" on="0"/>
        <pt x="516" y="763" on="1"/>
        <pt x="516" y="783" on="0"/>
        <pt x="495" y="814" on="0"/>
        <pt x="471" y="814" on="1"/>
        <pt x="446" y="814" on="0"/>
        <pt x="414" y="766" on="0"/>
        <pt x="414" y="733" on="1"/>
        <pt x="414" y="713" on="0"/>
        <pt x="435" y="682" on="0"/>
      </contour>
      <contour>
        <pt x="250" y="289" on="1"/>
        <pt x="412" y="289" on="1"/>
        <pt x="395" y="538" on="1"/>
        <pt x="391" y="538" on="1"/>
      </contour>
    </TTGlyph>
    <TTGlyph name="Aringacute" xMin="-54" yMin="0" xMax="693" yMax="1122">
      <component glyphName="Aring" x="0" y="0" flags="0x204"/>
      <component glyphName="acute" x="340" y="371" flags="0x4"/>
    </TTGlyph>
    <TTGlyph name="Atilde" xMin="-54" yMin="0" xMax="687" yMax="893">
      <component glyphName="A" x="0" y="0" flags="0x204"/>
      <component glyphName="tilde" x="186" y="194" flags="0x4"/>
    </TTGlyph>
    <TTGlyph name="B" xMin="-30" yMin="0" xMax="672" yMax="658">
      <contour>
        <pt x="-30" y="0" on="1"/>
        <pt x="-8" y="87" on="1"/>
        <pt x="80" y="87" on="1"/>
        <pt x="201" y="571" on="1"/>
        <pt x="112" y="571" on="1"/>
        <pt x="133" y="658" on="1"/>
        <pt x="442" y="658" on="1"/>
        <pt x="510" y="658" on="0"/>
        <pt x="599" y="635" on="0"/>
        <pt x="651" y="596" on="0"/>
        <pt x="672" y="547" on="0"/>
        <pt x="672" y="522" on="1"/>
        <pt x="672" y="492" on="0"/>
        <pt x="649" y="434" on="0"/>
        <pt x="599" y="387" on="0"/>
        <pt x="517" y="353" on="0"/>
        <pt x="459" y="347" on="1"/>
        <pt x="457" y="340" on="1"/>
        <pt x="539" y="327" on="0"/>
        <pt x="618" y="255" on="0"/>
        <pt x="618" y="202" on="1"/>
        <pt x="618" y="167" on="0"/>
        <pt x="593" y="104" on="0"/>
        <pt x="570" y="80" on="1"/>
        <pt x="533" y="43" on="0"/>
        <pt x="400" y="0" on="0"/>
        <pt x="296" y="0" on="1"/>
      </contour>
      <contour>
        <pt x="310" y="384" on="1"/>
        <pt x="372" y="384" on="1"/>
        <pt x="446" y="384" on="0"/>
        <pt x="513" y="455" on="0"/>
        <pt x="513" y="498" on="1"/>
        <pt x="513" y="533" on="0"/>
        <pt x="468" y="571" on="0"/>
        <pt x="411" y="571" on="1"/>
        <pt x="357" y="571" on="1"/>
      </contour>
      <contour>
        <pt x="236" y="87" on="1"/>
        <pt x="301" y="87" on="1"/>
        <pt x="385" y="87" on="0"/>
        <pt x="462" y="157" on="0"/>
        <pt x="462" y="215" on="1"/>
        <pt x="462" y="254" on="0"/>
        <pt x="408" y="300" on="0"/>
        <pt x="339" y="300" on="1"/>
        <pt x="289" y="300" on="1"/>
      </contour>
    </TTGlyph>
    <TTGlyph name="C" xMin="58" yMin="-16" xMax="740" yMax="674">
      <contour>
        <pt x="343" y="-16" on="1"/>
        <pt x="209" y="-16" on="0"/>
        <pt x="58" y="138" on="0"/>
        <pt x="58" y="265" on="1"/>
        <pt x="58" y="333" on="0"/>
        <pt x="106" y="478" on="0"/>
        <pt x="198" y="597" on="0"/>
        <pt x="334" y="674" on="0"/>
        <pt x="422" y="674" on="1"/>
        <pt x="483" y="674" on="0"/>
        <pt x="577" y="630" on="0"/>
        <pt x="604" y="590" on="1"/>
        <pt x="649" y="672" on="1"/>
        <pt x="740" y="672" on="1"/>
        <pt x="675" y="410" on="1"/>
        <pt x="580" y="410" on="1"/>
        <pt x="574" y="509" on="0"/>
        <pt x="492" y="592" on="0"/>
        <pt x="435" y="592" on="1"/>
        <pt x="375" y="592" on="0"/>
        <pt x="293" y="512" on="0"/>
        <pt x="244" y="401" on="0"/>
        <pt x="222" y="285" on="0"/>
        <pt x="222" y="249" on="1"/>
        <pt x="222" y="199" on="0"/>
        <pt x="248" y="133" on="0"/>
        <pt x="288" y="94" on="0"/>
        <pt x="338" y="78" on="0"/>
        <pt x="363" y="78" on="1"/>
        <pt x="438" y="78" on="0"/>
        <pt x="530" y="177" on="0"/>
        <pt x="565" y="261" on="1"/>
        <pt x="647" y="235" on="1"/>
        <pt x="629" y="182" on="0"/>
        <pt x="575" y="90" on="0"/>
        <pt x="502" y="23" on="0"/>
        <pt x="405" y="-16" on="0"/>
      </contour>
    </TTGlyph>
    <TTGlyph name="Cacute" xMin="58" yMin="-16" xMax="740" yMax="945">
      <component glyphName="C" x="0" y="0" flags="0x204"/>
      <component glyphName="acute" x="278" y="194" flags="0x4"/>
    </TTGlyph>
    <TTGlyph name="Ccaron" xMin="58" yMin="-16" xMax="740" yMax="929">
      <component glyphName="C" x="0" y="0" flags="0x204"/>
      <component glyphName="caron" x="206" y="194" flags="0x4"/>
    </TTGlyph>
    <TTGlyph name="Ccedilla" xMin="58" yMin="-249" xMax="740" yMax="674">
      <contour>
        <pt x="256" y="-249" on="1"/>
        <pt x="224" y="-249" on="0"/>
        <pt x="149" y="-228" on="0"/>
        <pt x="121" y="-208" on="1"/>
        <pt x="155" y="-160" on="1"/>
        <pt x="173" y="-171" on="0"/>
        <pt x="220" y="-187" on="0"/>
        <pt x="245" y="-187" on="1"/>
        <pt x="266" y="-187" on="0"/>
        <pt x="290" y="-171" on="0"/>
        <pt x="290" y="-156" on="1"/>
        <pt x="290" y="-138" on="0"/>
        <pt x="242" y="-119" on="0"/>
        <pt x="199" y="-122" on="1"/>
        <pt x="185" y="-83" on="1"/>
        <pt x="281" y="-11" on="1"/>
        <pt x="176" y="6" on="0"/>
        <pt x="58" y="154" on="0"/>
        <pt x="58" y="265" on="1"/>
        <pt x="58" y="333" on="0"/>
        <pt x="106" y="478" on="0"/>
        <pt x="198" y="597" on="0"/>
        <pt x="334" y="674" on="0"/>
        <pt x="422" y="674" on="1"/>
        <pt x="483" y="674" on="0"/>
        <pt x="577" y="630" on="0"/>
        <pt x="604" y="590" on="1"/>
        <pt x="649" y="672" on="1"/>
        <pt x="740" y="672" on="1"/>
        <pt x="675" y="410" on="1"/>
        <pt x="580" y="410" on="1"/>
        <pt x="574" y="509" on="0"/>
        <pt x="492" y="592" on="0"/>
        <pt x="435" y="592" on="1"/>
        <pt x="375" y="592" on="0"/>
        <pt x="293" y="512" on="0"/>
        <pt x="244" y="401" on="0"/>
        <pt x="222" y="285" on="0"/>
        <pt x="222" y="249" on="1"/>
        <pt x="222" y="199" on="0"/>
        <pt x="248" y="133" on="0"/>
        <pt x="288" y="94" on="0"/>
        <pt x="338" y="78" on="0"/>
        <pt x="363" y="78" on="1"/>
        <pt x="438" y="78" on="0"/>
        <pt x="530" y="177" on="0"/>
        <pt x="565" y="261" on="1"/>
        <pt x="647" y="235" on="1"/>
        <pt x="629" y="184" on="0"/>
        <pt x="578" y="93" on="0"/>
        <pt x="507" y="27" on="0"/>
        <pt x="415" y="-14" on="0"/>
        <pt x="356" y="-16" on="1"/>
        <pt x="303" y="-59" on="1"/>
        <pt x="304" y="-63" on="1"/>
        <pt x="348" y="-72" on="0"/>
        <pt x="396" y="-116" on="0"/>
        <pt x="396" y="-147" on="1"/>
        <pt x="396" y="-190" on="0"/>
        <pt x="321" y="-249" on="0"/>
      </contour>
    </TTGlyph>
    <TTGlyph name="Cdotaccent" xMin="58" yMin="-16" xMax="740" yMax="887">
      <component glyphName="C" x="0" y="0" flags="0x204"/>
      <component glyphName="dotaccent" x="269" y="194" flags="0x4"/>
    </TTGlyph>
    <TTGlyph name="D" xMin="-30" yMin="0" xMax="732" yMax="658">
      <contour>
        <pt x="-30" y="0" on="1"/>
        <pt x="-8" y="87" on="1"/>
        <pt x="80" y="87" on="1"/>
        <pt x="201" y="571" on="1"/>
        <pt x="112" y="571" on="1"/>
        <pt x="133" y="658" on="1"/>
        <pt x="398" y="658" on="1"/>
        <pt x="481" y="658" on="0"/>
        <pt x="607" y="619" on="0"/>
        <pt x="690" y="549" on="0"/>
        <pt x="732" y="452" on="0"/>
        <pt x="732" y="395" on="1"/>
        <pt x="732" y="321" on="0"/>
        <pt x="676" y="175" on="0"/>
        <pt x="620" y="118" on="1"/>
        <pt x="564" y="62" on="0"/>
        <pt x="396" y="0" on="0"/>
        <pt x="277" y="0" on="1"/>
      </contour>
      <contour>
        <pt x="236" y="85" on="1"/>
        <pt x="290" y="85" on="1"/>
        <pt x="350" y="85" on="0"/>
        <pt x="433" y="114" on="0"/>
        <pt x="470" y="151" on="1"/>
        <pt x="491" y="172" on="0"/>
        <pt x="526" y="235" on="0"/>
        <pt x="551" y="308" on="0"/>
        <pt x="566" y="387" on="0"/>
        <pt x="566" y="423" on="1"/>
        <pt x="566" y="499" on="0"/>
        <pt x="486" y="573" on="0"/>
        <pt x="402" y="573" on="1"/>
        <pt x="358" y="573" on="1"/>
      </contour>
    </TTGlyph>
    <TTGlyph name="Dcaron" xMin="-30" yMin="0" xMax="732" yMax="929">
      <component glyphName="D" x="0" y="0" flags="0x204"/>
      <component glyphName="caron" x="234" y="194" flags="0x4"/>
    </TTGlyph>
    <TTGlyph name="Dcroat" xMin="-30" yMin="0" xMax="732" yMax="658">
      <component glyphName="Eth" x="0" y="0" flags="0x204"/>
    </TTGlyph>
    <TTGlyph name="E" xMin="-30" yMin="0" xMax="734" yMax="658">
      <contour>
        <pt x="-30" y="0" on="1"/>
        <pt x="-8" y="87" on="1"/>
        <pt x="80" y="87" on="1"/>
        <pt x="201" y="571" on="1"/>
        <pt x="112" y="571" on="1"/>
        <pt x="133" y="658" on="1"/>
        <pt x="734" y="658" on="1"/>
        <pt x="675" y="424" on="1"/>
        <pt x="596" y="424" on="1"/>
        <pt x="597" y="471" on="0"/>
        <pt x="592" y="529" on="0"/>
        <pt x="573" y="562" on="0"/>
        <pt x="535" y="573" on="0"/>
        <pt x="503" y="573" on="1"/>
        <pt x="358" y="573" on="1"/>
        <pt x="308" y="374" on="1"/>
        <pt x="343" y="374" on="1"/>
        <pt x="364" y="374" on="0"/>
        <pt x="391" y="380" on="0"/>
        <pt x="412" y="399" on="0"/>
        <pt x="430" y="436" on="0"/>
        <pt x="443" y="466" on="1"/>
        <pt x="522" y="466" on="1"/>
        <pt x="455" y="199" on="1"/>
        <pt x="379" y="199" on="1"/>
        <pt x="386" y="259" on="0"/>
        <pt x="368" y="293" on="0"/>
        <pt x="328" y="293" on="1"/>
        <pt x="288" y="293" on="1"/>
        <pt x="236" y="85" on="1"/>
        <pt x="378" y="85" on="1"/>
        <pt x="416" y="85" on="0"/>
        <pt x="464" y="100" on="0"/>
        <pt x="501" y="140" on="0"/>
        <pt x="535" y="208" on="0"/>
        <pt x="557" y="260" on="1"/>
        <pt x="645" y="260" on="1"/>
        <pt x="580" y="0" on="1"/>
      </contour>
    </TTGlyph>
    <TTGlyph name="Eacute" xMin="-30" yMin="0" xMax="734" yMax="945">
      <component glyphName="E" x="0" y="0" flags="0x204"/>
      <component glyphName="acute" x="297" y="194" flags="0x4"/>
    </TTGlyph>
    <TTGlyph name="Ebreve" xMin="-30" yMin="0" xMax="734" yMax="911">
      <component glyphName="E" x="0" y="0" flags="0x204"/>
      <component glyphName="breve" x="204" y="194" flags="0x4"/>
    </TTGlyph>
    <TTGlyph name="Ecaron" xMin="-30" yMin="0" xMax="734" yMax="929">
      <component glyphName="E" x="0" y="0" flags="0x204"/>
      <component glyphName="caron" x="225" y="194" flags="0x4"/>
    </TTGlyph>
    <TTGlyph name="Ecircumflex" xMin="-30" yMin="0" xMax="734" yMax="926">
      <component glyphName="E" x="0" y="0" flags="0x204"/>
      <component glyphName="circumflex" x="211" y="194" flags="0x4"/>
    </TTGlyph>
    <TTGlyph name="Edieresis" xMin="-30" yMin="0" xMax="734" yMax="887">
      <component glyphName="E" x="0" y="0" flags="0x204"/>
      <component glyphName="dieresis" x="201" y="194" flags="0x4"/>
    </TTGlyph>
    <TTGlyph name="Edotaccent" xMin="-30" yMin="0" xMax="734" yMax="887">
      <component glyphName="E" x="0" y="0" flags="0x204"/>
      <component glyphName="dotaccent" x="288" y="194" flags="0x4"/>
    </TTGlyph>
    <TTGlyph name="Egrave" xMin="-30" yMin="0" xMax="734" yMax="946">
      <component glyphName="E" x="0" y="0" flags="0x204"/>
      <component glyphName="grave" x="197" y="194" flags="0x4"/>
    </TTGlyph>
    <TTGlyph name="Emacron" xMin="-30" yMin="0" xMax="734" yMax="832">
      <component glyphName="E" x="0" y="0" flags="0x204"/>
      <component glyphName="macron" x="213" y="194" flags="0x4"/>
    </TTGlyph>
    <TTGlyph name="Eogonek" xMin="-30" yMin="-250" xMax="734" yMax="658">
      <contour>
        <pt x="-30" y="0" on="1"/>
        <pt x="-8" y="87" on="1"/>
        <pt x="80" y="87" on="1"/>
        <pt x="201" y="571" on="1"/>
        <pt x="112" y="571" on="1"/>
        <pt x="133" y="658" on="1"/>
        <pt x="734" y="658" on="1"/>
        <pt x="675" y="424" on="1"/>
        <pt x="596" y="424" on="1"/>
        <pt x="597" y="471" on="0"/>
        <pt x="592" y="529" on="0"/>
        <pt x="573" y="562" on="0"/>
        <pt x="535" y="573" on="0"/>
        <pt x="503" y="573" on="1"/>
        <pt x="358" y="573" on="1"/>
        <pt x="308" y="374" on="1"/>
        <pt x="343" y="374" on="1"/>
        <pt x="364" y="374" on="0"/>
        <pt x="391" y="380" on="0"/>
        <pt x="412" y="399" on="0"/>
        <pt x="430" y="436" on="0"/>
        <pt x="443" y="466" on="1"/>
        <pt x="522" y="466" on="1"/>
        <pt x="455" y="199" on="1"/>
        <pt x="379" y="199" on="1"/>
        <pt x="386" y="259" on="0"/>
        <pt x="368" y="293" on="0"/>
        <pt x="328" y="293" on="1"/>
        <pt x="288" y="293" on="1"/>
        <pt x="236" y="85" on="1"/>
        <pt x="378" y="85" on="1"/>
        <pt x="416" y="85" on="0"/>
        <pt x="464" y="100" on="0"/>
        <pt x="501" y="140" on="0"/>
        <pt x="535" y="208" on="0"/>
        <pt x="557" y="260" on="1"/>
        <pt x="645" y="260" on="1"/>
        <pt x="580" y="0" on="1"/>
        <pt x="526" y="0" on="1"/>
        <pt x="514" y="-9" on="1"/>
        <pt x="453" y="-55" on="0"/>
        <pt x="408" y="-108" on="0"/>
        <pt x="408" y="-133" on="1"/>
        <pt x="408" y="-150" on="0"/>
        <pt x="431" y="-178" on="0"/>
        <pt x="459" y="-178" on="1"/>
        <pt x="473" y="-178" on="0"/>
        <pt x="503" y="-169" on="0"/>
        <pt x="519" y="-160" on="1"/>
        <pt x="539" y="-212" on="1"/>
        <pt x="514" y="-228" on="0"/>
        <pt x="453" y="-250" on="0"/>
        <pt x="419" y="-250" on="1"/>
        <pt x="369" y="-250" on="0"/>
        <pt x="295" y="-204" on="0"/>
        <pt x="295" y="-154" on="1"/>
        <pt x="295" y="-108" on="0"/>
        <pt x="370" y="-37" on="0"/>
        <pt x="435" y="0" on="1"/>
      </contour>
    </TTGlyph>
    <TTGlyph name="Eth" xMin="-30" yMin="0" xMax="732" yMax="658">
      <contour>
        <pt x="-30" y="0" on="1"/>
        <pt x="-8" y="87" on="1"/>
        <pt x="80" y="87" on="1"/>
        <pt x="133" y="300" on="1"/>
        <pt x="45" y="300" on="1"/>
        <pt x="66" y="387" on="1"/>
        <pt x="155" y="387" on="1"/>
        <pt x="201" y="571" on="1"/>
        <pt x="112" y="571" on="1"/>
        <pt x="133" y="658" on="1"/>
        <pt x="398" y="658" on="1"/>
        <pt x="481" y="658" on="0"/>
        <pt x="607" y="619" on="0"/>
        <pt x="690" y="549" on="0"/>
        <pt x="732" y="452" on="0"/>
        <pt x="732" y="395" on="1"/>
        <pt x="732" y="321" on="0"/>
        <pt x="676" y="175" on="0"/>
        <pt x="620" y="118" on="1"/>
        <pt x="564" y="62" on="0"/>
        <pt x="396" y="0" on="0"/>
        <pt x="277" y="0" on="1"/>
      </contour>
      <contour>
        <pt x="236" y="85" on="1"/>
        <pt x="290" y="85" on="1"/>
        <pt x="350" y="85" on="0"/>
        <pt x="433" y="114" on="0"/>
        <pt x="470" y="151" on="1"/>
        <pt x="491" y="172" on="0"/>
        <pt x="526" y="235" on="0"/>
        <pt x="551" y="308" on="0"/>
        <pt x="566" y="387" on="0"/>
        <pt x="566" y="423" on="1"/>
        <pt x="566" y="499" on="0"/>
        <pt x="486" y="573" on="0"/>
        <pt x="402" y="573" on="1"/>
        <pt x="358" y="573" on="1"/>
        <pt x="312" y="387" on="1"/>
        <pt x="426" y="387" on="1"/>
        <pt x="405" y="300" on="1"/>
        <pt x="290" y="300" on="1"/>
      </contour>
    </TTGlyph>
    <TTGlyph name="Euro" xMin="17" yMin="-16" xMax="677" yMax="650">
      <contour>
        <pt x="17" y="196" on="1"/>
        <pt x="36" y="274" on="1"/>
        <pt x="116" y="274" on="1"/>
        <pt x="117" y="291" on="0"/>
        <pt x="121" y="325" on="0"/>
        <pt x="124" y="341" on="1"/>
        <pt x="52" y="341" on="1"/>
        <pt x="72" y="419" on="1"/>
        <pt x="148" y="419" on="1"/>
        <pt x="168" y="469" on="0"/>
        <pt x="232" y="555" on="0"/>
        <pt x="315" y="616" on="0"/>
        <pt x="414" y="650" on="0"/>
        <pt x="470" y="650" on="1"/>
        <pt x="521" y="650" on="0"/>
        <pt x="599" y="622" on="0"/>
        <pt x="651" y="577" on="0"/>
        <pt x="677" y="519" on="0"/>
        <pt x="677" y="490" on="1"/>
        <pt x="677" y="446" on="0"/>
        <pt x="627" y="387" on="0"/>
        <pt x="590" y="387" on="1"/>
        <pt x="556" y="387" on="0"/>
        <pt x="518" y="427" on="0"/>
        <pt x="518" y="457" on="1"/>
        <pt x="518" y="488" on="0"/>
        <pt x="547" y="528" on="0"/>
        <pt x="563" y="536" on="1"/>
        <pt x="556" y="549" on="0"/>
        <pt x="513" y="572" on="0"/>
        <pt x="480" y="572" on="1"/>
        <pt x="409" y="572" on="0"/>
        <pt x="321" y="480" on="0"/>
        <pt x="299" y="418" on="1"/>
        <pt x="463" y="418" on="1"/>
        <pt x="444" y="341" on="1"/>
        <pt x="279" y="341" on="1"/>
        <pt x="275" y="324" on="0"/>
        <pt x="272" y="290" on="0"/>
        <pt x="271" y="274" on="1"/>
        <pt x="428" y="274" on="1"/>
        <pt x="409" y="198" on="1"/>
        <pt x="274" y="198" on="1"/>
        <pt x="284" y="128" on="0"/>
        <pt x="356" y="77" on="0"/>
        <pt x="395" y="77" on="1"/>
        <pt x="440" y="77" on="0"/>
        <pt x="521" y="138" on="0"/>
        <pt x="558" y="210" on="1"/>
        <pt x="625" y="170" on="1"/>
        <pt x="587" y="89" on="0"/>
        <pt x="459" y="-16" on="0"/>
        <pt x="367" y="-16" on="1"/>
        <pt x="269" y="-16" on="0"/>
        <pt x="133" y="90" on="0"/>
        <pt x="118" y="196" on="1"/>
      </contour>
    </TTGlyph>
    <TTGlyph name="Euro.osf" xMin="8" yMin="-16" xMax="654" yMax="575">
      <contour>
        <pt x="8" y="169" on="1"/>
        <pt x="27" y="242" on="1"/>
        <pt x="106" y="242" on="1"/>
        <pt x="107" y="257" on="0"/>
        <pt x="111" y="286" on="0"/>
        <pt x="114" y="300" on="1"/>
        <pt x="40" y="300" on="1"/>
        <pt x="59" y="373" on="1"/>
        <pt x="138" y="373" on="1"/>
        <pt x="178" y="460" on="0"/>
        <pt x="341" y="575" on="0"/>
        <pt x="447" y="575" on="1"/>
        <pt x="498" y="575" on="0"/>
        <pt x="576" y="548" on="0"/>
        <pt x="628" y="505" on="0"/>
        <pt x="654" y="450" on="0"/>
        <pt x="654" y="422" on="1"/>
        <pt x="654" y="378" on="0"/>
        <pt x="604" y="320" on="0"/>
        <pt x="566" y="320" on="1"/>
        <pt x="532" y="320" on="0"/>
        <pt x="493" y="358" on="0"/>
        <pt x="493" y="388" on="1"/>
        <pt x="493" y="419" on="0"/>
        <pt x="524" y="460" on="0"/>
        <pt x="543" y="469" on="1"/>
        <pt x="536" y="479" on="0"/>
        <pt x="492" y="500" on="0"/>
        <pt x="457" y="500" on="1"/>
        <pt x="391" y="500" on="0"/>
        <pt x="309" y="423" on="0"/>
        <pt x="287" y="372" on="1"/>
        <pt x="444" y="372" on="1"/>
        <pt x="426" y="300" on="1"/>
        <pt x="265" y="300" on="1"/>
        <pt x="262" y="285" on="0"/>
        <pt x="259" y="255" on="0"/>
        <pt x="258" y="242" on="1"/>
        <pt x="412" y="242" on="1"/>
        <pt x="394" y="170" on="1"/>
        <pt x="262" y="170" on="1"/>
        <pt x="275" y="115" on="0"/>
        <pt x="345" y="74" on="0"/>
        <pt x="381" y="74" on="1"/>
        <pt x="429" y="74" on="0"/>
        <pt x="512" y="134" on="0"/>
        <pt x="549" y="202" on="1"/>
        <pt x="616" y="162" on="1"/>
        <pt x="579" y="86" on="0"/>
        <pt x="448" y="-16" on="0"/>
        <pt x="352" y="-16" on="1"/>
        <pt x="259" y="-16" on="0"/>
        <pt x="127" y="79" on="0"/>
        <pt x="111" y="169" on="1"/>
      </contour>
    </TTGlyph>
    <TTGlyph name="Euro.tab" xMin="-1" yMin="-16" xMax="578" yMax="650">
      <contour>
        <pt x="-1" y="202" on="1"/>
        <pt x="17" y="273" on="1"/>
        <pt x="80" y="273" on="1"/>
        <pt x="81" y="290" on="0"/>
        <pt x="85" y="323" on="0"/>
        <pt x="88" y="339" on="1"/>
        <pt x="33" y="339" on="1"/>
        <pt x="50" y="411" on="1"/>
        <pt x="108" y="411" on="1"/>
        <pt x="126" y="463" on="0"/>
        <pt x="184" y="551" on="0"/>
        <pt x="258" y="614" on="0"/>
        <pt x="347" y="650" on="0"/>
        <pt x="397" y="650" on="1"/>
        <pt x="443" y="650" on="0"/>
        <pt x="511" y="623" on="0"/>
        <pt x="556" y="579" on="0"/>
        <pt x="578" y="522" on="0"/>
        <pt x="578" y="492" on="1"/>
        <pt x="578" y="447" on="0"/>
        <pt x="531" y="393" on="0"/>
        <pt x="497" y="393" on="1"/>
        <pt x="466" y="393" on="0"/>
        <pt x="429" y="430" on="0"/>
        <pt x="429" y="460" on="1"/>
        <pt x="429" y="489" on="0"/>
        <pt x="459" y="528" on="0"/>
        <pt x="476" y="537" on="1"/>
        <pt x="470" y="549" on="0"/>
        <pt x="434" y="572" on="0"/>
        <pt x="405" y="572" on="1"/>
        <pt x="375" y="572" on="0"/>
        <pt x="325" y="546" on="0"/>
        <pt x="286" y="501" on="0"/>
        <pt x="257" y="442" on="0"/>
        <pt x="247" y="409" on="1"/>
        <pt x="397" y="409" on="1"/>
        <pt x="379" y="339" on="1"/>
        <pt x="230" y="339" on="1"/>
        <pt x="227" y="322" on="0"/>
        <pt x="223" y="289" on="0"/>
        <pt x="222" y="273" on="1"/>
        <pt x="363" y="273" on="1"/>
        <pt x="346" y="203" on="1"/>
        <pt x="221" y="203" on="1"/>
        <pt x="226" y="127" on="0"/>
        <pt x="284" y="77" on="0"/>
        <pt x="317" y="77" on="1"/>
        <pt x="354" y="77" on="0"/>
        <pt x="423" y="128" on="0"/>
        <pt x="454" y="186" on="1"/>
        <pt x="519" y="147" on="1"/>
        <pt x="485" y="75" on="0"/>
        <pt x="371" y="-16" on="0"/>
        <pt x="292" y="-16" on="1"/>
        <pt x="202" y="-16" on="0"/>
        <pt x="88" y="92" on="0"/>
        <pt x="80" y="202" on="1"/>
      </contour>
    </TTGlyph>
    <TTGlyph name="F" xMin="-30" yMin="0" xMax="721" yMax="658">
      <contour>
        <pt x="-30" y="0" on="1"/>
        <pt x="-8" y="87" on="1"/>
        <pt x="80" y="87" on="1"/>
        <pt x="201" y="571" on="1"/>
        <pt x="112" y="571" on="1"/>
        <pt x="133" y="658" on="1"/>
        <pt x="721" y="658" on="1"/>
        <pt x="661" y="419" on="1"/>
        <pt x="580" y="419" on="1"/>
        <pt x="580" y="469" on="0"/>
        <pt x="572" y="530" on="0"/>
        <pt x="549" y="563" on="0"/>
        <pt x="508" y="573" on="0"/>
        <pt x="476" y="573" on="1"/>
        <pt x="357" y="573" on="1"/>
        <pt x="304" y="363" on="1"/>
        <pt x="336" y="363" on="1"/>
        <pt x="377" y="363" on="0"/>
        <pt x="411" y="396" on="0"/>
        <pt x="435" y="455" on="1"/>
        <pt x="513" y="455" on="1"/>
        <pt x="445" y="185" on="1"/>
        <pt x="369" y="185" on="1"/>
        <pt x="377" y="246" on="0"/>
        <pt x="360" y="281" on="0"/>
        <pt x="318" y="281" on="1"/>
        <pt x="284" y="281" on="1"/>
        <pt x="236" y="87" on="1"/>
        <pt x="344" y="87" on="1"/>
        <pt x="322" y="0" on="1"/>
      </contour>
    </TTGlyph>
    <TTGlyph name="G" xMin="58" yMin="-16" xMax="749" yMax="674">
      <contour>
        <pt x="304" y="-16" on="1"/>
        <pt x="247" y="-16" on="0"/>
        <pt x="155" y="24" on="0"/>
        <pt x="92" y="96" on="0"/>
        <pt x="58" y="197" on="0"/>
        <pt x="58" y="258" on="1"/>
        <pt x="58" y="334" on="0"/>
        <pt x="109" y="483" on="0"/>
        <pt x="204" y="601" on="0"/>
        <pt x="342" y="674" on="0"/>
        <pt x="429" y="674" on="1"/>
        <pt x="497" y="674" on="0"/>
        <pt x="582" y="627" on="0"/>
        <pt x="608" y="590" on="1"/>
        <pt x="653" y="672" on="1"/>
        <pt x="744" y="672" on="1"/>
        <pt x="681" y="417" on="1"/>
        <pt x="573" y="417" on="1"/>
        <pt x="568" y="506" on="0"/>
        <pt x="498" y="592" on="0"/>
        <pt x="441" y="592" on="1"/>
        <pt x="385" y="592" on="0"/>
        <pt x="302" y="521" on="0"/>
        <pt x="248" y="416" on="0"/>
        <pt x="222" y="293" on="0"/>
        <pt x="222" y="243" on="1"/>
        <pt x="222" y="192" on="0"/>
        <pt x="243" y="126" on="0"/>
        <pt x="276" y="88" on="0"/>
        <pt x="319" y="74" on="0"/>
        <pt x="340" y="74" on="1"/>
        <pt x="400" y="74" on="0"/>
        <pt x="475" y="166" on="0"/>
        <pt x="494" y="235" on="1"/>
        <pt x="499" y="254" on="1"/>
        <pt x="388" y="254" on="1"/>
        <pt x="409" y="341" on="1"/>
        <pt x="749" y="341" on="1"/>
        <pt x="728" y="254" on="1"/>
        <pt x="653" y="254" on="1"/>
        <pt x="585" y="-8" on="1"/>
        <pt x="499" y="-8" on="1"/>
        <pt x="488" y="81" on="1"/>
        <pt x="462" y="43" on="0"/>
        <pt x="373" y="-16" on="0"/>
      </contour>
    </TTGlyph>
    <TTGlyph name="Gbreve" xMin="58" yMin="-16" xMax="749" yMax="911">
      <component glyphName="G" x="0" y="0" flags="0x204"/>
      <component glyphName="breve" x="197" y="194" flags="0x4"/>
    </TTGlyph>
    <TTGlyph name="Gdotaccent" xMin="58" yMin="-16" xMax="749" yMax="887">
      <component glyphName="G" x="0" y="0" flags="0x204"/>
      <component glyphName="dotaccent" x="280" y="194" flags="0x4"/>
    </TTGlyph>
    <TTGlyph name="H" xMin="-30" yMin="0" xMax="868" yMax="658">
      <contour>
        <pt x="-30" y="0" on="1"/>
        <pt x="-8" y="87" on="1"/>
        <pt x="80" y="87" on="1"/>
        <pt x="201" y="571" on="1"/>
        <pt x="112" y="571" on="1"/>
        <pt x="133" y="658" on="1"/>
        <pt x="464" y="658" on="1"/>
        <pt x="442" y="571" on="1"/>
        <pt x="357" y="571" on="1"/>
        <pt x="311" y="383" on="1"/>
        <pt x="555" y="383" on="1"/>
        <pt x="602" y="571" on="1"/>
        <pt x="516" y="571" on="1"/>
        <pt x="538" y="658" on="1"/>
        <pt x="868" y="658" on="1"/>
        <pt x="846" y="571" on="1"/>
        <pt x="758" y="571" on="1"/>
        <pt x="637" y="87" on="1"/>
        <pt x="726" y="87" on="1"/>
        <pt x="705" y="0" on="1"/>
        <pt x="375" y="0" on="1"/>
        <pt x="396" y="87" on="1"/>
        <pt x="481" y="87" on="1"/>
        <pt x="534" y="299" on="1"/>
        <pt x="290" y="299" on="1"/>
        <pt x="237" y="87" on="1"/>
        <pt x="322" y="87" on="1"/>
        <pt x="301" y="0" on="1"/>
      </contour>
    </TTGlyph>
    <TTGlyph name="Hbar" xMin="-30" yMin="0" xMax="868" yMax="658">
      <contour>
        <pt x="-30" y="0" on="1"/>
        <pt x="-8" y="87" on="1"/>
        <pt x="80" y="87" on="1"/>
        <pt x="166" y="430" on="1"/>
        <pt x="76" y="430" on="1"/>
        <pt x="96" y="509" on="1"/>
        <pt x="186" y="509" on="1"/>
        <pt x="201" y="571" on="1"/>
        <pt x="112" y="571" on="1"/>
        <pt x="133" y="658" on="1"/>
        <pt x="464" y="658" on="1"/>
        <pt x="442" y="571" on="1"/>
        <pt x="357" y="571" on="1"/>
        <pt x="340" y="502" on="1"/>
        <pt x="585" y="502" on="1"/>
        <pt x="602" y="571" on="1"/>
        <pt x="516" y="571" on="1"/>
        <pt x="538" y="658" on="1"/>
        <pt x="868" y="658" on="1"/>
        <pt x="846" y="571" on="1"/>
        <pt x="758" y="571" on="1"/>
        <pt x="743" y="509" on="1"/>
        <pt x="831" y="509" on="1"/>
        <pt x="812" y="430" on="1"/>
        <pt x="723" y="430" on="1"/>
        <pt x="637" y="87" on="1"/>
        <pt x="726" y="87" on="1"/>
        <pt x="705" y="0" on="1"/>
        <pt x="375" y="0" on="1"/>
        <pt x="396" y="87" on="1"/>
        <pt x="481" y="87" on="1"/>
        <pt x="530" y="282" on="1"/>
        <pt x="286" y="282" on="1"/>
        <pt x="237" y="87" on="1"/>
        <pt x="322" y="87" on="1"/>
        <pt x="301" y="0" on="1"/>
      </contour>
      <contour>
        <pt x="307" y="367" on="1"/>
        <pt x="551" y="367" on="1"/>
        <pt x="569" y="437" on="1"/>
        <pt x="324" y="437" on="1"/>
      </contour>
    </TTGlyph>
    <TTGlyph name="I" xMin="-27" yMin="0" xMax="470" yMax="658">
      <contour>
        <pt x="-27" y="0" on="1"/>
        <pt x="-5" y="87" on="1"/>
        <pt x="83" y="87" on="1"/>
        <pt x="204" y="571" on="1"/>
        <pt x="115" y="571" on="1"/>
        <pt x="136" y="658" on="1"/>
        <pt x="470" y="658" on="1"/>
        <pt x="449" y="571" on="1"/>
        <pt x="360" y="571" on="1"/>
        <pt x="240" y="87" on="1"/>
        <pt x="329" y="87" on="1"/>
        <pt x="308" y="0" on="1"/>
      </contour>
    </TTGlyph>
    <TTGlyph name="Iacute" xMin="-27" yMin="0" xMax="499" yMax="945">
      <component glyphName="I" x="0" y="0" flags="0x204"/>
      <component glyphName="acute" x="146" y="194" flags="0x4"/>
    </TTGlyph>
    <TTGlyph name="Ibreve" xMin="-27" yMin="0" xMax="512" yMax="911">
      <component glyphName="I" x="0" y="0" flags="0x204"/>
      <component glyphName="breve" x="54" y="194" flags="0x4"/>
    </TTGlyph>
    <TTGlyph name="Icircumflex" xMin="-27" yMin="0" xMax="476" yMax="926">
      <component glyphName="I" x="0" y="0" flags="0x204"/>
      <component glyphName="circumflex" x="61" y="194" flags="0x4"/>
    </TTGlyph>
    <TTGlyph name="Idieresis" xMin="-27" yMin="0" xMax="513" yMax="887">
      <component glyphName="I" x="0" y="0" flags="0x204"/>
      <component glyphName="dieresis" x="51" y="194" flags="0x4"/>
    </TTGlyph>
    <TTGlyph name="Idotaccent" xMin="-27" yMin="0" xMax="470" yMax="887">
      <component glyphName="I" x="0" y="0" flags="0x204"/>
      <component glyphName="dotaccent" x="138" y="194" flags="0x4"/>
    </TTGlyph>
    <TTGlyph name="Igrave" xMin="-27" yMin="0" xMax="470" yMax="946">
      <component glyphName="I" x="0" y="0" flags="0x204"/>
      <component glyphName="grave" x="47" y="194" flags="0x4"/>
    </TTGlyph>
    <TTGlyph name="Imacron" xMin="-27" yMin="0" xMax="496" yMax="832">
      <component glyphName="I" x="0" y="0" flags="0x204"/>
      <component glyphName="macron" x="63" y="194" flags="0x4"/>
    </TTGlyph>
    <TTGlyph name="Iogonek" xMin="-27" yMin="-250" xMax="470" yMax="658">
      <contour>
        <pt x="-27" y="0" on="1"/>
        <pt x="-5" y="87" on="1"/>
        <pt x="83" y="87" on="1"/>
        <pt x="204" y="571" on="1"/>
        <pt x="115" y="571" on="1"/>
        <pt x="136" y="658" on="1"/>
        <pt x="470" y="658" on="1"/>
        <pt x="449" y="571" on="1"/>
        <pt x="360" y="571" on="1"/>
        <pt x="240" y="87" on="1"/>
        <pt x="329" y="87" on="1"/>
        <pt x="308" y="0" on="1"/>
        <pt x="207" y="0" on="1"/>
        <pt x="195" y="-9" on="1"/>
        <pt x="134" y="-55" on="0"/>
        <pt x="89" y="-108" on="0"/>
        <pt x="89" y="-133" on="1"/>
        <pt x="89" y="-150" on="0"/>
        <pt x="112" y="-178" on="0"/>
        <pt x="140" y="-178" on="1"/>
        <pt x="154" y="-178" on="0"/>
        <pt x="184" y="-169" on="0"/>
        <pt x="200" y="-160" on="1"/>
        <pt x="220" y="-212" on="1"/>
        <pt x="195" y="-228" on="0"/>
        <pt x="134" y="-250" on="0"/>
        <pt x="100" y="-250" on="1"/>
        <pt x="50" y="-250" on="0"/>
        <pt x="-24" y="-204" on="0"/>
        <pt x="-24" y="-154" on="1"/>
        <pt x="-24" y="-108" on="0"/>
        <pt x="51" y="-37" on="0"/>
        <pt x="116" y="0" on="1"/>
      </contour>
    </TTGlyph>
    <TTGlyph name="J" xMin="-5" yMin="-16" xMax="669" yMax="658">
      <contour>
        <pt x="213" y="-16" on="1"/>
        <pt x="108" y="-16" on="0"/>
        <pt x="-5" y="80" on="0"/>
        <pt x="-5" y="146" on="1"/>
        <pt x="-5" y="197" on="0"/>
        <pt x="53" y="266" on="0"/>
        <pt x="99" y="266" on="1"/>
        <pt x="135" y="266" on="0"/>
        <pt x="181" y="222" on="0"/>
        <pt x="181" y="188" on="1"/>
        <pt x="181" y="156" on="0"/>
        <pt x="145" y="109" on="0"/>
        <pt x="114" y="99" on="1"/>
        <pt x="122" y="84" on="0"/>
        <pt x="163" y="64" on="0"/>
        <pt x="191" y="64" on="1"/>
        <pt x="234" y="64" on="0"/>
        <pt x="294" y="124" on="0"/>
        <pt x="311" y="194" on="1"/>
        <pt x="406" y="571" on="1"/>
        <pt x="310" y="571" on="1"/>
        <pt x="332" y="658" on="1"/>
        <pt x="669" y="658" on="1"/>
        <pt x="647" y="571" on="1"/>
        <pt x="563" y="571" on="1"/>
        <pt x="472" y="210" on="1"/>
        <pt x="447" y="109" on="0"/>
        <pt x="326" y="-16" on="0"/>
      </contour>
    </TTGlyph>
    <TTGlyph name="K" xMin="-30" yMin="0" xMax="806" yMax="658">
      <contour>
        <pt x="-30" y="0" on="1"/>
        <pt x="-8" y="87" on="1"/>
        <pt x="80" y="87" on="1"/>
        <pt x="201" y="571" on="1"/>
        <pt x="112" y="571" on="1"/>
        <pt x="133" y="658" on="1"/>
        <pt x="460" y="658" on="1"/>
        <pt x="438" y="572" on="1"/>
        <pt x="357" y="572" on="1"/>
        <pt x="298" y="333" on="1"/>
        <pt x="583" y="572" on="1"/>
        <pt x="508" y="572" on="1"/>
        <pt x="529" y="658" on="1"/>
        <pt x="806" y="658" on="1"/>
        <pt x="785" y="571" on="1"/>
        <pt x="710" y="571" on="1"/>
        <pt x="484" y="391" on="1"/>
        <pt x="625" y="87" on="1"/>
        <pt x="703" y="87" on="1"/>
        <pt x="682" y="0" on="1"/>
        <pt x="362" y="0" on="1"/>
        <pt x="383" y="86" on="1"/>
        <pt x="452" y="86" on="1"/>
        <pt x="362" y="293" on="1"/>
        <pt x="270" y="219" on="1"/>
        <pt x="237" y="86" on="1"/>
        <pt x="315" y="86" on="1"/>
        <pt x="293" y="0" on="1"/>
      </contour>
    </TTGlyph>
    <TTGlyph name="L" xMin="-30" yMin="0" xMax="595" yMax="658">
      <contour>
        <pt x="-30" y="0" on="1"/>
        <pt x="-8" y="87" on="1"/>
        <pt x="80" y="87" on="1"/>
        <pt x="201" y="571" on="1"/>
        <pt x="112" y="571" on="1"/>
        <pt x="133" y="658" on="1"/>
        <pt x="478" y="658" on="1"/>
        <pt x="456" y="573" on="1"/>
        <pt x="357" y="573" on="1"/>
        <pt x="236" y="85" on="1"/>
        <pt x="335" y="85" on="1"/>
        <pt x="373" y="85" on="0"/>
        <pt x="421" y="101" on="0"/>
        <pt x="458" y="142" on="0"/>
        <pt x="492" y="213" on="0"/>
        <pt x="515" y="268" on="1"/>
        <pt x="595" y="268" on="1"/>
        <pt x="528" y="0" on="1"/>
      </contour>
    </TTGlyph>
    <TTGlyph name="Lacute" xMin="-30" yMin="0" xMax="595" yMax="945">
      <component glyphName="L" x="0" y="0" flags="0x204"/>
      <component glyphName="acute" x="143" y="194" flags="0x4"/>
    </TTGlyph>
    <TTGlyph name="Lcaron" xMin="-30" yMin="0" xMax="672" yMax="749">
      <component glyphName="L" x="0" y="0" flags="0x204"/>
      <component glyphName="caron.alt" x="364" y="-33" flags="0x4"/>
    </TTGlyph>
    <TTGlyph name="Ldot" xMin="-30" yMin="0" xMax="593" yMax="658">
      <contour>
        <pt x="-30" y="0" on="1"/>
        <pt x="-8" y="87" on="1"/>
        <pt x="80" y="87" on="1"/>
        <pt x="201" y="571" on="1"/>
        <pt x="112" y="571" on="1"/>
        <pt x="133" y="658" on="1"/>
        <pt x="478" y="658" on="1"/>
        <pt x="456" y="573" on="1"/>
        <pt x="357" y="573" on="1"/>
        <pt x="236" y="85" on="1"/>
        <pt x="335" y="85" on="1"/>
        <pt x="373" y="85" on="0"/>
        <pt x="422" y="100" on="0"/>
        <pt x="458" y="137" on="0"/>
        <pt x="489" y="199" on="0"/>
        <pt x="509" y="246" on="1"/>
        <pt x="589" y="246" on="1"/>
        <pt x="528" y="0" on="1"/>
      </contour>
      <contour>
        <pt x="503" y="308" on="1"/>
        <pt x="472" y="308" on="0"/>
        <pt x="432" y="346" on="0"/>
        <pt x="432" y="377" on="1"/>
        <pt x="432" y="408" on="0"/>
        <pt x="478" y="464" on="0"/>
        <pt x="521" y="464" on="1"/>
        <pt x="553" y="464" on="0"/>
        <pt x="593" y="426" on="0"/>
        <pt x="593" y="395" on="1"/>
        <pt x="593" y="364" on="0"/>
        <pt x="546" y="308" on="0"/>
      </contour>
    </TTGlyph>
    <TTGlyph name="Lslash" xMin="-26" yMin="0" xMax="599" yMax="658">
      <contour>
        <pt x="-26" y="0" on="1"/>
        <pt x="-4" y="87" on="1"/>
        <pt x="84" y="87" on="1"/>
        <pt x="124" y="249" on="1"/>
        <pt x="35" y="220" on="1"/>
        <pt x="56" y="306" on="1"/>
        <pt x="146" y="334" on="1"/>
        <pt x="205" y="571" on="1"/>
        <pt x="116" y="571" on="1"/>
        <pt x="137" y="658" on="1"/>
        <pt x="482" y="658" on="1"/>
        <pt x="460" y="573" on="1"/>
        <pt x="361" y="573" on="1"/>
        <pt x="315" y="387" on="1"/>
        <pt x="498" y="445" on="1"/>
        <pt x="477" y="361" on="1"/>
        <pt x="294" y="303" on="1"/>
        <pt x="240" y="85" on="1"/>
        <pt x="339" y="85" on="1"/>
        <pt x="377" y="85" on="0"/>
        <pt x="425" y="101" on="0"/>
        <pt x="462" y="142" on="0"/>
        <pt x="496" y="213" on="0"/>
        <pt x="519" y="268" on="1"/>
        <pt x="599" y="268" on="1"/>
        <pt x="532" y="0" on="1"/>
      </contour>
    </TTGlyph>
    <TTGlyph name="M" xMin="-29" yMin="-1" xMax="1005" yMax="658">
      <contour>
        <pt x="-29" y="0" on="1"/>
        <pt x="-7" y="87" on="1"/>
        <pt x="73" y="87" on="1"/>
        <pt x="194" y="571" on="1"/>
        <pt x="112" y="571" on="1"/>
        <pt x="134" y="658" on="1"/>
        <pt x="426" y="658" on="1"/>
        <pt x="462" y="246" on="1"/>
        <pt x="466" y="246" on="1"/>
        <pt x="699" y="658" on="1"/>
        <pt x="1005" y="658" on="1"/>
        <pt x="984" y="571" on="1"/>
        <pt x="898" y="571" on="1"/>
        <pt x="778" y="87" on="1"/>
        <pt x="864" y="87" on="1"/>
        <pt x="843" y="0" on="1"/>
        <pt x="525" y="0" on="1"/>
        <pt x="546" y="87" on="1"/>
        <pt x="622" y="87" on="1"/>
        <pt x="737" y="550" on="1"/>
        <pt x="727" y="550" on="1"/>
        <pt x="407" y="-1" on="1"/>
        <pt x="340" y="-1" on="1"/>
        <pt x="286" y="550" on="1"/>
        <pt x="277" y="550" on="1"/>
        <pt x="162" y="87" on="1"/>
        <pt x="242" y="87" on="1"/>
        <pt x="220" y="0" on="1"/>
      </contour>
    </TTGlyph>
    <TTGlyph name="N" xMin="-22" yMin="-9" xMax="857" yMax="658">
      <contour>
        <pt x="470" y="-9" on="1"/>
        <pt x="286" y="503" on="1"/>
        <pt x="277" y="503" on="1"/>
        <pt x="173" y="87" on="1"/>
        <pt x="262" y="87" on="1"/>
        <pt x="241" y="0" on="1"/>
        <pt x="-22" y="0" on="1"/>
        <pt x="-1" y="87" on="1"/>
        <pt x="83" y="87" on="1"/>
        <pt x="204" y="571" on="1"/>
        <pt x="118" y="571" on="1"/>
        <pt x="140" y="658" on="1"/>
        <pt x="392" y="658" on="1"/>
        <pt x="559" y="196" on="1"/>
        <pt x="568" y="196" on="1"/>
        <pt x="661" y="571" on="1"/>
        <pt x="572" y="571" on="1"/>
        <pt x="593" y="658" on="1"/>
        <pt x="857" y="658" on="1"/>
        <pt x="836" y="571" on="1"/>
        <pt x="750" y="571" on="1"/>
        <pt x="606" y="-9" on="1"/>
      </contour>
    </TTGlyph>
    <TTGlyph name="Nacute" xMin="-22" yMin="-9" xMax="857" yMax="945">
      <component glyphName="N" x="0" y="0" flags="0x204"/>
      <component glyphName="acute" x="334" y="194" flags="0x4"/>
    </TTGlyph>
    <TTGlyph name="Ncaron" xMin="-22" yMin="-9" xMax="857" yMax="929">
      <component glyphName="N" x="0" y="0" flags="0x204"/>
      <component glyphName="caron" x="263" y="194" flags="0x4"/>
    </TTGlyph>
    <TTGlyph name="Ntilde" xMin="-22" yMin="-9" xMax="857" yMax="893">
      <component glyphName="N" x="0" y="0" flags="0x204"/>
      <component glyphName="tilde" x="232" y="194" flags="0x4"/>
    </TTGlyph>
    <TTGlyph name="O" xMin="58" yMin="-16" xMax="726" yMax="674">
      <contour>
        <pt x="350" y="-16" on="1"/>
        <pt x="286" y="-16" on="0"/>
        <pt x="178" y="26" on="0"/>
        <pt x="101" y="102" on="0"/>
        <pt x="58" y="210" on="0"/>
        <pt x="58" y="275" on="1"/>
        <pt x="58" y="340" on="0"/>
        <pt x="105" y="481" on="0"/>
        <pt x="199" y="598" on="0"/>
        <pt x="340" y="674" on="0"/>
        <pt x="434" y="674" on="1"/>
        <pt x="498" y="674" on="0"/>
        <pt x="606" y="632" on="0"/>
        <pt x="683" y="556" on="0"/>
        <pt x="726" y="448" on="0"/>
        <pt x="726" y="383" on="1"/>
        <pt x="726" y="318" on="0"/>
        <pt x="679" y="177" on="0"/>
        <pt x="585" y="60" on="0"/>
        <pt x="444" y="-16" on="0"/>
      </contour>
      <contour>
        <pt x="351" y="66" on="1"/>
        <pt x="408" y="66" on="0"/>
        <pt x="489" y="149" on="0"/>
        <pt x="539" y="266" on="0"/>
        <pt x="562" y="394" on="0"/>
        <pt x="562" y="438" on="1"/>
        <pt x="562" y="518" on="0"/>
        <pt x="490" y="592" on="0"/>
        <pt x="432" y="592" on="1"/>
        <pt x="375" y="592" on="0"/>
        <pt x="295" y="509" on="0"/>
        <pt x="245" y="392" on="0"/>
        <pt x="222" y="264" on="0"/>
        <pt x="222" y="220" on="1"/>
        <pt x="222" y="140" on="0"/>
        <pt x="294" y="66" on="0"/>
      </contour>
    </TTGlyph>
    <TTGlyph name="OE" xMin="46" yMin="0" xMax="1074" yMax="658">
      <contour>
        <pt x="380" y="0" on="1"/>
        <pt x="297" y="0" on="0"/>
        <pt x="171" y="39" on="0"/>
        <pt x="88" y="109" on="0"/>
        <pt x="46" y="206" on="0"/>
        <pt x="46" y="263" on="1"/>
        <pt x="46" y="337" on="0"/>
        <pt x="102" y="483" on="0"/>
        <pt x="158" y="540" on="1"/>
        <pt x="214" y="596" on="0"/>
        <pt x="382" y="658" on="0"/>
        <pt x="501" y="658" on="1"/>
        <pt x="1074" y="658" on="1"/>
        <pt x="1016" y="424" on="1"/>
        <pt x="937" y="424" on="1"/>
        <pt x="938" y="471" on="0"/>
        <pt x="933" y="529" on="0"/>
        <pt x="914" y="562" on="0"/>
        <pt x="876" y="573" on="0"/>
        <pt x="844" y="573" on="1"/>
        <pt x="699" y="573" on="1"/>
        <pt x="649" y="374" on="1"/>
        <pt x="684" y="374" on="1"/>
        <pt x="705" y="374" on="0"/>
        <pt x="732" y="380" on="0"/>
        <pt x="753" y="399" on="0"/>
        <pt x="771" y="436" on="0"/>
        <pt x="784" y="466" on="1"/>
        <pt x="862" y="466" on="1"/>
        <pt x="796" y="199" on="1"/>
        <pt x="719" y="199" on="1"/>
        <pt x="726" y="259" on="0"/>
        <pt x="709" y="293" on="0"/>
        <pt x="669" y="293" on="1"/>
        <pt x="629" y="293" on="1"/>
        <pt x="577" y="85" on="1"/>
        <pt x="719" y="85" on="1"/>
        <pt x="756" y="85" on="0"/>
        <pt x="805" y="100" on="0"/>
        <pt x="842" y="140" on="0"/>
        <pt x="875" y="208" on="0"/>
        <pt x="897" y="260" on="1"/>
        <pt x="985" y="260" on="1"/>
        <pt x="920" y="0" on="1"/>
      </contour>
      <contour>
        <pt x="376" y="85" on="1"/>
        <pt x="420" y="85" on="1"/>
        <pt x="542" y="573" on="1"/>
        <pt x="488" y="573" on="1"/>
        <pt x="428" y="573" on="0"/>
        <pt x="345" y="544" on="0"/>
        <pt x="308" y="507" on="1"/>
        <pt x="287" y="486" on="0"/>
        <pt x="252" y="423" on="0"/>
        <pt x="227" y="350" on="0"/>
        <pt x="212" y="271" on="0"/>
        <pt x="212" y="235" on="1"/>
        <pt x="212" y="159" on="0"/>
        <pt x="292" y="85" on="0"/>
      </contour>
    </TTGlyph>
    <TTGlyph name="Oacute" xMin="58" yMin="-16" xMax="726" yMax="945">
      <component glyphName="O" x="0" y="0" flags="0x204"/>
      <component glyphName="acute" x="311" y="194" flags="0x4"/>
    </TTGlyph>
    <TTGlyph name="Obreve" xMin="58" yMin="-16" xMax="726" yMax="911">
      <component glyphName="O" x="0" y="0" flags="0x204"/>
      <component glyphName="breve" x="219" y="194" flags="0x4"/>
    </TTGlyph>
    <TTGlyph name="Ocircumflex" xMin="58" yMin="-16" xMax="726" yMax="926">
      <component glyphName="O" x="0" y="0" flags="0x204"/>
      <component glyphName="circumflex" x="225" y="194" flags="0x4"/>
    </TTGlyph>
    <TTGlyph name="Odieresis" xMin="58" yMin="-16" xMax="726" yMax="887">
      <component glyphName="O" x="0" y="0" flags="0x204"/>
      <component glyphName="dieresis" x="216" y="194" flags="0x4"/>
    </TTGlyph>
    <TTGlyph name="Ograve" xMin="58" yMin="-16" xMax="726" yMax="946">
      <component glyphName="O" x="0" y="0" flags="0x204"/>
      <component glyphName="grave" x="211" y="194" flags="0x4"/>
    </TTGlyph>
    <TTGlyph name="Ohungarumlaut" xMin="58" yMin="-16" xMax="744" yMax="945">
      <component glyphName="O" x="0" y="0" flags="0x204"/>
      <component glyphName="hungarumlaut" x="276" y="194" flags="0x4"/>
    </TTGlyph>
    <TTGlyph name="Omacron" xMin="58" yMin="-16" xMax="726" yMax="832">
      <component glyphName="O" x="0" y="0" flags="0x204"/>
      <component glyphName="macron" x="227" y="194" flags="0x4"/>
    </TTGlyph>
    <TTGlyph name="Oslash" xMin="16" yMin="-60" xMax="768" yMax="718">
      <contour>
        <pt x="75" y="-60" on="1"/>
        <pt x="16" y="-8" on="1"/>
        <pt x="113" y="95" on="1"/>
        <pt x="87" y="131" on="0"/>
        <pt x="58" y="222" on="0"/>
        <pt x="58" y="275" on="1"/>
        <pt x="58" y="340" on="0"/>
        <pt x="105" y="481" on="0"/>
        <pt x="199" y="598" on="0"/>
        <pt x="340" y="674" on="0"/>
        <pt x="434" y="674" on="1"/>
        <pt x="487" y="674" on="0"/>
        <pt x="579" y="645" on="0"/>
        <pt x="616" y="618" on="1"/>
        <pt x="709" y="718" on="1"/>
        <pt x="768" y="666" on="1"/>
        <pt x="670" y="564" on="1"/>
        <pt x="697" y="528" on="0"/>
        <pt x="726" y="436" on="0"/>
        <pt x="726" y="383" on="1"/>
        <pt x="726" y="318" on="0"/>
        <pt x="679" y="177" on="0"/>
        <pt x="585" y="60" on="0"/>
        <pt x="444" y="-16" on="0"/>
        <pt x="350" y="-16" on="1"/>
        <pt x="297" y="-16" on="0"/>
        <pt x="204" y="13" on="0"/>
        <pt x="168" y="40" on="1"/>
      </contour>
      <contour>
        <pt x="222" y="220" on="1"/>
        <pt x="222" y="215" on="0"/>
        <pt x="222" y="204" on="0"/>
        <pt x="223" y="200" on="1"/>
        <pt x="539" y="537" on="1"/>
        <pt x="523" y="565" on="0"/>
        <pt x="467" y="592" on="0"/>
        <pt x="432" y="592" on="1"/>
        <pt x="375" y="592" on="0"/>
        <pt x="295" y="509" on="0"/>
        <pt x="245" y="392" on="0"/>
        <pt x="222" y="264" on="0"/>
      </contour>
      <contour>
        <pt x="351" y="66" on="1"/>
        <pt x="408" y="66" on="0"/>
        <pt x="489" y="149" on="0"/>
        <pt x="539" y="266" on="0"/>
        <pt x="562" y="394" on="0"/>
        <pt x="562" y="438" on="1"/>
        <pt x="562" y="443" on="0"/>
        <pt x="562" y="455" on="0"/>
        <pt x="561" y="459" on="1"/>
        <pt x="244" y="121" on="1"/>
        <pt x="260" y="93" on="0"/>
        <pt x="316" y="66" on="0"/>
      </contour>
    </TTGlyph>
    <TTGlyph name="Oslashacute" xMin="16" yMin="-60" xMax="768" yMax="945">
      <component glyphName="Oslash" x="0" y="0" flags="0x204"/>
      <component glyphName="acute" x="299" y="194" flags="0x4"/>
    </TTGlyph>
    <TTGlyph name="Otilde" xMin="58" yMin="-16" xMax="726" yMax="893">
      <component glyphName="O" x="0" y="0" flags="0x204"/>
      <component glyphName="tilde" x="208" y="194" flags="0x4"/>
    </TTGlyph>
    <TTGlyph name="P" xMin="-30" yMin="0" xMax="684" yMax="658">
      <contour>
        <pt x="-30" y="0" on="1"/>
        <pt x="-8" y="87" on="1"/>
        <pt x="80" y="87" on="1"/>
        <pt x="201" y="571" on="1"/>
        <pt x="112" y="571" on="1"/>
        <pt x="133" y="658" on="1"/>
        <pt x="423" y="658" on="1"/>
        <pt x="567" y="658" on="0"/>
        <pt x="684" y="564" on="0"/>
        <pt x="684" y="486" on="1"/>
        <pt x="684" y="445" on="0"/>
        <pt x="652" y="363" on="0"/>
        <pt x="578" y="297" on="0"/>
        <pt x="453" y="255" on="0"/>
        <pt x="362" y="255" on="1"/>
        <pt x="278" y="255" on="1"/>
        <pt x="236" y="87" on="1"/>
        <pt x="332" y="87" on="1"/>
        <pt x="310" y="0" on="1"/>
      </contour>
      <contour>
        <pt x="299" y="338" on="1"/>
        <pt x="360" y="338" on="1"/>
        <pt x="405" y="338" on="0"/>
        <pt x="464" y="368" on="0"/>
        <pt x="500" y="413" on="0"/>
        <pt x="514" y="467" on="0"/>
        <pt x="514" y="491" on="1"/>
        <pt x="514" y="535" on="0"/>
        <pt x="457" y="575" on="0"/>
        <pt x="396" y="575" on="1"/>
        <pt x="358" y="575" on="1"/>
      </contour>
    </TTGlyph>
    <TTGlyph name="Q" xMin="58" yMin="-114" xMax="726" yMax="674">
      <contour>
        <pt x="355" y="-13" on="1"/>
        <pt x="288" y="-13" on="0"/>
        <pt x="178" y="28" on="0"/>
        <pt x="100" y="103" on="0"/>
        <pt x="58" y="210" on="0"/>
        <pt x="58" y="275" on="1"/>
        <pt x="58" y="340" on="0"/>
        <pt x="105" y="481" on="0"/>
        <pt x="199" y="598" on="0"/>
        <pt x="340" y="674" on="0"/>
        <pt x="434" y="674" on="1"/>
        <pt x="498" y="674" on="0"/>
        <pt x="606" y="632" on="0"/>
        <pt x="683" y="556" on="0"/>
        <pt x="726" y="448" on="0"/>
        <pt x="726" y="383" on="1"/>
        <pt x="726" y="337" on="0"/>
        <pt x="702" y="237" on="0"/>
        <pt x="655" y="144" on="0"/>
        <pt x="584" y="63" on="0"/>
        <pt x="537" y="35" on="1"/>
        <pt x="549" y="5" on="0"/>
        <pt x="576" y="-14" on="0"/>
        <pt x="592" y="-14" on="1"/>
        <pt x="614" y="-14" on="0"/>
        <pt x="647" y="18" on="0"/>
        <pt x="667" y="66" on="1"/>
        <pt x="724" y="46" on="1"/>
        <pt x="699" y="-37" on="0"/>
        <pt x="618" y="-114" on="0"/>
        <pt x="564" y="-114" on="1"/>
        <pt x="501" y="-114" on="0"/>
        <pt x="439" y="-55" on="0"/>
        <pt x="422" y="-7" on="1"/>
        <pt x="406" y="-10" on="0"/>
        <pt x="373" y="-13" on="0"/>
      </contour>
      <contour>
        <pt x="360" y="269" on="1"/>
        <pt x="420" y="269" on="0"/>
        <pt x="480" y="206" on="0"/>
        <pt x="498" y="162" on="1"/>
        <pt x="517" y="195" on="0"/>
        <pt x="541" y="271" on="0"/>
        <pt x="556" y="344" on="0"/>
        <pt x="562" y="413" on="0"/>
        <pt x="562" y="438" on="1"/>
        <pt x="562" y="518" on="0"/>
        <pt x="490" y="592" on="0"/>
        <pt x="432" y="592" on="1"/>
        <pt x="375" y="592" on="0"/>
        <pt x="295" y="509" on="0"/>
        <pt x="245" y="392" on="0"/>
        <pt x="222" y="264" on="0"/>
        <pt x="222" y="220" on="1"/>
        <pt x="222" y="207" on="0"/>
        <pt x="225" y="178" on="0"/>
        <pt x="228" y="170" on="1"/>
        <pt x="244" y="212" on="0"/>
        <pt x="308" y="269" on="0"/>
      </contour>
      <contour>
        <pt x="266" y="121" on="1"/>
        <pt x="266" y="93" on="0"/>
        <pt x="320" y="65" on="0"/>
        <pt x="354" y="65" on="1"/>
        <pt x="364" y="65" on="0"/>
        <pt x="389" y="68" on="0"/>
        <pt x="402" y="72" on="1"/>
        <pt x="394" y="121" on="0"/>
        <pt x="359" y="178" on="0"/>
        <pt x="325" y="178" on="1"/>
        <pt x="298" y="178" on="0"/>
        <pt x="266" y="142" on="0"/>
      </contour>
    </TTGlyph>
    <TTGlyph name="R" xMin="-30" yMin="-14" xMax="698" yMax="658">
      <contour>
        <pt x="540" y="-14" on="1"/>
        <pt x="484" y="-14" on="0"/>
        <pt x="416" y="38" on="0"/>
        <pt x="416" y="86" on="1"/>
        <pt x="416" y="119" on="0"/>
        <pt x="436" y="194" on="0"/>
        <pt x="436" y="230" on="1"/>
        <pt x="436" y="257" on="0"/>
        <pt x="394" y="287" on="0"/>
        <pt x="347" y="287" on="1"/>
        <pt x="286" y="287" on="1"/>
        <pt x="236" y="87" on="1"/>
        <pt x="328" y="87" on="1"/>
        <pt x="306" y="0" on="1"/>
        <pt x="-30" y="0" on="1"/>
        <pt x="-8" y="87" on="1"/>
        <pt x="80" y="87" on="1"/>
        <pt x="201" y="571" on="1"/>
        <pt x="112" y="571" on="1"/>
        <pt x="133" y="658" on="1"/>
        <pt x="468" y="658" on="1"/>
        <pt x="533" y="658" on="0"/>
        <pt x="620" y="633" on="0"/>
        <pt x="673" y="592" on="0"/>
        <pt x="696" y="540" on="0"/>
        <pt x="696" y="512" on="1"/>
        <pt x="696" y="440" on="0"/>
        <pt x="580" y="337" on="0"/>
        <pt x="455" y="328" on="1"/>
        <pt x="453" y="321" on="1"/>
        <pt x="528" y="310" on="0"/>
        <pt x="586" y="250" on="0"/>
        <pt x="586" y="210" on="1"/>
        <pt x="586" y="186" on="0"/>
        <pt x="575" y="132" on="0"/>
        <pt x="575" y="113" on="1"/>
        <pt x="575" y="95" on="0"/>
        <pt x="592" y="83" on="0"/>
        <pt x="603" y="83" on="1"/>
        <pt x="614" y="83" on="0"/>
        <pt x="638" y="102" on="0"/>
        <pt x="655" y="130" on="1"/>
        <pt x="698" y="97" on="1"/>
        <pt x="670" y="47" on="0"/>
        <pt x="597" y="-14" on="0"/>
      </contour>
      <contour>
        <pt x="307" y="368" on="1"/>
        <pt x="375" y="368" on="1"/>
        <pt x="412" y="368" on="0"/>
        <pt x="473" y="386" on="0"/>
        <pt x="493" y="406" on="1"/>
        <pt x="509" y="422" on="0"/>
        <pt x="527" y="472" on="0"/>
        <pt x="527" y="501" on="1"/>
        <pt x="527" y="533" on="0"/>
        <pt x="485" y="575" on="0"/>
        <pt x="431" y="575" on="1"/>
        <pt x="358" y="575" on="1"/>
      </contour>
    </TTGlyph>
    <TTGlyph name="R_p" xMin="-28" yMin="-151" xMax="1121" yMax="634">
      <contour>
        <pt x="513" y="-13" on="1"/>
        <pt x="462" y="-13" on="0"/>
        <pt x="395" y="31" on="0"/>
        <pt x="395" y="80" on="1"/>
        <pt x="395" y="112" on="0"/>
        <pt x="416" y="183" on="0"/>
        <pt x="416" y="217" on="1"/>
        <pt x="416" y="242" on="0"/>
        <pt x="376" y="270" on="0"/>
        <pt x="332" y="270" on="1"/>
        <pt x="273" y="270" on="1"/>
        <pt x="228" y="87" on="1"/>
        <pt x="313" y="87" on="1"/>
        <pt x="291" y="0" on="1"/>
        <pt x="-28" y="0" on="1"/>
        <pt x="-6" y="87" on="1"/>
        <pt x="79" y="87" on="1"/>
        <pt x="194" y="548" on="1"/>
        <pt x="109" y="548" on="1"/>
        <pt x="130" y="634" on="1"/>
        <pt x="441" y="634" on="1"/>
        <pt x="499" y="634" on="0"/>
        <pt x="578" y="610" on="0"/>
        <pt x="626" y="571" on="0"/>
        <pt x="647" y="519" on="0"/>
        <pt x="647" y="492" on="1"/>
        <pt x="647" y="423" on="0"/>
        <pt x="543" y="321" on="0"/>
        <pt x="430" y="313" on="1"/>
        <pt x="427" y="306" on="1"/>
        <pt x="501" y="295" on="0"/>
        <pt x="559" y="239" on="0"/>
        <pt x="559" y="203" on="1"/>
        <pt x="559" y="178" on="0"/>
        <pt x="549" y="130" on="0"/>
        <pt x="549" y="112" on="1"/>
        <pt x="549" y="93" on="0"/>
        <pt x="570" y="78" on="0"/>
        <pt x="586" y="78" on="1"/>
        <pt x="616" y="78" on="0"/>
        <pt x="672" y="139" on="0"/>
        <pt x="691" y="214" on="1"/>
        <pt x="727" y="356" on="1"/>
        <pt x="664" y="356" on="1"/>
        <pt x="685" y="439" on="1"/>
        <pt x="861" y="439" on="1"/>
        <pt x="833" y="330" on="1"/>
        <pt x="839" y="327" on="1"/>
        <pt x="869" y="387" on="0"/>
        <pt x="948" y="449" on="0"/>
        <pt x="995" y="449" on="1"/>
        <pt x="1058" y="449" on="0"/>
        <pt x="1121" y="362" on="0"/>
        <pt x="1121" y="296" on="1"/>
        <pt x="1121" y="246" on="0"/>
        <pt x="1089" y="140" on="0"/>
        <pt x="1030" y="54" on="0"/>
        <pt x="948" y="-1" on="0"/>
        <pt x="899" y="-1" on="1"/>
        <pt x="864" y="-1" on="0"/>
        <pt x="807" y="32" on="0"/>
        <pt x="792" y="66" on="1"/>
        <pt x="758" y="-67" on="1"/>
        <pt x="839" y="-67" on="1"/>
        <pt x="818" y="-151" on="1"/>
        <pt x="537" y="-151" on="1"/>
        <pt x="557" y="-67" on="1"/>
        <pt x="621" y="-67" on="1"/>
        <pt x="658" y="81" on="1"/>
        <pt x="636" y="42" on="0"/>
        <pt x="567" y="-13" on="0"/>
      </contour>
      <contour>
        <pt x="293" y="350" on="1"/>
        <pt x="352" y="350" on="1"/>
        <pt x="383" y="350" on="0"/>
        <pt x="434" y="366" on="0"/>
        <pt x="451" y="384" on="1"/>
        <pt x="468" y="401" on="0"/>
        <pt x="487" y="454" on="0"/>
        <pt x="487" y="481" on="1"/>
        <pt x="487" y="512" on="0"/>
        <pt x="451" y="551" on="0"/>
        <pt x="407" y="551" on="1"/>
        <pt x="344" y="551" on="1"/>
      </contour>
      <contour>
        <pt x="866" y="65" on="1"/>
        <pt x="891" y="65" on="0"/>
        <pt x="934" y="115" on="0"/>
        <pt x="964" y="185" on="0"/>
        <pt x="981" y="262" on="0"/>
        <pt x="981" y="289" on="1"/>
        <pt x="981" y="324" on="0"/>
        <pt x="956" y="359" on="0"/>
        <pt x="934" y="359" on="1"/>
        <pt x="910" y="359" on="0"/>
        <pt x="866" y="313" on="0"/>
        <pt x="833" y="245" on="0"/>
        <pt x="813" y="166" on="0"/>
        <pt x="813" y="134" on="1"/>
        <pt x="813" y="103" on="0"/>
        <pt x="838" y="65" on="0"/>
      </contour>
    </TTGlyph>
    <TTGlyph name="Racute" xMin="-30" yMin="-14" xMax="698" yMax="945">
      <component glyphName="R" x="0" y="0" flags="0x204"/>
      <component glyphName="acute" x="275" y="194" flags="0x4"/>
    </TTGlyph>
    <TTGlyph name="Rcaron" xMin="-30" yMin="-14" xMax="698" yMax="929">
      <component glyphName="R" x="0" y="0" flags="0x204"/>
      <component glyphName="caron" x="203" y="194" flags="0x4"/>
    </TTGlyph>
    <TTGlyph name="S" xMin="-10" yMin="-16" xMax="651" yMax="674">
      <contour>
        <pt x="325" y="-16" on="1"/>
        <pt x="255" y="-16" on="0"/>
        <pt x="153" y="28" on="0"/>
        <pt x="121" y="68" on="1"/>
        <pt x="76" y="-14" on="1"/>
        <pt x="-10" y="-14" on="1"/>
        <pt x="50" y="238" on="1"/>
        <pt x="136" y="238" on="1"/>
        <pt x="146" y="155" on="0"/>
        <pt x="246" y="67" on="0"/>
        <pt x="316" y="67" on="1"/>
        <pt x="365" y="67" on="0"/>
        <pt x="425" y="115" on="0"/>
        <pt x="425" y="152" on="1"/>
        <pt x="425" y="192" on="0"/>
        <pt x="342" y="238" on="0"/>
        <pt x="289" y="260" on="1"/>
        <pt x="257" y="274" on="0"/>
        <pt x="191" y="307" on="0"/>
        <pt x="138" y="351" on="0"/>
        <pt x="105" y="413" on="0"/>
        <pt x="105" y="455" on="1"/>
        <pt x="105" y="502" on="0"/>
        <pt x="143" y="583" on="0"/>
        <pt x="208" y="641" on="0"/>
        <pt x="294" y="674" on="0"/>
        <pt x="343" y="674" on="1"/>
        <pt x="399" y="674" on="0"/>
        <pt x="494" y="633" on="0"/>
        <pt x="522" y="596" on="1"/>
        <pt x="564" y="672" on="1"/>
        <pt x="651" y="672" on="1"/>
        <pt x="592" y="429" on="1"/>
        <pt x="506" y="429" on="1"/>
        <pt x="496" y="513" on="0"/>
        <pt x="416" y="591" on="0"/>
        <pt x="352" y="591" on="1"/>
        <pt x="308" y="591" on="0"/>
        <pt x="251" y="543" on="0"/>
        <pt x="251" y="508" on="1"/>
        <pt x="251" y="486" on="0"/>
        <pt x="274" y="454" on="0"/>
        <pt x="313" y="428" on="0"/>
        <pt x="364" y="406" on="0"/>
        <pt x="391" y="394" on="1"/>
        <pt x="423" y="381" on="0"/>
        <pt x="488" y="349" on="0"/>
        <pt x="539" y="305" on="0"/>
        <pt x="571" y="246" on="0"/>
        <pt x="571" y="205" on="1"/>
        <pt x="571" y="156" on="0"/>
        <pt x="532" y="74" on="0"/>
        <pt x="465" y="16" on="0"/>
        <pt x="375" y="-16" on="0"/>
      </contour>
    </TTGlyph>
    <TTGlyph name="Sacute" xMin="-10" yMin="-16" xMax="651" yMax="945">
      <component glyphName="S" x="0" y="0" flags="0x204"/>
      <component glyphName="acute" x="244" y="194" flags="0x4"/>
    </TTGlyph>
    <TTGlyph name="Scaron" xMin="-10" yMin="-16" xMax="651" yMax="929">
      <component glyphName="S" x="0" y="0" flags="0x204"/>
      <component glyphName="caron" x="172" y="194" flags="0x4"/>
    </TTGlyph>
    <TTGlyph name="Scedilla" xMin="-10" yMin="-249" xMax="651" yMax="674">
      <contour>
        <pt x="228" y="-249" on="1"/>
        <pt x="196" y="-249" on="0"/>
        <pt x="121" y="-228" on="0"/>
        <pt x="93" y="-208" on="1"/>
        <pt x="127" y="-160" on="1"/>
        <pt x="145" y="-171" on="0"/>
        <pt x="192" y="-187" on="0"/>
        <pt x="217" y="-187" on="1"/>
        <pt x="238" y="-187" on="0"/>
        <pt x="262" y="-171" on="0"/>
        <pt x="262" y="-156" on="1"/>
        <pt x="262" y="-138" on="0"/>
        <pt x="214" y="-119" on="0"/>
        <pt x="171" y="-122" on="1"/>
        <pt x="157" y="-83" on="1"/>
        <pt x="256" y="-10" on="1"/>
        <pt x="212" y="-1" on="0"/>
        <pt x="145" y="39" on="0"/>
        <pt x="121" y="68" on="1"/>
        <pt x="76" y="-14" on="1"/>
        <pt x="-10" y="-14" on="1"/>
        <pt x="50" y="238" on="1"/>
        <pt x="136" y="238" on="1"/>
        <pt x="146" y="155" on="0"/>
        <pt x="246" y="67" on="0"/>
        <pt x="316" y="67" on="1"/>
        <pt x="365" y="67" on="0"/>
        <pt x="425" y="115" on="0"/>
        <pt x="425" y="152" on="1"/>
        <pt x="425" y="192" on="0"/>
        <pt x="342" y="238" on="0"/>
        <pt x="289" y="260" on="1"/>
        <pt x="257" y="274" on="0"/>
        <pt x="191" y="307" on="0"/>
        <pt x="138" y="351" on="0"/>
        <pt x="105" y="413" on="0"/>
        <pt x="105" y="455" on="1"/>
        <pt x="105" y="502" on="0"/>
        <pt x="143" y="583" on="0"/>
        <pt x="208" y="641" on="0"/>
        <pt x="294" y="674" on="0"/>
        <pt x="343" y="674" on="1"/>
        <pt x="399" y="674" on="0"/>
        <pt x="494" y="633" on="0"/>
        <pt x="522" y="596" on="1"/>
        <pt x="564" y="672" on="1"/>
        <pt x="651" y="672" on="1"/>
        <pt x="592" y="429" on="1"/>
        <pt x="506" y="429" on="1"/>
        <pt x="496" y="513" on="0"/>
        <pt x="416" y="591" on="0"/>
        <pt x="352" y="591" on="1"/>
        <pt x="308" y="591" on="0"/>
        <pt x="251" y="543" on="0"/>
        <pt x="251" y="508" on="1"/>
        <pt x="251" y="486" on="0"/>
        <pt x="274" y="454" on="0"/>
        <pt x="313" y="428" on="0"/>
        <pt x="364" y="406" on="0"/>
        <pt x="391" y="394" on="1"/>
        <pt x="423" y="381" on="0"/>
        <pt x="488" y="349" on="0"/>
        <pt x="539" y="305" on="0"/>
        <pt x="571" y="246" on="0"/>
        <pt x="571" y="205" on="1"/>
        <pt x="571" y="156" on="0"/>
        <pt x="532" y="74" on="0"/>
        <pt x="466" y="16" on="0"/>
        <pt x="377" y="-16" on="0"/>
        <pt x="328" y="-16" on="1"/>
        <pt x="275" y="-59" on="1"/>
        <pt x="276" y="-63" on="1"/>
        <pt x="320" y="-72" on="0"/>
        <pt x="368" y="-116" on="0"/>
        <pt x="368" y="-147" on="1"/>
        <pt x="368" y="-190" on="0"/>
        <pt x="293" y="-249" on="0"/>
      </contour>
    </TTGlyph>
    <TTGlyph name="T" xMin="71" yMin="0" xMax="761" yMax="658">
      <contour>
        <pt x="105" y="0" on="1"/>
        <pt x="126" y="87" on="1"/>
        <pt x="227" y="87" on="1"/>
        <pt x="352" y="583" on="1"/>
        <pt x="323" y="583" on="1"/>
        <pt x="294" y="583" on="0"/>
        <pt x="255" y="570" on="0"/>
        <pt x="220" y="530" on="0"/>
        <pt x="181" y="455" on="0"/>
        <pt x="152" y="393" on="1"/>
        <pt x="71" y="393" on="1"/>
        <pt x="137" y="658" on="1"/>
        <pt x="761" y="658" on="1"/>
        <pt x="694" y="393" on="1"/>
        <pt x="624" y="393" on="1"/>
        <pt x="624" y="454" on="0"/>
        <pt x="619" y="529" on="0"/>
        <pt x="602" y="569" on="0"/>
        <pt x="567" y="583" on="0"/>
        <pt x="538" y="583" on="1"/>
        <pt x="515" y="583" on="1"/>
        <pt x="391" y="87" on="1"/>
        <pt x="495" y="87" on="1"/>
        <pt x="474" y="0" on="1"/>
      </contour>
    </TTGlyph>
    <TTGlyph name="Tcaron" xMin="71" yMin="0" xMax="761" yMax="929">
      <component glyphName="T" x="0" y="0" flags="0x204"/>
      <component glyphName="caron" x="224" y="194" flags="0x4"/>
    </TTGlyph>
    <TTGlyph name="Thorn" xMin="-28" yMin="0" xMax="662" yMax="658">
      <contour>
        <pt x="-28" y="0" on="1"/>
        <pt x="-6" y="87" on="1"/>
        <pt x="80" y="87" on="1"/>
        <pt x="201" y="571" on="1"/>
        <pt x="114" y="571" on="1"/>
        <pt x="135" y="658" on="1"/>
        <pt x="468" y="658" on="1"/>
        <pt x="446" y="571" on="1"/>
        <pt x="357" y="571" on="1"/>
        <pt x="344" y="519" on="1"/>
        <pt x="390" y="519" on="1"/>
        <pt x="540" y="519" on="0"/>
        <pt x="662" y="433" on="0"/>
        <pt x="662" y="358" on="1"/>
        <pt x="662" y="324" on="0"/>
        <pt x="632" y="249" on="0"/>
        <pt x="560" y="189" on="0"/>
        <pt x="437" y="149" on="0"/>
        <pt x="346" y="149" on="1"/>
        <pt x="252" y="149" on="1"/>
        <pt x="237" y="87" on="1"/>
        <pt x="326" y="87" on="1"/>
        <pt x="305" y="0" on="1"/>
      </contour>
      <contour>
        <pt x="273" y="232" on="1"/>
        <pt x="339" y="232" on="1"/>
        <pt x="383" y="232" on="0"/>
        <pt x="442" y="256" on="0"/>
        <pt x="476" y="293" on="0"/>
        <pt x="489" y="337" on="0"/>
        <pt x="489" y="357" on="1"/>
        <pt x="489" y="400" on="0"/>
        <pt x="430" y="436" on="0"/>
        <pt x="367" y="436" on="1"/>
        <pt x="323" y="436" on="1"/>
      </contour>
    </TTGlyph>
    <TTGlyph name="U" xMin="94" yMin="-16" xMax="819" yMax="658">
      <contour>
        <pt x="338" y="-16" on="1"/>
        <pt x="278" y="-16" on="0"/>
        <pt x="186" y="13" on="0"/>
        <pt x="125" y="62" on="0"/>
        <pt x="94" y="129" on="0"/>
        <pt x="94" y="167" on="1"/>
        <pt x="94" y="188" on="0"/>
        <pt x="104" y="241" on="0"/>
        <pt x="109" y="262" on="1"/>
        <pt x="186" y="571" on="1"/>
        <pt x="102" y="571" on="1"/>
        <pt x="123" y="658" on="1"/>
        <pt x="452" y="658" on="1"/>
        <pt x="431" y="571" on="1"/>
        <pt x="344" y="571" on="1"/>
        <pt x="264" y="253" on="1"/>
        <pt x="259" y="233" on="0"/>
        <pt x="254" y="198" on="0"/>
        <pt x="254" y="182" on="1"/>
        <pt x="254" y="130" on="0"/>
        <pt x="326" y="83" on="0"/>
        <pt x="375" y="83" on="1"/>
        <pt x="407" y="83" on="0"/>
        <pt x="462" y="103" on="0"/>
        <pt x="484" y="125" on="1"/>
        <pt x="503" y="144" on="0"/>
        <pt x="531" y="200" on="0"/>
        <pt x="540" y="237" on="1"/>
        <pt x="624" y="571" on="1"/>
        <pt x="539" y="571" on="1"/>
        <pt x="561" y="658" on="1"/>
        <pt x="819" y="658" on="1"/>
        <pt x="797" y="571" on="1"/>
        <pt x="717" y="571" on="1"/>
        <pt x="628" y="214" on="1"/>
        <pt x="617" y="169" on="0"/>
        <pt x="578" y="90" on="0"/>
        <pt x="547" y="59" on="1"/>
        <pt x="513" y="24" on="0"/>
        <pt x="410" y="-16" on="0"/>
      </contour>
    </TTGlyph>
    <TTGlyph name="Uacute" xMin="94" yMin="-16" xMax="819" yMax="945">
      <component glyphName="U" x="0" y="0" flags="0x204"/>
      <component glyphName="acute" x="357" y="194" flags="0x4"/>
    </TTGlyph>
    <TTGlyph name="Ubreve" xMin="94" yMin="-16" xMax="819" yMax="911">
      <component glyphName="U" x="0" y="0" flags="0x204"/>
      <component glyphName="breve" x="265" y="194" flags="0x4"/>
    </TTGlyph>
    <TTGlyph name="Ucircumflex" xMin="94" yMin="-16" xMax="819" yMax="926">
      <component glyphName="U" x="0" y="0" flags="0x204"/>
      <component glyphName="circumflex" x="271" y="194" flags="0x4"/>
    </TTGlyph>
    <TTGlyph name="Udieresis" xMin="94" yMin="-16" xMax="819" yMax="887">
      <component glyphName="U" x="0" y="0" flags="0x204"/>
      <component glyphName="dieresis" x="262" y="194" flags="0x4"/>
    </TTGlyph>
    <TTGlyph name="Ugrave" xMin="94" yMin="-16" xMax="819" yMax="946">
      <component glyphName="U" x="0" y="0" flags="0x204"/>
      <component glyphName="grave" x="257" y="194" flags="0x4"/>
    </TTGlyph>
    <TTGlyph name="Uhungarumlaut" xMin="94" yMin="-16" xMax="819" yMax="945">
      <component glyphName="U" x="0" y="0" flags="0x204"/>
      <component glyphName="hungarumlaut" x="323" y="194" flags="0x4"/>
    </TTGlyph>
    <TTGlyph name="Umacron" xMin="94" yMin="-16" xMax="819" yMax="832">
      <component glyphName="U" x="0" y="0" flags="0x204"/>
      <component glyphName="macron" x="273" y="194" flags="0x4"/>
    </TTGlyph>
    <TTGlyph name="Uogonek" xMin="94" yMin="-250" xMax="819" yMax="658">
      <contour>
        <pt x="292" y="-250" on="1"/>
        <pt x="242" y="-250" on="0"/>
        <pt x="168" y="-204" on="0"/>
        <pt x="168" y="-154" on="1"/>
        <pt x="168" y="-113" on="0"/>
        <pt x="230" y="-47" on="0"/>
        <pt x="286" y="-13" on="1"/>
        <pt x="191" y="-1" on="0"/>
        <pt x="94" y="100" on="0"/>
        <pt x="94" y="167" on="1"/>
        <pt x="94" y="188" on="0"/>
        <pt x="104" y="241" on="0"/>
        <pt x="109" y="262" on="1"/>
        <pt x="186" y="571" on="1"/>
        <pt x="102" y="571" on="1"/>
        <pt x="123" y="658" on="1"/>
        <pt x="452" y="658" on="1"/>
        <pt x="431" y="571" on="1"/>
        <pt x="344" y="571" on="1"/>
        <pt x="264" y="253" on="1"/>
        <pt x="259" y="233" on="0"/>
        <pt x="254" y="198" on="0"/>
        <pt x="254" y="182" on="1"/>
        <pt x="254" y="130" on="0"/>
        <pt x="326" y="83" on="0"/>
        <pt x="375" y="83" on="1"/>
        <pt x="407" y="83" on="0"/>
        <pt x="462" y="103" on="0"/>
        <pt x="484" y="125" on="1"/>
        <pt x="503" y="144" on="0"/>
        <pt x="531" y="200" on="0"/>
        <pt x="540" y="237" on="1"/>
        <pt x="624" y="571" on="1"/>
        <pt x="539" y="571" on="1"/>
        <pt x="561" y="658" on="1"/>
        <pt x="819" y="658" on="1"/>
        <pt x="797" y="571" on="1"/>
        <pt x="717" y="571" on="1"/>
        <pt x="628" y="214" on="1"/>
        <pt x="617" y="169" on="0"/>
        <pt x="578" y="90" on="0"/>
        <pt x="547" y="59" on="1"/>
        <pt x="518" y="29" on="0"/>
        <pt x="435" y="-9" on="0"/>
        <pt x="380" y="-14" on="1"/>
        <pt x="323" y="-57" on="0"/>
        <pt x="281" y="-109" on="0"/>
        <pt x="281" y="-133" on="1"/>
        <pt x="281" y="-150" on="0"/>
        <pt x="304" y="-178" on="0"/>
        <pt x="332" y="-178" on="1"/>
        <pt x="346" y="-178" on="0"/>
        <pt x="376" y="-169" on="0"/>
        <pt x="392" y="-160" on="1"/>
        <pt x="412" y="-212" on="1"/>
        <pt x="387" y="-228" on="0"/>
        <pt x="326" y="-250" on="0"/>
      </contour>
    </TTGlyph>
    <TTGlyph name="Uring" xMin="94" yMin="-16" xMax="819" yMax="955">
      <component glyphName="U" x="0" y="0" flags="0x204"/>
      <component glyphName="ring" x="311" y="194" flags="0x4"/>
    </TTGlyph>
    <TTGlyph name="V" xMin="84" yMin="-4" xMax="810" yMax="658">
      <contour>
        <pt x="233" y="-4" on="1"/>
        <pt x="166" y="571" on="1"/>
        <pt x="84" y="571" on="1"/>
        <pt x="105" y="658" on="1"/>
        <pt x="427" y="658" on="1"/>
        <pt x="405" y="571" on="1"/>
        <pt x="324" y="571" on="1"/>
        <pt x="363" y="138" on="1"/>
        <pt x="369" y="138" on="1"/>
        <pt x="619" y="571" on="1"/>
        <pt x="535" y="571" on="1"/>
        <pt x="556" y="658" on="1"/>
        <pt x="810" y="658" on="1"/>
        <pt x="788" y="571" on="1"/>
        <pt x="722" y="571" on="1"/>
        <pt x="375" y="-4" on="1"/>
      </contour>
    </TTGlyph>
    <TTGlyph name="W" xMin="84" yMin="-4" xMax="1129" yMax="658">
      <contour>
        <pt x="207" y="-4" on="1"/>
        <pt x="170" y="571" on="1"/>
        <pt x="84" y="571" on="1"/>
        <pt x="105" y="658" on="1"/>
        <pt x="418" y="658" on="1"/>
        <pt x="397" y="572" on="1"/>
        <pt x="327" y="572" on="1"/>
        <pt x="346" y="152" on="1"/>
        <pt x="352" y="152" on="1"/>
        <pt x="553" y="493" on="1"/>
        <pt x="548" y="572" on="1"/>
        <pt x="471" y="572" on="1"/>
        <pt x="492" y="658" on="1"/>
        <pt x="797" y="658" on="1"/>
        <pt x="776" y="572" on="1"/>
        <pt x="699" y="572" on="1"/>
        <pt x="717" y="152" on="1"/>
        <pt x="723" y="152" on="1"/>
        <pt x="939" y="572" on="1"/>
        <pt x="852" y="572" on="1"/>
        <pt x="873" y="658" on="1"/>
        <pt x="1129" y="658" on="1"/>
        <pt x="1107" y="571" on="1"/>
        <pt x="1039" y="571" on="1"/>
        <pt x="729" y="-4" on="1"/>
        <pt x="584" y="-4" on="1"/>
        <pt x="561" y="362" on="1"/>
        <pt x="347" y="-4" on="1"/>
      </contour>
    </TTGlyph>
    <TTGlyph name="Wacute" xMin="84" yMin="-4" xMax="1129" yMax="945">
      <component glyphName="W" x="0" y="0" flags="0x204"/>
      <component glyphName="acute" x="476" y="194" flags="0x4"/>
    </TTGlyph>
    <TTGlyph name="Wcircumflex" xMin="84" yMin="-4" xMax="1129" yMax="926">
      <component glyphName="W" x="0" y="0" flags="0x204"/>
      <component glyphName="circumflex" x="390" y="194" flags="0x4"/>
    </TTGlyph>
    <TTGlyph name="Wdieresis" xMin="84" yMin="-4" xMax="1129" yMax="887">
      <component glyphName="W" x="0" y="0" flags="0x204"/>
      <component glyphName="dieresis" x="381" y="194" flags="0x4"/>
    </TTGlyph>
    <TTGlyph name="Wgrave" xMin="84" yMin="-4" xMax="1129" yMax="946">
      <component glyphName="W" x="0" y="0" flags="0x204"/>
      <component glyphName="grave" x="376" y="194" flags="0x4"/>
    </TTGlyph>
    <TTGlyph name="X" xMin="-43" yMin="0" xMax="787" yMax="658">
      <contour>
        <pt x="-43" y="0" on="1"/>
        <pt x="-22" y="87" on="1"/>
        <pt x="53" y="87" on="1"/>
        <pt x="295" y="323" on="1"/>
        <pt x="171" y="571" on="1"/>
        <pt x="90" y="571" on="1"/>
        <pt x="112" y="658" on="1"/>
        <pt x="435" y="658" on="1"/>
        <pt x="413" y="572" on="1"/>
        <pt x="341" y="572" on="1"/>
        <pt x="415" y="409" on="1"/>
        <pt x="574" y="572" on="1"/>
        <pt x="501" y="572" on="1"/>
        <pt x="522" y="658" on="1"/>
        <pt x="787" y="658" on="1"/>
        <pt x="765" y="571" on="1"/>
        <pt x="691" y="571" on="1"/>
        <pt x="458" y="345" on="1"/>
        <pt x="585" y="87" on="1"/>
        <pt x="665" y="87" on="1"/>
        <pt x="643" y="0" on="1"/>
        <pt x="320" y="0" on="1"/>
        <pt x="342" y="86" on="1"/>
        <pt x="415" y="86" on="1"/>
        <pt x="338" y="258" on="1"/>
        <pt x="169" y="86" on="1"/>
        <pt x="243" y="86" on="1"/>
        <pt x="221" y="0" on="1"/>
      </contour>
    </TTGlyph>
    <TTGlyph name="Y" xMin="85" yMin="0" xMax="767" yMax="658">
      <contour>
        <pt x="110" y="0" on="1"/>
        <pt x="131" y="87" on="1"/>
        <pt x="220" y="87" on="1"/>
        <pt x="266" y="272" on="1"/>
        <pt x="161" y="571" on="1"/>
        <pt x="85" y="571" on="1"/>
        <pt x="106" y="658" on="1"/>
        <pt x="432" y="658" on="1"/>
        <pt x="410" y="572" on="1"/>
        <pt x="331" y="572" on="1"/>
        <pt x="400" y="355" on="1"/>
        <pt x="575" y="572" on="1"/>
        <pt x="496" y="572" on="1"/>
        <pt x="518" y="658" on="1"/>
        <pt x="767" y="658" on="1"/>
        <pt x="746" y="571" on="1"/>
        <pt x="678" y="571" on="1"/>
        <pt x="423" y="270" on="1"/>
        <pt x="377" y="87" on="1"/>
        <pt x="466" y="87" on="1"/>
        <pt x="445" y="0" on="1"/>
      </contour>
    </TTGlyph>
    <TTGlyph name="Yacute" xMin="85" yMin="0" xMax="767" yMax="945">
      <component glyphName="Y" x="0" y="0" flags="0x204"/>
      <component glyphName="acute" x="287" y="194" flags="0x4"/>
    </TTGlyph>
    <TTGlyph name="Ycircumflex" xMin="85" yMin="0" xMax="767" yMax="926">
      <component glyphName="Y" x="0" y="0" flags="0x204"/>
      <component glyphName="circumflex" x="201" y="194" flags="0x4"/>
    </TTGlyph>
    <TTGlyph name="Ydieresis" xMin="85" yMin="0" xMax="767" yMax="887">
      <component glyphName="Y" x="0" y="0" flags="0x204"/>
      <component glyphName="dieresis" x="192" y="194" flags="0x4"/>
    </TTGlyph>
    <TTGlyph name="Ygrave" xMin="85" yMin="0" xMax="767" yMax="946">
      <component glyphName="Y" x="0" y="0" flags="0x204"/>
      <component glyphName="grave" x="187" y="194" flags="0x4"/>
    </TTGlyph>
    <TTGlyph name="Z" xMin="-26" yMin="0" xMax="701" yMax="658">
      <contour>
        <pt x="-26" y="0" on="1"/>
        <pt x="-6" y="79" on="1"/>
        <pt x="484" y="573" on="1"/>
        <pt x="349" y="573" on="1"/>
        <pt x="320" y="573" on="0"/>
        <pt x="279" y="562" on="0"/>
        <pt x="240" y="526" on="0"/>
        <pt x="198" y="455" on="0"/>
        <pt x="167" y="396" on="1"/>
        <pt x="91" y="396" on="1"/>
        <pt x="157" y="658" on="1"/>
        <pt x="701" y="658" on="1"/>
        <pt x="681" y="579" on="1"/>
        <pt x="191" y="85" on="1"/>
        <pt x="348" y="85" on="1"/>
        <pt x="377" y="85" on="0"/>
        <pt x="418" y="97" on="0"/>
        <pt x="456" y="135" on="0"/>
        <pt x="500" y="210" on="0"/>
        <pt x="532" y="272" on="1"/>
        <pt x="608" y="272" on="1"/>
        <pt x="540" y="0" on="1"/>
      </contour>
    </TTGlyph>
    <TTGlyph name="Zacute" xMin="-26" yMin="0" xMax="701" yMax="945">
      <component glyphName="Z" x="0" y="0" flags="0x204"/>
      <component glyphName="acute" x="266" y="194" flags="0x4"/>
    </TTGlyph>
    <TTGlyph name="Zcaron" xMin="-26" yMin="0" xMax="701" yMax="929">
      <component glyphName="Z" x="0" y="0" flags="0x204"/>
      <component glyphName="caron" x="194" y="194" flags="0x4"/>
    </TTGlyph>
    <TTGlyph name="Zdotaccent" xMin="-26" yMin="0" xMax="701" yMax="887">
      <component glyphName="Z" x="0" y="0" flags="0x204"/>
      <component glyphName="dotaccent" x="257" y="194" flags="0x4"/>
    </TTGlyph>
    <TTGlyph name="a" xMin="25" yMin="-10" xMax="586" yMax="479">
      <contour>
        <pt x="155" y="-10" on="1"/>
        <pt x="95" y="-10" on="0"/>
        <pt x="25" y="76" on="0"/>
        <pt x="25" y="152" on="1"/>
        <pt x="25" y="221" on="0"/>
        <pt x="78" y="362" on="0"/>
        <pt x="126" y="410" on="1"/>
        <pt x="159" y="443" on="0"/>
        <pt x="232" y="479" on="0"/>
        <pt x="272" y="479" on="1"/>
        <pt x="319" y="479" on="0"/>
        <pt x="373" y="423" on="0"/>
        <pt x="381" y="387" on="1"/>
        <pt x="405" y="469" on="1"/>
        <pt x="549" y="469" on="1"/>
        <pt x="460" y="158" on="1"/>
        <pt x="456" y="142" on="0"/>
        <pt x="451" y="117" on="0"/>
        <pt x="451" y="107" on="1"/>
        <pt x="451" y="95" on="0"/>
        <pt x="462" y="83" on="0"/>
        <pt x="472" y="83" on="1"/>
        <pt x="487" y="83" on="0"/>
        <pt x="515" y="118" on="0"/>
        <pt x="534" y="167" on="1"/>
        <pt x="586" y="149" on="1"/>
        <pt x="555" y="63" on="0"/>
        <pt x="473" y="-10" on="0"/>
        <pt x="422" y="-10" on="1"/>
        <pt x="377" y="-10" on="0"/>
        <pt x="324" y="37" on="0"/>
        <pt x="324" y="80" on="1"/>
        <pt x="324" y="86" on="0"/>
        <pt x="325" y="99" on="0"/>
        <pt x="326" y="108" on="1"/>
        <pt x="320" y="110" on="1"/>
        <pt x="286" y="50" on="0"/>
        <pt x="206" y="-10" on="0"/>
      </contour>
      <contour>
        <pt x="220" y="82" on="1"/>
        <pt x="249" y="82" on="0"/>
        <pt x="299" y="138" on="0"/>
        <pt x="336" y="217" on="0"/>
        <pt x="357" y="304" on="0"/>
        <pt x="357" y="333" on="1"/>
        <pt x="357" y="367" on="0"/>
        <pt x="333" y="401" on="0"/>
        <pt x="310" y="401" on="1"/>
        <pt x="282" y="401" on="0"/>
        <pt x="231" y="347" on="0"/>
        <pt x="195" y="270" on="0"/>
        <pt x="173" y="184" on="0"/>
        <pt x="173" y="153" on="1"/>
        <pt x="173" y="116" on="0"/>
        <pt x="199" y="82" on="0"/>
      </contour>
    </TTGlyph>
    <TTGlyph name="aacute" xMin="25" yMin="-10" xMax="586" yMax="751">
      <component glyphName="a" x="0" y="0" flags="0x204"/>
      <component glyphName="acute" x="178" y="0" flags="0x4"/>
    </TTGlyph>
    <TTGlyph name="abreve" xMin="25" yMin="-10" xMax="586" yMax="717">
      <component glyphName="a" x="0" y="0" flags="0x204"/>
      <component glyphName="breve" x="85" y="0" flags="0x4"/>
    </TTGlyph>
    <TTGlyph name="acircumflex" xMin="25" yMin="-10" xMax="586" yMax="732">
      <component glyphName="a" x="0" y="0" flags="0x204"/>
      <component glyphName="circumflex" x="92" y="0" flags="0x4"/>
    </TTGlyph>
    <TTGlyph name="acute" xMin="115" yMin="535" xMax="353" yMax="751">
      <contour>
        <pt x="115" y="535" on="1"/>
        <pt x="198" y="669" on="1"/>
        <pt x="220" y="705" on="0"/>
        <pt x="261" y="751" on="0"/>
        <pt x="290" y="751" on="1"/>
        <pt x="318" y="751" on="0"/>
        <pt x="353" y="713" on="0"/>
        <pt x="353" y="691" on="1"/>
        <pt x="353" y="662" on="0"/>
        <pt x="312" y="625" on="0"/>
        <pt x="278" y="601" on="1"/>
        <pt x="185" y="535" on="1"/>
      </contour>
    </TTGlyph>
    <TTGlyph name="adieresis" xMin="25" yMin="-10" xMax="586" yMax="693">
      <component glyphName="a" x="0" y="0" flags="0x204"/>
      <component glyphName="dieresis" x="83" y="0" flags="0x4"/>
    </TTGlyph>
    <TTGlyph name="ae" xMin="9" yMin="-10" xMax="747" yMax="479">
      <contour>
        <pt x="490" y="-10" on="1"/>
        <pt x="429" y="-10" on="0"/>
        <pt x="342" y="38" on="0"/>
        <pt x="322" y="81" on="1"/>
        <pt x="277" y="28" on="0"/>
        <pt x="181" y="-9" on="0"/>
        <pt x="141" y="-9" on="1"/>
        <pt x="74" y="-9" on="0"/>
        <pt x="9" y="59" on="0"/>
        <pt x="9" y="105" on="1"/>
        <pt x="9" y="146" on="0"/>
        <pt x="53" y="205" on="0"/>
        <pt x="134" y="244" on="0"/>
        <pt x="248" y="265" on="0"/>
        <pt x="317" y="268" on="1"/>
        <pt x="324" y="294" on="0"/>
        <pt x="331" y="333" on="0"/>
        <pt x="331" y="340" on="1"/>
        <pt x="331" y="374" on="0"/>
        <pt x="289" y="408" on="0"/>
        <pt x="250" y="408" on="1"/>
        <pt x="237" y="408" on="0"/>
        <pt x="211" y="403" on="0"/>
        <pt x="200" y="399" on="1"/>
        <pt x="207" y="392" on="0"/>
        <pt x="214" y="370" on="0"/>
        <pt x="214" y="361" on="1"/>
        <pt x="214" y="330" on="0"/>
        <pt x="171" y="292" on="0"/>
        <pt x="138" y="292" on="1"/>
        <pt x="104" y="292" on="0"/>
        <pt x="72" y="332" on="0"/>
        <pt x="72" y="354" on="1"/>
        <pt x="72" y="383" on="0"/>
        <pt x="104" y="429" on="0"/>
        <pt x="159" y="461" on="0"/>
        <pt x="235" y="478" on="0"/>
        <pt x="279" y="478" on="1"/>
        <pt x="334" y="478" on="0"/>
        <pt x="408" y="450" on="0"/>
        <pt x="427" y="424" on="1"/>
        <pt x="464" y="451" on="0"/>
        <pt x="548" y="479" on="0"/>
        <pt x="593" y="479" on="1"/>
        <pt x="667" y="479" on="0"/>
        <pt x="747" y="414" on="0"/>
        <pt x="747" y="363" on="1"/>
        <pt x="747" y="296" on="0"/>
        <pt x="600" y="196" on="0"/>
        <pt x="440" y="190" on="1"/>
        <pt x="440" y="189" on="0"/>
        <pt x="440" y="184" on="0"/>
        <pt x="440" y="182" on="1"/>
        <pt x="440" y="116" on="0"/>
        <pt x="499" y="68" on="0"/>
        <pt x="536" y="68" on="1"/>
        <pt x="569" y="68" on="0"/>
        <pt x="637" y="107" on="0"/>
        <pt x="671" y="148" on="1"/>
        <pt x="714" y="112" on="1"/>
        <pt x="674" y="61" on="0"/>
        <pt x="569" y="-10" on="0"/>
      </contour>
      <contour>
        <pt x="574" y="416" on="1"/>
        <pt x="551" y="416" on="0"/>
        <pt x="510" y="385" on="0"/>
        <pt x="478" y="336" on="0"/>
        <pt x="453" y="274" on="0"/>
        <pt x="447" y="243" on="1"/>
        <pt x="543" y="250" on="0"/>
        <pt x="616" y="325" on="0"/>
        <pt x="616" y="365" on="1"/>
        <pt x="616" y="388" on="0"/>
        <pt x="593" y="416" on="0"/>
      </contour>
      <contour>
        <pt x="202" y="74" on="1"/>
        <pt x="224" y="74" on="0"/>
        <pt x="278" y="100" on="0"/>
        <pt x="306" y="133" on="1"/>
        <pt x="305" y="142" on="0"/>
        <pt x="303" y="163" on="0"/>
        <pt x="303" y="173" on="1"/>
        <pt x="303" y="185" on="0"/>
        <pt x="304" y="208" on="0"/>
        <pt x="306" y="220" on="1"/>
        <pt x="240" y="213" on="0"/>
        <pt x="151" y="173" on="0"/>
        <pt x="151" y="127" on="1"/>
        <pt x="151" y="107" on="0"/>
        <pt x="177" y="74" on="0"/>
      </contour>
    </TTGlyph>
    <TTGlyph name="aeacute" xMin="9" yMin="-10" xMax="747" yMax="751">
      <component glyphName="ae" x="0" y="0" flags="0x204"/>
      <component glyphName="acute" x="292" y="0" flags="0x4"/>
    </TTGlyph>
    <TTGlyph name="agrave" xMin="25" yMin="-10" xMax="586" yMax="752">
      <component glyphName="a" x="0" y="0" flags="0x204"/>
      <component glyphName="grave" x="78" y="0" flags="0x4"/>
    </TTGlyph>
    <TTGlyph name="amacron" xMin="25" yMin="-10" xMax="586" yMax="638">
      <component glyphName="a" x="0" y="0" flags="0x204"/>
      <component glyphName="macron" x="94" y="0" flags="0x4"/>
    </TTGlyph>
    <TTGlyph name="ampersand" xMin="14" yMin="-16" xMax="712" yMax="637">
      <contour>
        <pt x="188" y="-16" on="1"/>
        <pt x="112" y="-16" on="0"/>
        <pt x="14" y="69" on="0"/>
        <pt x="14" y="142" on="1"/>
        <pt x="14" y="208" on="0"/>
        <pt x="109" y="314" on="0"/>
        <pt x="220" y="345" on="1"/>
        <pt x="194" y="383" on="0"/>
        <pt x="174" y="439" on="0"/>
        <pt x="174" y="470" on="1"/>
        <pt x="174" y="508" on="0"/>
        <pt x="205" y="570" on="0"/>
        <pt x="259" y="613" on="0"/>
        <pt x="333" y="637" on="0"/>
        <pt x="376" y="637" on="1"/>
        <pt x="455" y="637" on="0"/>
        <pt x="546" y="559" on="0"/>
        <pt x="546" y="503" on="1"/>
        <pt x="546" y="486" on="0"/>
        <pt x="534" y="445" on="0"/>
        <pt x="500" y="403" on="0"/>
        <pt x="435" y="361" on="0"/>
        <pt x="383" y="343" on="1"/>
        <pt x="404" y="309" on="0"/>
        <pt x="437" y="246" on="0"/>
        <pt x="450" y="215" on="1"/>
        <pt x="470" y="247" on="0"/>
        <pt x="508" y="312" on="0"/>
        <pt x="550" y="362" on="0"/>
        <pt x="599" y="393" on="0"/>
        <pt x="630" y="393" on="1"/>
        <pt x="662" y="393" on="0"/>
        <pt x="712" y="354" on="0"/>
        <pt x="712" y="316" on="1"/>
        <pt x="712" y="284" on="0"/>
        <pt x="668" y="226" on="0"/>
        <pt x="634" y="226" on="1"/>
        <pt x="604" y="226" on="0"/>
        <pt x="573" y="263" on="0"/>
        <pt x="576" y="288" on="1"/>
        <pt x="550" y="271" on="0"/>
        <pt x="502" y="205" on="0"/>
        <pt x="477" y="166" on="1"/>
        <pt x="497" y="123" on="0"/>
        <pt x="532" y="85" on="0"/>
        <pt x="549" y="85" on="1"/>
        <pt x="565" y="85" on="0"/>
        <pt x="600" y="113" on="0"/>
        <pt x="623" y="156" on="1"/>
        <pt x="671" y="129" on="1"/>
        <pt x="637" y="56" on="0"/>
        <pt x="565" y="-15" on="0"/>
        <pt x="509" y="-15" on="1"/>
        <pt x="459" y="-15" on="0"/>
        <pt x="400" y="28" on="0"/>
        <pt x="374" y="73" on="1"/>
        <pt x="337" y="33" on="0"/>
        <pt x="251" y="-16" on="0"/>
      </contour>
      <contour>
        <pt x="310" y="497" on="1"/>
        <pt x="310" y="478" on="0"/>
        <pt x="328" y="429" on="0"/>
        <pt x="353" y="389" on="1"/>
        <pt x="402" y="417" on="0"/>
        <pt x="435" y="478" on="0"/>
        <pt x="435" y="506" on="1"/>
        <pt x="435" y="534" on="0"/>
        <pt x="405" y="572" on="0"/>
        <pt x="376" y="572" on="1"/>
        <pt x="347" y="572" on="0"/>
        <pt x="310" y="531" on="0"/>
      </contour>
      <contour>
        <pt x="162" y="166" on="1"/>
        <pt x="162" y="126" on="0"/>
        <pt x="206" y="77" on="0"/>
        <pt x="245" y="77" on="1"/>
        <pt x="276" y="77" on="0"/>
        <pt x="322" y="97" on="0"/>
        <pt x="344" y="119" on="1"/>
        <pt x="325" y="170" on="0"/>
        <pt x="282" y="252" on="0"/>
        <pt x="252" y="298" on="1"/>
        <pt x="198" y="270" on="0"/>
        <pt x="162" y="196" on="0"/>
      </contour>
    </TTGlyph>
    <TTGlyph name="aogonek" xMin="25" yMin="-250" xMax="586" yMax="479">
      <contour>
        <pt x="380" y="-250" on="1"/>
        <pt x="331" y="-250" on="0"/>
        <pt x="257" y="-204" on="0"/>
        <pt x="257" y="-154" on="1"/>
        <pt x="257" y="-111" on="0"/>
        <pt x="323" y="-42" on="0"/>
        <pt x="386" y="-6" on="1"/>
        <pt x="359" y="1" on="0"/>
        <pt x="324" y="44" on="0"/>
        <pt x="324" y="80" on="1"/>
        <pt x="324" y="86" on="0"/>
        <pt x="325" y="99" on="0"/>
        <pt x="326" y="108" on="1"/>
        <pt x="320" y="110" on="1"/>
        <pt x="286" y="50" on="0"/>
        <pt x="206" y="-10" on="0"/>
        <pt x="155" y="-10" on="1"/>
        <pt x="95" y="-10" on="0"/>
        <pt x="25" y="76" on="0"/>
        <pt x="25" y="152" on="1"/>
        <pt x="25" y="221" on="0"/>
        <pt x="78" y="362" on="0"/>
        <pt x="126" y="410" on="1"/>
        <pt x="159" y="443" on="0"/>
        <pt x="232" y="479" on="0"/>
        <pt x="272" y="479" on="1"/>
        <pt x="319" y="479" on="0"/>
        <pt x="373" y="423" on="0"/>
        <pt x="381" y="387" on="1"/>
        <pt x="405" y="469" on="1"/>
        <pt x="549" y="469" on="1"/>
        <pt x="460" y="158" on="1"/>
        <pt x="456" y="142" on="0"/>
        <pt x="451" y="117" on="0"/>
        <pt x="451" y="107" on="1"/>
        <pt x="451" y="95" on="0"/>
        <pt x="462" y="83" on="0"/>
        <pt x="472" y="83" on="1"/>
        <pt x="487" y="83" on="0"/>
        <pt x="515" y="118" on="0"/>
        <pt x="534" y="167" on="1"/>
        <pt x="586" y="149" on="1"/>
        <pt x="567" y="96" on="0"/>
        <pt x="521" y="25" on="0"/>
        <pt x="477" y="-7" on="1"/>
        <pt x="414" y="-53" on="0"/>
        <pt x="370" y="-109" on="0"/>
        <pt x="370" y="-133" on="1"/>
        <pt x="370" y="-150" on="0"/>
        <pt x="393" y="-178" on="0"/>
        <pt x="420" y="-178" on="1"/>
        <pt x="435" y="-178" on="0"/>
        <pt x="464" y="-169" on="0"/>
        <pt x="480" y="-160" on="1"/>
        <pt x="500" y="-212" on="1"/>
        <pt x="476" y="-228" on="0"/>
        <pt x="414" y="-250" on="0"/>
      </contour>
      <contour>
        <pt x="220" y="82" on="1"/>
        <pt x="249" y="82" on="0"/>
        <pt x="299" y="138" on="0"/>
        <pt x="336" y="217" on="0"/>
        <pt x="357" y="304" on="0"/>
        <pt x="357" y="333" on="1"/>
        <pt x="357" y="367" on="0"/>
        <pt x="333" y="401" on="0"/>
        <pt x="310" y="401" on="1"/>
        <pt x="282" y="401" on="0"/>
        <pt x="231" y="347" on="0"/>
        <pt x="195" y="270" on="0"/>
        <pt x="173" y="184" on="0"/>
        <pt x="173" y="153" on="1"/>
        <pt x="173" y="116" on="0"/>
        <pt x="199" y="82" on="0"/>
      </contour>
    </TTGlyph>
    <TTGlyph name="aring" xMin="25" yMin="-10" xMax="586" yMax="761">
      <component glyphName="a" x="0" y="0" flags="0x204"/>
      <component glyphName="ring" x="131" y="0" flags="0x4"/>
    </TTGlyph>
    <TTGlyph name="aringacute" xMin="25" yMin="-10" xMax="599" yMax="1018">
      <component glyphName="a" x="0" y="0" flags="0x204"/>
      <component glyphName="ring" x="131" y="0" flags="0x4"/>
      <component glyphName="acute" x="246" y="267" flags="0x4"/>
    </TTGlyph>
    <TTGlyph name="asciicircum" xMin="48" yMin="269" xMax="493" yMax="647">
      <contour>
        <pt x="48" y="269" on="1"/>
        <pt x="320" y="647" on="1"/>
        <pt x="409" y="647" on="1"/>
        <pt x="493" y="269" on="1"/>
        <pt x="396" y="269" on="1"/>
        <pt x="345" y="547" on="1"/>
        <pt x="156" y="269" on="1"/>
      </contour>
    </TTGlyph>
    <TTGlyph name="asciicircum.osf" xMin="46" yMin="260" xMax="490" yMax="638">
      <contour>
        <pt x="46" y="260" on="1"/>
        <pt x="318" y="638" on="1"/>
        <pt x="407" y="638" on="1"/>
        <pt x="490" y="260" on="1"/>
        <pt x="393" y="260" on="1"/>
        <pt x="342" y="538" on="1"/>
        <pt x="153" y="260" on="1"/>
      </contour>
    </TTGlyph>
    <TTGlyph name="asciicircum.tab" xMin="56" yMin="267" xMax="501" yMax="645">
      <contour>
        <pt x="56" y="267" on="1"/>
        <pt x="328" y="645" on="1"/>
        <pt x="417" y="645" on="1"/>
        <pt x="501" y="267" on="1"/>
        <pt x="404" y="267" on="1"/>
        <pt x="353" y="545" on="1"/>
        <pt x="164" y="267" on="1"/>
      </contour>
    </TTGlyph>
    <TTGlyph name="asciitilde" xMin="64" yMin="189" xMax="673" yMax="445">
      <contour>
        <pt x="139" y="189" on="1"/>
        <pt x="64" y="228" on="1"/>
        <pt x="115" y="337" on="0"/>
        <pt x="214" y="442" on="0"/>
        <pt x="274" y="442" on="1"/>
        <pt x="314" y="442" on="0"/>
        <pt x="369" y="395" on="0"/>
        <pt x="410" y="339" on="0"/>
        <pt x="447" y="292" on="0"/>
        <pt x="470" y="292" on="1"/>
        <pt x="505" y="292" on="0"/>
        <pt x="564" y="376" on="0"/>
        <pt x="598" y="445" on="1"/>
        <pt x="673" y="406" on="1"/>
        <pt x="622" y="297" on="0"/>
        <pt x="523" y="192" on="0"/>
        <pt x="463" y="192" on="1"/>
        <pt x="424" y="192" on="0"/>
        <pt x="369" y="239" on="0"/>
        <pt x="326" y="295" on="0"/>
        <pt x="289" y="342" on="0"/>
        <pt x="267" y="342" on="1"/>
        <pt x="232" y="342" on="0"/>
        <pt x="173" y="258" on="0"/>
      </contour>
    </TTGlyph>
    <TTGlyph name="asciitilde.osf" xMin="57" yMin="157" xMax="665" yMax="414">
      <contour>
        <pt x="132" y="157" on="1"/>
        <pt x="57" y="196" on="1"/>
        <pt x="108" y="306" on="0"/>
        <pt x="207" y="411" on="0"/>
        <pt x="266" y="411" on="1"/>
        <pt x="307" y="411" on="0"/>
        <pt x="362" y="364" on="0"/>
        <pt x="403" y="307" on="0"/>
        <pt x="440" y="260" on="0"/>
        <pt x="462" y="260" on="1"/>
        <pt x="497" y="260" on="0"/>
        <pt x="556" y="345" on="0"/>
        <pt x="590" y="414" on="1"/>
        <pt x="665" y="374" on="1"/>
        <pt x="614" y="265" on="0"/>
        <pt x="515" y="160" on="0"/>
        <pt x="455" y="160" on="1"/>
        <pt x="416" y="160" on="0"/>
        <pt x="361" y="207" on="0"/>
        <pt x="318" y="264" on="0"/>
        <pt x="281" y="311" on="0"/>
        <pt x="259" y="311" on="1"/>
        <pt x="225" y="311" on="0"/>
        <pt x="166" y="226" on="0"/>
      </contour>
    </TTGlyph>
    <TTGlyph name="asciitilde.tab" xMin="21" yMin="171" xMax="559" yMax="463">
      <contour>
        <pt x="100" y="171" on="1"/>
        <pt x="21" y="198" on="1"/>
        <pt x="63" y="336" on="0"/>
        <pt x="167" y="462" on="0"/>
        <pt x="222" y="462" on="1"/>
        <pt x="263" y="462" on="0"/>
        <pt x="306" y="403" on="0"/>
        <pt x="331" y="334" on="0"/>
        <pt x="352" y="275" on="0"/>
        <pt x="371" y="275" on="1"/>
        <pt x="401" y="275" on="0"/>
        <pt x="452" y="379" on="0"/>
        <pt x="479" y="463" on="1"/>
        <pt x="559" y="436" on="1"/>
        <pt x="517" y="299" on="0"/>
        <pt x="412" y="172" on="0"/>
        <pt x="357" y="172" on="1"/>
        <pt x="316" y="172" on="0"/>
        <pt x="273" y="231" on="0"/>
        <pt x="248" y="301" on="0"/>
        <pt x="227" y="360" on="0"/>
        <pt x="208" y="360" on="1"/>
        <pt x="178" y="360" on="0"/>
        <pt x="128" y="255" on="0"/>
      </contour>
    </TTGlyph>
    <TTGlyph name="asterisk" xMin="128" yMin="311" xMax="500" yMax="699">
      <contour>
        <pt x="367" y="319" on="1"/>
        <pt x="344" y="311" on="0"/>
        <pt x="308" y="329" on="0"/>
        <pt x="300" y="352" on="1"/>
        <pt x="294" y="371" on="0"/>
        <pt x="296" y="436" on="0"/>
        <pt x="300" y="473" on="1"/>
        <pt x="287" y="476" on="1"/>
        <pt x="268" y="443" on="0"/>
        <pt x="234" y="388" on="0"/>
        <pt x="218" y="376" on="1"/>
        <pt x="199" y="362" on="0"/>
        <pt x="158" y="368" on="0"/>
        <pt x="145" y="386" on="1"/>
        <pt x="131" y="405" on="0"/>
        <pt x="137" y="445" on="0"/>
        <pt x="157" y="459" on="1"/>
        <pt x="173" y="471" on="0"/>
        <pt x="235" y="490" on="0"/>
        <pt x="272" y="497" on="1"/>
        <pt x="271" y="511" on="1"/>
        <pt x="234" y="518" on="0"/>
        <pt x="171" y="535" on="0"/>
        <pt x="155" y="546" on="1"/>
        <pt x="135" y="560" on="0"/>
        <pt x="128" y="599" on="0"/>
        <pt x="142" y="618" on="1"/>
        <pt x="155" y="637" on="0"/>
        <pt x="195" y="643" on="0"/>
        <pt x="215" y="629" on="1"/>
        <pt x="231" y="618" on="0"/>
        <pt x="267" y="565" on="0"/>
        <pt x="286" y="532" on="1"/>
        <pt x="299" y="536" on="1"/>
        <pt x="294" y="573" on="0"/>
        <pt x="290" y="639" on="0"/>
        <pt x="296" y="658" on="1"/>
        <pt x="303" y="681" on="0"/>
        <pt x="338" y="699" on="0"/>
        <pt x="360" y="692" on="1"/>
        <pt x="383" y="685" on="0"/>
        <pt x="401" y="651" on="0"/>
        <pt x="394" y="626" on="1"/>
        <pt x="388" y="608" on="0"/>
        <pt x="349" y="557" on="0"/>
        <pt x="323" y="529" on="1"/>
        <pt x="331" y="518" on="1"/>
        <pt x="366" y="534" on="0"/>
        <pt x="427" y="558" on="0"/>
        <pt x="447" y="558" on="1"/>
        <pt x="472" y="559" on="0"/>
        <pt x="499" y="532" on="0"/>
        <pt x="500" y="508" on="1"/>
        <pt x="499" y="484" on="0"/>
        <pt x="473" y="456" on="0"/>
        <pt x="448" y="455" on="1"/>
        <pt x="428" y="455" on="0"/>
        <pt x="367" y="476" on="0"/>
        <pt x="332" y="492" on="1"/>
        <pt x="324" y="481" on="1"/>
        <pt x="350" y="453" on="0"/>
        <pt x="392" y="404" on="0"/>
        <pt x="397" y="385" on="1"/>
        <pt x="405" y="361" on="0"/>
        <pt x="389" y="327" on="0"/>
      </contour>
    </TTGlyph>
    <TTGlyph name="at" xMin="37" yMin="-152" xMax="875" yMax="689">
      <contour>
        <pt x="412" y="-152" on="1"/>
        <pt x="331" y="-152" on="0"/>
        <pt x="193" y="-103" on="0"/>
        <pt x="93" y="-12" on="0"/>
        <pt x="37" y="119" on="0"/>
        <pt x="37" y="200" on="1"/>
        <pt x="37" y="304" on="0"/>
        <pt x="117" y="484" on="0"/>
        <pt x="251" y="614" on="0"/>
        <pt x="431" y="689" on="0"/>
        <pt x="531" y="689" on="1"/>
        <pt x="603" y="689" on="0"/>
        <pt x="730" y="646" on="0"/>
        <pt x="822" y="567" on="0"/>
        <pt x="875" y="452" on="0"/>
        <pt x="875" y="380" on="1"/>
        <pt x="875" y="310" on="0"/>
        <pt x="838" y="190" on="0"/>
        <pt x="773" y="103" on="0"/>
        <pt x="683" y="53" on="0"/>
        <pt x="631" y="53" on="1"/>
        <pt x="607" y="53" on="0"/>
        <pt x="562" y="66" on="0"/>
        <pt x="527" y="92" on="0"/>
        <pt x="506" y="135" on="0"/>
        <pt x="506" y="165" on="1"/>
        <pt x="499" y="168" on="1"/>
        <pt x="474" y="114" on="0"/>
        <pt x="403" y="60" on="0"/>
        <pt x="365" y="60" on="1"/>
        <pt x="299" y="60" on="0"/>
        <pt x="233" y="146" on="0"/>
        <pt x="233" y="211" on="1"/>
        <pt x="233" y="265" on="0"/>
        <pt x="268" y="364" on="0"/>
        <pt x="326" y="438" on="0"/>
        <pt x="403" y="481" on="0"/>
        <pt x="446" y="481" on="1"/>
        <pt x="485" y="481" on="0"/>
        <pt x="538" y="432" on="0"/>
        <pt x="545" y="397" on="1"/>
        <pt x="566" y="473" on="1"/>
        <pt x="688" y="473" on="1"/>
        <pt x="618" y="239" on="1"/>
        <pt x="599" y="177" on="0"/>
        <pt x="622" y="120" on="0"/>
        <pt x="662" y="120" on="1"/>
        <pt x="689" y="120" on="0"/>
        <pt x="743" y="160" on="0"/>
        <pt x="785" y="229" on="0"/>
        <pt x="811" y="325" on="0"/>
        <pt x="811" y="379" on="1"/>
        <pt x="811" y="438" on="0"/>
        <pt x="769" y="534" on="0"/>
        <pt x="694" y="600" on="0"/>
        <pt x="589" y="636" on="0"/>
        <pt x="526" y="636" on="1"/>
        <pt x="441" y="636" on="0"/>
        <pt x="286" y="568" on="0"/>
        <pt x="170" y="451" on="0"/>
        <pt x="101" y="292" on="0"/>
        <pt x="101" y="201" on="1"/>
        <pt x="101" y="133" on="0"/>
        <pt x="147" y="21" on="0"/>
        <pt x="229" y="-57" on="0"/>
        <pt x="347" y="-99" on="0"/>
        <pt x="419" y="-99" on="1"/>
        <pt x="482" y="-99" on="0"/>
        <pt x="589" y="-72" on="0"/>
        <pt x="632" y="-48" on="1"/>
        <pt x="654" y="-94" on="1"/>
        <pt x="604" y="-122" on="0"/>
        <pt x="484" y="-152" on="0"/>
      </contour>
      <contour>
        <pt x="411" y="142" on="1"/>
        <pt x="437" y="142" on="0"/>
        <pt x="481" y="185" on="0"/>
        <pt x="511" y="246" on="0"/>
        <pt x="527" y="314" on="0"/>
        <pt x="527" y="340" on="1"/>
        <pt x="527" y="372" on="0"/>
        <pt x="502" y="411" on="0"/>
        <pt x="475" y="411" on="1"/>
        <pt x="447" y="411" on="0"/>
        <pt x="404" y="365" on="0"/>
        <pt x="376" y="300" on="0"/>
        <pt x="362" y="231" on="0"/>
        <pt x="362" y="208" on="1"/>
        <pt x="362" y="177" on="0"/>
        <pt x="386" y="142" on="0"/>
      </contour>
    </TTGlyph>
    <TTGlyph name="atilde" xMin="25" yMin="-10" xMax="586" yMax="699">
      <component glyphName="a" x="0" y="0" flags="0x204"/>
      <component glyphName="tilde" x="74" y="0" flags="0x4"/>
    </TTGlyph>
    <TTGlyph name="b" xMin="39" yMin="-10" xMax="514" yMax="691">
      <contour>
        <pt x="226" y="-10" on="1"/>
        <pt x="134" y="-10" on="0"/>
        <pt x="39" y="87" on="0"/>
        <pt x="39" y="164" on="1"/>
        <pt x="39" y="195" on="0"/>
        <pt x="57" y="285" on="0"/>
        <pt x="73" y="344" on="1"/>
        <pt x="144" y="605" on="1"/>
        <pt x="65" y="605" on="1"/>
        <pt x="86" y="691" on="1"/>
        <pt x="311" y="691" on="1"/>
        <pt x="206" y="350" on="1"/>
        <pt x="213" y="347" on="1"/>
        <pt x="248" y="413" on="0"/>
        <pt x="334" y="479" on="0"/>
        <pt x="382" y="479" on="1"/>
        <pt x="448" y="479" on="0"/>
        <pt x="514" y="385" on="0"/>
        <pt x="514" y="316" on="1"/>
        <pt x="514" y="259" on="0"/>
        <pt x="473" y="143" on="0"/>
        <pt x="398" y="49" on="0"/>
        <pt x="291" y="-10" on="0"/>
      </contour>
      <contour>
        <pt x="232" y="61" on="1"/>
        <pt x="262" y="61" on="0"/>
        <pt x="312" y="116" on="0"/>
        <pt x="347" y="192" on="0"/>
        <pt x="366" y="277" on="0"/>
        <pt x="366" y="307" on="1"/>
        <pt x="366" y="347" on="0"/>
        <pt x="339" y="385" on="0"/>
        <pt x="315" y="385" on="1"/>
        <pt x="288" y="385" on="0"/>
        <pt x="239" y="334" on="0"/>
        <pt x="202" y="259" on="0"/>
        <pt x="180" y="172" on="0"/>
        <pt x="180" y="137" on="1"/>
        <pt x="180" y="98" on="0"/>
        <pt x="209" y="61" on="0"/>
      </contour>
    </TTGlyph>
    <TTGlyph name="backslash" xMin="123" yMin="-212" xMax="371" yMax="720">
      <contour>
        <pt x="284" y="-212" on="1"/>
        <pt x="123" y="702" on="1"/>
        <pt x="211" y="720" on="1"/>
        <pt x="371" y="-194" on="1"/>
      </contour>
    </TTGlyph>
    <TTGlyph name="bar" xMin="-9" yMin="-211" xMax="308" yMax="718">
      <contour>
        <pt x="80" y="-211" on="1"/>
        <pt x="-9" y="-198" on="1"/>
        <pt x="220" y="718" on="1"/>
        <pt x="308" y="706" on="1"/>
      </contour>
    </TTGlyph>
    <TTGlyph name="bar.tab" xMin="-2" yMin="-148" xMax="315" yMax="781">
      <component glyphName="bar" x="7" y="63" flags="0x4"/>
    </TTGlyph>
    <TTGlyph name="braceleft" xMin="20" yMin="-160" xMax="527" yMax="728">
      <contour>
        <pt x="315" y="-160" on="1"/>
        <pt x="199" y="-150" on="0"/>
        <pt x="95" y="-79" on="0"/>
        <pt x="95" y="-18" on="1"/>
        <pt x="95" y="8" on="0"/>
        <pt x="113" y="64" on="0"/>
        <pt x="133" y="117" on="0"/>
        <pt x="151" y="166" on="0"/>
        <pt x="151" y="185" on="1"/>
        <pt x="151" y="206" on="0"/>
        <pt x="103" y="239" on="0"/>
        <pt x="43" y="239" on="1"/>
        <pt x="20" y="239" on="1"/>
        <pt x="41" y="326" on="1"/>
        <pt x="68" y="326" on="1"/>
        <pt x="108" y="326" on="0"/>
        <pt x="162" y="340" on="0"/>
        <pt x="178" y="357" on="1"/>
        <pt x="204" y="383" on="0"/>
        <pt x="218" y="462" on="0"/>
        <pt x="227" y="548" on="0"/>
        <pt x="249" y="634" on="0"/>
        <pt x="281" y="666" on="1"/>
        <pt x="322" y="706" on="0"/>
        <pt x="452" y="728" on="0"/>
        <pt x="527" y="725" on="1"/>
        <pt x="510" y="649" on="1"/>
        <pt x="469" y="648" on="0"/>
        <pt x="419" y="636" on="0"/>
        <pt x="404" y="621" on="1"/>
        <pt x="383" y="600" on="0"/>
        <pt x="367" y="526" on="0"/>
        <pt x="353" y="443" on="0"/>
        <pt x="329" y="361" on="0"/>
        <pt x="301" y="333" on="1"/>
        <pt x="275" y="308" on="0"/>
        <pt x="202" y="287" on="0"/>
        <pt x="153" y="283" on="1"/>
        <pt x="152" y="275" on="1"/>
        <pt x="217" y="265" on="0"/>
        <pt x="283" y="221" on="0"/>
        <pt x="283" y="180" on="1"/>
        <pt x="283" y="160" on="0"/>
        <pt x="268" y="109" on="0"/>
        <pt x="251" y="56" on="0"/>
        <pt x="236" y="6" on="0"/>
        <pt x="236" y="-12" on="1"/>
        <pt x="236" y="-41" on="0"/>
        <pt x="278" y="-74" on="0"/>
        <pt x="332" y="-84" on="1"/>
      </contour>
    </TTGlyph>
    <TTGlyph name="braceright" xMin="-105" yMin="-162" xMax="402" yMax="726">
      <contour>
        <pt x="107" y="726" on="1"/>
        <pt x="223" y="716" on="0"/>
        <pt x="327" y="645" on="0"/>
        <pt x="327" y="584" on="1"/>
        <pt x="327" y="558" on="0"/>
        <pt x="309" y="502" on="0"/>
        <pt x="289" y="449" on="0"/>
        <pt x="271" y="400" on="0"/>
        <pt x="271" y="381" on="1"/>
        <pt x="271" y="360" on="0"/>
        <pt x="319" y="327" on="0"/>
        <pt x="379" y="327" on="1"/>
        <pt x="402" y="327" on="1"/>
        <pt x="381" y="240" on="1"/>
        <pt x="354" y="240" on="1"/>
        <pt x="314" y="240" on="0"/>
        <pt x="260" y="226" on="0"/>
        <pt x="244" y="209" on="1"/>
        <pt x="218" y="183" on="0"/>
        <pt x="204" y="104" on="0"/>
        <pt x="195" y="18" on="0"/>
        <pt x="173" y="-68" on="0"/>
        <pt x="141" y="-100" on="1"/>
        <pt x="100" y="-140" on="0"/>
        <pt x="-30" y="-162" on="0"/>
        <pt x="-105" y="-159" on="1"/>
        <pt x="-88" y="-83" on="1"/>
        <pt x="-47" y="-82" on="0"/>
        <pt x="3" y="-70" on="0"/>
        <pt x="18" y="-55" on="1"/>
        <pt x="39" y="-34" on="0"/>
        <pt x="55" y="40" on="0"/>
        <pt x="69" y="123" on="0"/>
        <pt x="93" y="205" on="0"/>
        <pt x="121" y="233" on="1"/>
        <pt x="147" y="258" on="0"/>
        <pt x="220" y="279" on="0"/>
        <pt x="269" y="283" on="1"/>
        <pt x="270" y="291" on="1"/>
        <pt x="205" y="301" on="0"/>
        <pt x="139" y="345" on="0"/>
        <pt x="139" y="386" on="1"/>
        <pt x="139" y="406" on="0"/>
        <pt x="154" y="457" on="0"/>
        <pt x="171" y="510" on="0"/>
        <pt x="186" y="560" on="0"/>
        <pt x="186" y="578" on="1"/>
        <pt x="186" y="607" on="0"/>
        <pt x="144" y="640" on="0"/>
        <pt x="90" y="650" on="1"/>
      </contour>
    </TTGlyph>
    <TTGlyph name="bracketleft" xMin="-19" yMin="-160" xMax="496" yMax="725">
      <contour>
        <pt x="-19" y="-160" on="1"/>
        <pt x="201" y="725" on="1"/>
        <pt x="496" y="725" on="1"/>
        <pt x="476" y="647" on="1"/>
        <pt x="322" y="647" on="1"/>
        <pt x="140" y="-82" on="1"/>
        <pt x="295" y="-82" on="1"/>
        <pt x="275" y="-160" on="1"/>
      </contour>
    </TTGlyph>
    <TTGlyph name="bracketright" xMin="-105" yMin="-160" xMax="410" yMax="725">
      <contour>
        <pt x="410" y="725" on="1"/>
        <pt x="190" y="-160" on="1"/>
        <pt x="-105" y="-160" on="1"/>
        <pt x="-85" y="-82" on="1"/>
        <pt x="69" y="-82" on="1"/>
        <pt x="251" y="647" on="1"/>
        <pt x="96" y="647" on="1"/>
        <pt x="116" y="725" on="1"/>
      </contour>
    </TTGlyph>
    <TTGlyph name="breve" xMin="126" yMin="533" xMax="458" yMax="717">
      <contour>
        <pt x="268" y="533" on="1"/>
        <pt x="200" y="533" on="0"/>
        <pt x="126" y="624" on="0"/>
        <pt x="146" y="717" on="1"/>
        <pt x="214" y="717" on="1"/>
        <pt x="210" y="672" on="0"/>
        <pt x="250" y="632" on="0"/>
        <pt x="284" y="632" on="1"/>
        <pt x="319" y="632" on="0"/>
        <pt x="371" y="675" on="0"/>
        <pt x="387" y="717" on="1"/>
        <pt x="458" y="717" on="1"/>
        <pt x="439" y="624" on="0"/>
        <pt x="338" y="533" on="0"/>
      </contour>
    </TTGlyph>
    <TTGlyph name="bullet" xMin="115" yMin="164" xMax="412" yMax="480">
      <contour>
        <pt x="250" y="164" on="1"/>
        <pt x="191" y="164" on="0"/>
        <pt x="115" y="245" on="0"/>
        <pt x="115" y="305" on="1"/>
        <pt x="115" y="342" on="0"/>
        <pt x="141" y="406" on="0"/>
        <pt x="185" y="453" on="0"/>
        <pt x="244" y="480" on="0"/>
        <pt x="277" y="480" on="1"/>
        <pt x="336" y="480" on="0"/>
        <pt x="412" y="399" on="0"/>
        <pt x="412" y="339" on="1"/>
        <pt x="412" y="303" on="0"/>
        <pt x="386" y="239" on="0"/>
        <pt x="342" y="192" on="0"/>
        <pt x="283" y="164" on="0"/>
      </contour>
    </TTGlyph>
    <TTGlyph name="c" xMin="24" yMin="-10" xMax="473" yMax="479">
      <contour>
        <pt x="221" y="-10" on="1"/>
        <pt x="132" y="-10" on="0"/>
        <pt x="24" y="92" on="0"/>
        <pt x="24" y="178" on="1"/>
        <pt x="24" y="239" on="0"/>
        <pt x="72" y="349" on="0"/>
        <pt x="151" y="431" on="0"/>
        <pt x="257" y="479" on="0"/>
        <pt x="314" y="479" on="1"/>
        <pt x="346" y="479" on="0"/>
        <pt x="404" y="462" on="0"/>
        <pt x="447" y="429" on="0"/>
        <pt x="473" y="379" on="0"/>
        <pt x="473" y="347" on="1"/>
        <pt x="473" y="308" on="0"/>
        <pt x="426" y="249" on="0"/>
        <pt x="390" y="249" on="1"/>
        <pt x="359" y="249" on="0"/>
        <pt x="323" y="284" on="0"/>
        <pt x="323" y="311" on="1"/>
        <pt x="323" y="337" on="0"/>
        <pt x="355" y="374" on="0"/>
        <pt x="373" y="382" on="1"/>
        <pt x="368" y="395" on="0"/>
        <pt x="342" y="412" on="0"/>
        <pt x="320" y="412" on="1"/>
        <pt x="287" y="412" on="0"/>
        <pt x="233" y="369" on="0"/>
        <pt x="195" y="303" on="0"/>
        <pt x="174" y="223" on="0"/>
        <pt x="174" y="186" on="1"/>
        <pt x="174" y="119" on="0"/>
        <pt x="233" y="74" on="0"/>
        <pt x="263" y="74" on="1"/>
        <pt x="297" y="74" on="0"/>
        <pt x="363" y="116" on="0"/>
        <pt x="393" y="159" on="1"/>
        <pt x="439" y="122" on="1"/>
        <pt x="423" y="97" on="0"/>
        <pt x="381" y="50" on="0"/>
        <pt x="328" y="13" on="0"/>
        <pt x="262" y="-10" on="0"/>
      </contour>
    </TTGlyph>
    <TTGlyph name="cacute" xMin="24" yMin="-10" xMax="498" yMax="751">
      <component glyphName="c" x="0" y="0" flags="0x204"/>
      <component glyphName="acute" x="145" y="0" flags="0x4"/>
    </TTGlyph>
    <TTGlyph name="caron" xMin="119" yMin="538" xMax="445" yMax="735">
      <contour>
        <pt x="193" y="538" on="1"/>
        <pt x="119" y="735" on="1"/>
        <pt x="199" y="735" on="1"/>
        <pt x="254" y="649" on="1"/>
        <pt x="356" y="735" on="1"/>
        <pt x="445" y="735" on="1"/>
        <pt x="274" y="538" on="1"/>
      </contour>
    </TTGlyph>
    <TTGlyph name="caron.alt" xMin="140" yMin="527" xMax="308" yMax="782">
      <contour>
        <pt x="140" y="527" on="1"/>
        <pt x="171" y="689" on="1"/>
        <pt x="181" y="737" on="0"/>
        <pt x="216" y="782" on="0"/>
        <pt x="247" y="782" on="1"/>
        <pt x="271" y="782" on="0"/>
        <pt x="308" y="748" on="0"/>
        <pt x="308" y="723" on="1"/>
        <pt x="308" y="699" on="0"/>
        <pt x="281" y="657" on="0"/>
        <pt x="256" y="620" on="1"/>
        <pt x="195" y="527" on="1"/>
      </contour>
    </TTGlyph>
    <TTGlyph name="ccaron" xMin="24" yMin="-10" xMax="518" yMax="735">
      <component glyphName="c" x="0" y="0" flags="0x204"/>
      <component glyphName="caron" x="73" y="0" flags="0x4"/>
    </TTGlyph>
    <TTGlyph name="ccedilla" xMin="20" yMin="-249" xMax="473" yMax="479">
      <contour>
        <pt x="155" y="-249" on="1"/>
        <pt x="123" y="-249" on="0"/>
        <pt x="48" y="-228" on="0"/>
        <pt x="20" y="-208" on="1"/>
        <pt x="54" y="-160" on="1"/>
        <pt x="72" y="-171" on="0"/>
        <pt x="119" y="-187" on="0"/>
        <pt x="144" y="-187" on="1"/>
        <pt x="165" y="-187" on="0"/>
        <pt x="189" y="-171" on="0"/>
        <pt x="189" y="-156" on="1"/>
        <pt x="189" y="-138" on="0"/>
        <pt x="141" y="-119" on="0"/>
        <pt x="98" y="-122" on="1"/>
        <pt x="84" y="-83" on="1"/>
        <pt x="185" y="-8" on="1"/>
        <pt x="112" y="2" on="0"/>
        <pt x="24" y="101" on="0"/>
        <pt x="24" y="178" on="1"/>
        <pt x="24" y="239" on="0"/>
        <pt x="72" y="349" on="0"/>
        <pt x="151" y="431" on="0"/>
        <pt x="257" y="479" on="0"/>
        <pt x="314" y="479" on="1"/>
        <pt x="346" y="479" on="0"/>
        <pt x="404" y="462" on="0"/>
        <pt x="447" y="429" on="0"/>
        <pt x="473" y="379" on="0"/>
        <pt x="473" y="347" on="1"/>
        <pt x="473" y="308" on="0"/>
        <pt x="426" y="249" on="0"/>
        <pt x="390" y="249" on="1"/>
        <pt x="359" y="249" on="0"/>
        <pt x="323" y="284" on="0"/>
        <pt x="323" y="311" on="1"/>
        <pt x="323" y="337" on="0"/>
        <pt x="355" y="374" on="0"/>
        <pt x="373" y="382" on="1"/>
        <pt x="368" y="395" on="0"/>
        <pt x="342" y="412" on="0"/>
        <pt x="320" y="412" on="1"/>
        <pt x="287" y="412" on="0"/>
        <pt x="233" y="369" on="0"/>
        <pt x="195" y="303" on="0"/>
        <pt x="174" y="223" on="0"/>
        <pt x="174" y="186" on="1"/>
        <pt x="174" y="119" on="0"/>
        <pt x="233" y="74" on="0"/>
        <pt x="263" y="74" on="1"/>
        <pt x="297" y="74" on="0"/>
        <pt x="363" y="116" on="0"/>
        <pt x="393" y="159" on="1"/>
        <pt x="439" y="122" on="1"/>
        <pt x="411" y="80" on="0"/>
        <pt x="328" y="6" on="0"/>
        <pt x="267" y="-6" on="1"/>
        <pt x="202" y="-59" on="1"/>
        <pt x="203" y="-63" on="1"/>
        <pt x="247" y="-72" on="0"/>
        <pt x="295" y="-116" on="0"/>
        <pt x="295" y="-147" on="1"/>
        <pt x="295" y="-190" on="0"/>
        <pt x="220" y="-249" on="0"/>
      </contour>
    </TTGlyph>
    <TTGlyph name="cdotaccent" xMin="24" yMin="-10" xMax="473" yMax="693">
      <component glyphName="c" x="0" y="0" flags="0x204"/>
      <component glyphName="dotaccent" x="136" y="0" flags="0x4"/>
    </TTGlyph>
    <TTGlyph name="cedilla" xMin="-97" yMin="-249" xMax="178" yMax="7">
      <contour>
        <pt x="38" y="-249" on="1"/>
        <pt x="6" y="-249" on="0"/>
        <pt x="-69" y="-228" on="0"/>
        <pt x="-97" y="-208" on="1"/>
        <pt x="-63" y="-160" on="1"/>
        <pt x="-45" y="-171" on="0"/>
        <pt x="2" y="-187" on="0"/>
        <pt x="27" y="-187" on="1"/>
        <pt x="48" y="-187" on="0"/>
        <pt x="72" y="-171" on="0"/>
        <pt x="72" y="-156" on="1"/>
        <pt x="72" y="-138" on="0"/>
        <pt x="24" y="-119" on="0"/>
        <pt x="-19" y="-122" on="1"/>
        <pt x="-33" y="-83" on="1"/>
        <pt x="88" y="7" on="1"/>
        <pt x="166" y="7" on="1"/>
        <pt x="85" y="-59" on="1"/>
        <pt x="86" y="-63" on="1"/>
        <pt x="130" y="-72" on="0"/>
        <pt x="178" y="-116" on="0"/>
        <pt x="178" y="-147" on="1"/>
        <pt x="178" y="-190" on="0"/>
        <pt x="103" y="-249" on="0"/>
      </contour>
    </TTGlyph>
    <TTGlyph name="cent" xMin="27" yMin="-105" xMax="516" yMax="564">
      <contour>
        <pt x="231" y="-105" on="1"/>
        <pt x="156" y="-95" on="1"/>
        <pt x="179" y="-2" on="1"/>
        <pt x="107" y="14" on="0"/>
        <pt x="27" y="115" on="0"/>
        <pt x="27" y="187" on="1"/>
        <pt x="27" y="243" on="0"/>
        <pt x="68" y="347" on="0"/>
        <pt x="141" y="426" on="0"/>
        <pt x="244" y="476" on="0"/>
        <pt x="304" y="479" on="1"/>
        <pt x="325" y="564" on="1"/>
        <pt x="400" y="554" on="1"/>
        <pt x="381" y="474" on="1"/>
        <pt x="450" y="461" on="0"/>
        <pt x="516" y="384" on="0"/>
        <pt x="516" y="341" on="1"/>
        <pt x="516" y="304" on="0"/>
        <pt x="474" y="250" on="0"/>
        <pt x="437" y="250" on="1"/>
        <pt x="406" y="250" on="0"/>
        <pt x="370" y="285" on="0"/>
        <pt x="370" y="313" on="1"/>
        <pt x="370" y="337" on="0"/>
        <pt x="397" y="374" on="0"/>
        <pt x="414" y="382" on="1"/>
        <pt x="409" y="391" on="0"/>
        <pt x="378" y="406" on="0"/>
        <pt x="357" y="410" on="1"/>
        <pt x="273" y="75" on="1"/>
        <pt x="278" y="74" on="0"/>
        <pt x="288" y="74" on="0"/>
        <pt x="293" y="74" on="1"/>
        <pt x="331" y="74" on="0"/>
        <pt x="405" y="119" on="0"/>
        <pt x="436" y="159" on="1"/>
        <pt x="481" y="123" on="1"/>
        <pt x="449" y="71" on="0"/>
        <pt x="338" y="-10" on="0"/>
        <pt x="255" y="-10" on="1"/>
      </contour>
      <contour>
        <pt x="168" y="197" on="1"/>
        <pt x="168" y="157" on="0"/>
        <pt x="192" y="106" on="0"/>
        <pt x="211" y="93" on="1"/>
        <pt x="289" y="406" on="1"/>
        <pt x="257" y="396" on="0"/>
        <pt x="211" y="350" on="0"/>
        <pt x="182" y="291" on="0"/>
        <pt x="168" y="225" on="0"/>
      </contour>
    </TTGlyph>
    <TTGlyph name="cent.tab" xMin="52" yMin="-105" xMax="521" yMax="564">
      <contour>
        <pt x="252" y="-105" on="1"/>
        <pt x="179" y="-95" on="1"/>
        <pt x="200" y="-4" on="1"/>
        <pt x="128" y="12" on="0"/>
        <pt x="52" y="113" on="0"/>
        <pt x="52" y="187" on="1"/>
        <pt x="52" y="244" on="0"/>
        <pt x="91" y="348" on="0"/>
        <pt x="161" y="427" on="0"/>
        <pt x="260" y="476" on="0"/>
        <pt x="319" y="479" on="1"/>
        <pt x="338" y="564" on="1"/>
        <pt x="411" y="555" on="1"/>
        <pt x="393" y="473" on="1"/>
        <pt x="456" y="459" on="0"/>
        <pt x="521" y="385" on="0"/>
        <pt x="521" y="343" on="1"/>
        <pt x="521" y="306" on="0"/>
        <pt x="481" y="250" on="0"/>
        <pt x="445" y="250" on="1"/>
        <pt x="417" y="250" on="0"/>
        <pt x="383" y="284" on="0"/>
        <pt x="383" y="309" on="1"/>
        <pt x="383" y="332" on="0"/>
        <pt x="407" y="369" on="0"/>
        <pt x="426" y="379" on="1"/>
        <pt x="418" y="390" on="0"/>
        <pt x="388" y="405" on="0"/>
        <pt x="369" y="408" on="1"/>
        <pt x="290" y="74" on="1"/>
        <pt x="293" y="74" on="0"/>
        <pt x="300" y="74" on="0"/>
        <pt x="304" y="74" on="1"/>
        <pt x="341" y="74" on="0"/>
        <pt x="411" y="119" on="0"/>
        <pt x="439" y="159" on="1"/>
        <pt x="487" y="123" on="1"/>
        <pt x="457" y="73" on="0"/>
        <pt x="352" y="-6" on="0"/>
        <pt x="274" y="-10" on="1"/>
      </contour>
      <contour>
        <pt x="187" y="198" on="1"/>
        <pt x="187" y="154" on="0"/>
        <pt x="212" y="103" on="0"/>
        <pt x="233" y="90" on="1"/>
        <pt x="307" y="405" on="1"/>
        <pt x="275" y="396" on="0"/>
        <pt x="229" y="351" on="0"/>
        <pt x="200" y="292" on="0"/>
        <pt x="187" y="226" on="0"/>
      </contour>
    </TTGlyph>
    <TTGlyph name="circumflex" xMin="88" yMin="535" xMax="415" yMax="732">
      <contour>
        <pt x="88" y="535" on="1"/>
        <pt x="260" y="732" on="1"/>
        <pt x="341" y="732" on="1"/>
        <pt x="415" y="535" on="1"/>
        <pt x="335" y="535" on="1"/>
        <pt x="280" y="621" on="1"/>
        <pt x="178" y="535" on="1"/>
      </contour>
    </TTGlyph>
    <TTGlyph name="colon" xMin="10" yMin="-17" xMax="254" yMax="452">
      <contour>
        <pt x="161" y="268" on="1"/>
        <pt x="127" y="268" on="0"/>
        <pt x="83" y="315" on="0"/>
        <pt x="83" y="351" on="1"/>
        <pt x="83" y="391" on="0"/>
        <pt x="135" y="452" on="0"/>
        <pt x="175" y="452" on="1"/>
        <pt x="209" y="452" on="0"/>
        <pt x="254" y="405" on="0"/>
        <pt x="254" y="369" on="1"/>
        <pt x="254" y="329" on="0"/>
        <pt x="201" y="268" on="0"/>
      </contour>
      <contour>
        <pt x="89" y="-17" on="1"/>
        <pt x="55" y="-17" on="0"/>
        <pt x="10" y="31" on="0"/>
        <pt x="10" y="67" on="1"/>
        <pt x="10" y="107" on="0"/>
        <pt x="63" y="168" on="0"/>
        <pt x="103" y="168" on="1"/>
        <pt x="137" y="168" on="0"/>
        <pt x="181" y="120" on="0"/>
        <pt x="181" y="84" on="1"/>
        <pt x="181" y="44" on="0"/>
        <pt x="128" y="-17" on="0"/>
      </contour>
    </TTGlyph>
    <TTGlyph name="colon.fig" xMin="15" yMin="86" xMax="259" yMax="555">
      <component glyphName="colon" x="5" y="103" flags="0x4"/>
    </TTGlyph>
    <TTGlyph name="colon.tab" xMin="10" yMin="-17" xMax="254" yMax="452">
      <component glyphName="colon" x="0" y="0" flags="0x204"/>
    </TTGlyph>
    <TTGlyph name="colonmonetary" xMin="72" yMin="-148" xMax="690" yMax="770">
      <contour>
        <pt x="163" y="-148" on="1"/>
        <pt x="89" y="-130" on="1"/>
        <pt x="159" y="36" on="1"/>
        <pt x="119" y="68" on="0"/>
        <pt x="72" y="175" on="0"/>
        <pt x="72" y="249" on="1"/>
        <pt x="72" y="329" on="0"/>
        <pt x="125" y="475" on="0"/>
        <pt x="217" y="585" on="0"/>
        <pt x="345" y="650" on="0"/>
        <pt x="420" y="650" on="1"/>
        <pt x="470" y="769" on="1"/>
        <pt x="544" y="751" on="1"/>
        <pt x="499" y="641" on="1"/>
        <pt x="514" y="637" on="0"/>
        <pt x="541" y="625" on="0"/>
        <pt x="552" y="618" on="1"/>
        <pt x="616" y="770" on="1"/>
        <pt x="690" y="752" on="1"/>
        <pt x="610" y="561" on="1"/>
        <pt x="620" y="544" on="0"/>
        <pt x="630" y="507" on="0"/>
        <pt x="630" y="488" on="1"/>
        <pt x="630" y="442" on="0"/>
        <pt x="577" y="381" on="0"/>
        <pt x="537" y="381" on="1"/>
        <pt x="533" y="381" on="0"/>
        <pt x="524" y="382" on="0"/>
        <pt x="520" y="383" on="1"/>
        <pt x="390" y="81" on="1"/>
        <pt x="422" y="91" on="0"/>
        <pt x="479" y="149" on="0"/>
        <pt x="507" y="202" on="1"/>
        <pt x="574" y="162" on="1"/>
        <pt x="542" y="93" on="0"/>
        <pt x="437" y="-2" on="0"/>
        <pt x="364" y="-13" on="1"/>
        <pt x="308" y="-148" on="1"/>
        <pt x="233" y="-130" on="1"/>
        <pt x="282" y="-13" on="1"/>
        <pt x="267" y="-12" on="0"/>
        <pt x="238" y="-4" on="0"/>
        <pt x="225" y="0" on="1"/>
      </contour>
      <contour>
        <pt x="518" y="537" on="1"/>
        <pt x="513" y="547" on="0"/>
        <pt x="483" y="567" on="0"/>
        <pt x="461" y="571" on="1"/>
        <pt x="266" y="113" on="1"/>
        <pt x="279" y="97" on="0"/>
        <pt x="312" y="80" on="0"/>
        <pt x="329" y="78" on="1"/>
        <pt x="473" y="415" on="1"/>
        <pt x="469" y="423" on="0"/>
        <pt x="463" y="443" on="0"/>
        <pt x="463" y="453" on="1"/>
        <pt x="463" y="485" on="0"/>
        <pt x="498" y="528" on="0"/>
      </contour>
      <contour>
        <pt x="224" y="246" on="1"/>
        <pt x="224" y="227" on="0"/>
        <pt x="228" y="191" on="0"/>
        <pt x="232" y="175" on="1"/>
        <pt x="400" y="569" on="1"/>
        <pt x="350" y="559" on="0"/>
        <pt x="283" y="484" on="0"/>
        <pt x="242" y="388" on="0"/>
        <pt x="224" y="284" on="0"/>
      </contour>
    </TTGlyph>
    <TTGlyph name="comma" xMin="-70" yMin="-162" xMax="176" yMax="164">
      <contour>
        <pt x="-55" y="-162" on="1"/>
        <pt x="-70" y="-109" on="1"/>
        <pt x="-5" y="-93" on="0"/>
        <pt x="76" y="-34" on="0"/>
        <pt x="89" y="-1" on="1"/>
        <pt x="83" y="5" on="1"/>
        <pt x="78" y="1" on="0"/>
        <pt x="63" y="-4" on="0"/>
        <pt x="55" y="-4" on="1"/>
        <pt x="27" y="-4" on="0"/>
        <pt x="-8" y="37" on="0"/>
        <pt x="-8" y="67" on="1"/>
        <pt x="-8" y="104" on="0"/>
        <pt x="42" y="164" on="0"/>
        <pt x="82" y="164" on="1"/>
        <pt x="125" y="164" on="0"/>
        <pt x="176" y="105" on="0"/>
        <pt x="176" y="57" on="1"/>
        <pt x="176" y="-22" on="0"/>
        <pt x="50" y="-140" on="0"/>
      </contour>
    </TTGlyph>
    <TTGlyph name="comma.tab" xMin="-60" yMin="-162" xMax="186" yMax="164">
      <component glyphName="comma" x="10" y="0" flags="0x4"/>
    </TTGlyph>
    <TTGlyph name="copyright" xMin="35" yMin="-34" xMax="768" yMax="691">
      <contour>
        <pt x="401" y="-34" on="1"/>
        <pt x="323" y="-34" on="0"/>
        <pt x="188" y="21" on="0"/>
        <pt x="91" y="117" on="0"/>
        <pt x="35" y="251" on="0"/>
        <pt x="35" y="329" on="1"/>
        <pt x="35" y="407" on="0"/>
        <pt x="91" y="540" on="0"/>
        <pt x="188" y="636" on="0"/>
        <pt x="323" y="691" on="0"/>
        <pt x="401" y="691" on="1"/>
        <pt x="479" y="691" on="0"/>
        <pt x="614" y="636" on="0"/>
        <pt x="712" y="540" on="0"/>
        <pt x="768" y="407" on="0"/>
        <pt x="768" y="329" on="1"/>
        <pt x="768" y="251" on="0"/>
        <pt x="712" y="117" on="0"/>
        <pt x="614" y="21" on="0"/>
        <pt x="479" y="-34" on="0"/>
      </contour>
      <contour>
        <pt x="401" y="15" on="1"/>
        <pt x="469" y="15" on="0"/>
        <pt x="583" y="62" on="0"/>
        <pt x="664" y="145" on="0"/>
        <pt x="709" y="261" on="0"/>
        <pt x="709" y="329" on="1"/>
        <pt x="709" y="397" on="0"/>
        <pt x="664" y="512" on="0"/>
        <pt x="583" y="595" on="0"/>
        <pt x="469" y="642" on="0"/>
        <pt x="401" y="642" on="1"/>
        <pt x="333" y="642" on="0"/>
        <pt x="220" y="595" on="0"/>
        <pt x="139" y="512" on="0"/>
        <pt x="94" y="397" on="0"/>
        <pt x="94" y="329" on="1"/>
        <pt x="94" y="261" on="0"/>
        <pt x="139" y="145" on="0"/>
        <pt x="220" y="62" on="0"/>
        <pt x="333" y="15" on="0"/>
      </contour>
      <contour>
        <pt x="409" y="140" on="1"/>
        <pt x="325" y="140" on="0"/>
        <pt x="221" y="245" on="0"/>
        <pt x="221" y="329" on="1"/>
        <pt x="221" y="372" on="0"/>
        <pt x="250" y="443" on="0"/>
        <pt x="299" y="493" on="0"/>
        <pt x="364" y="521" on="0"/>
        <pt x="399" y="521" on="1"/>
        <pt x="433" y="521" on="0"/>
        <pt x="485" y="499" on="0"/>
        <pt x="501" y="478" on="1"/>
        <pt x="513" y="520" on="1"/>
        <pt x="564" y="520" on="1"/>
        <pt x="564" y="377" on="1"/>
        <pt x="508" y="377" on="1"/>
        <pt x="492" y="426" on="0"/>
        <pt x="444" y="474" on="0"/>
        <pt x="410" y="474" on="1"/>
        <pt x="371" y="474" on="0"/>
        <pt x="322" y="411" on="0"/>
        <pt x="322" y="335" on="1"/>
        <pt x="322" y="261" on="0"/>
        <pt x="375" y="194" on="0"/>
        <pt x="422" y="194" on="1"/>
        <pt x="463" y="194" on="0"/>
        <pt x="509" y="249" on="0"/>
        <pt x="516" y="295" on="1"/>
        <pt x="570" y="295" on="1"/>
        <pt x="563" y="225" on="0"/>
        <pt x="483" y="140" on="0"/>
      </contour>
    </TTGlyph>
    <TTGlyph name="d" xMin="24" yMin="-10" xMax="598" yMax="691">
      <contour>
        <pt x="163" y="-10" on="1"/>
        <pt x="127" y="-10" on="0"/>
        <pt x="74" y="17" on="0"/>
        <pt x="40" y="61" on="0"/>
        <pt x="24" y="121" on="0"/>
        <pt x="24" y="154" on="1"/>
        <pt x="25" y="230" on="0"/>
        <pt x="78" y="366" on="0"/>
        <pt x="123" y="411" on="1"/>
        <pt x="157" y="445" on="0"/>
        <pt x="226" y="479" on="0"/>
        <pt x="266" y="479" on="1"/>
        <pt x="312" y="479" on="0"/>
        <pt x="366" y="434" on="0"/>
        <pt x="378" y="403" on="1"/>
        <pt x="432" y="605" on="1"/>
        <pt x="353" y="605" on="1"/>
        <pt x="375" y="691" on="1"/>
        <pt x="598" y="691" on="1"/>
        <pt x="458" y="155" on="1"/>
        <pt x="454" y="139" on="0"/>
        <pt x="449" y="115" on="0"/>
        <pt x="449" y="105" on="1"/>
        <pt x="449" y="95" on="0"/>
        <pt x="460" y="83" on="0"/>
        <pt x="470" y="83" on="1"/>
        <pt x="483" y="83" on="0"/>
        <pt x="512" y="120" on="0"/>
        <pt x="531" y="167" on="1"/>
        <pt x="582" y="149" on="1"/>
        <pt x="551" y="63" on="0"/>
        <pt x="470" y="-10" on="0"/>
        <pt x="419" y="-10" on="1"/>
        <pt x="378" y="-10" on="0"/>
        <pt x="324" y="37" on="0"/>
        <pt x="324" y="84" on="1"/>
        <pt x="324" y="91" on="0"/>
        <pt x="325" y="102" on="0"/>
        <pt x="326" y="108" on="1"/>
        <pt x="321" y="110" on="1"/>
        <pt x="292" y="49" on="0"/>
        <pt x="210" y="-10" on="0"/>
      </contour>
      <contour>
        <pt x="218" y="82" on="1"/>
        <pt x="246" y="82" on="0"/>
        <pt x="295" y="135" on="0"/>
        <pt x="332" y="212" on="0"/>
        <pt x="355" y="299" on="0"/>
        <pt x="355" y="333" on="1"/>
        <pt x="356" y="373" on="0"/>
        <pt x="326" y="400" on="0"/>
        <pt x="307" y="400" on="1"/>
        <pt x="276" y="401" on="0"/>
        <pt x="226" y="348" on="0"/>
        <pt x="190" y="273" on="0"/>
        <pt x="170" y="188" on="0"/>
        <pt x="170" y="157" on="1"/>
        <pt x="170" y="117" on="0"/>
        <pt x="197" y="82" on="0"/>
      </contour>
    </TTGlyph>
    <TTGlyph name="dagger" xMin="63" yMin="-111" xMax="576" yMax="704">
      <contour>
        <pt x="189" y="-111" on="1"/>
        <pt x="184" y="-111" on="0"/>
        <pt x="167" y="-92" on="0"/>
        <pt x="152" y="-64" on="0"/>
        <pt x="144" y="-30" on="0"/>
        <pt x="147" y="-15" on="1"/>
        <pt x="182" y="123" on="1"/>
        <pt x="293" y="411" on="1"/>
        <pt x="271" y="420" on="0"/>
        <pt x="211" y="436" on="0"/>
        <pt x="192" y="436" on="1"/>
        <pt x="191" y="436" on="0"/>
        <pt x="187" y="436" on="0"/>
        <pt x="186" y="435" on="1"/>
        <pt x="193" y="395" on="0"/>
        <pt x="154" y="342" on="0"/>
        <pt x="122" y="342" on="1"/>
        <pt x="97" y="342" on="0"/>
        <pt x="63" y="376" on="0"/>
        <pt x="63" y="405" on="1"/>
        <pt x="63" y="436" on="0"/>
        <pt x="115" y="495" on="0"/>
        <pt x="164" y="495" on="1"/>
        <pt x="199" y="495" on="0"/>
        <pt x="256" y="478" on="0"/>
        <pt x="305" y="460" on="1"/>
        <pt x="305" y="655" on="1"/>
        <pt x="317" y="672" on="1"/>
        <pt x="327" y="685" on="0"/>
        <pt x="358" y="704" on="0"/>
        <pt x="375" y="704" on="1"/>
        <pt x="403" y="704" on="0"/>
        <pt x="433" y="664" on="0"/>
        <pt x="436" y="642" on="1"/>
        <pt x="439" y="621" on="1"/>
        <pt x="345" y="446" on="1"/>
        <pt x="368" y="437" on="0"/>
        <pt x="428" y="421" on="0"/>
        <pt x="447" y="421" on="1"/>
        <pt x="453" y="421" on="1"/>
        <pt x="446" y="461" on="0"/>
        <pt x="485" y="514" on="0"/>
        <pt x="517" y="514" on="1"/>
        <pt x="542" y="514" on="0"/>
        <pt x="576" y="481" on="0"/>
        <pt x="576" y="452" on="1"/>
        <pt x="576" y="421" on="0"/>
        <pt x="524" y="361" on="0"/>
        <pt x="475" y="361" on="1"/>
        <pt x="440" y="361" on="0"/>
        <pt x="383" y="379" on="0"/>
        <pt x="334" y="396" on="1"/>
        <pt x="300" y="93" on="1"/>
        <pt x="266" y="-45" on="1"/>
        <pt x="262" y="-59" on="0"/>
        <pt x="241" y="-84" on="0"/>
        <pt x="217" y="-101" on="0"/>
        <pt x="195" y="-111" on="0"/>
      </contour>
    </TTGlyph>
    <TTGlyph name="daggerdbl" xMin="-8" yMin="-110" xMax="578" yMax="704">
      <contour>
        <pt x="196" y="-110" on="1"/>
        <pt x="168" y="-110" on="0"/>
        <pt x="138" y="-70" on="0"/>
        <pt x="135" y="-48" on="1"/>
        <pt x="132" y="-27" on="1"/>
        <pt x="223" y="144" on="1"/>
        <pt x="201" y="153" on="0"/>
        <pt x="141" y="168" on="0"/>
        <pt x="122" y="168" on="1"/>
        <pt x="116" y="168" on="1"/>
        <pt x="123" y="128" on="0"/>
        <pt x="84" y="75" on="0"/>
        <pt x="52" y="75" on="1"/>
        <pt x="27" y="75" on="0"/>
        <pt x="-8" y="109" on="0"/>
        <pt x="-8" y="138" on="1"/>
        <pt x="-8" y="169" on="0"/>
        <pt x="45" y="228" on="0"/>
        <pt x="94" y="228" on="1"/>
        <pt x="128" y="228" on="0"/>
        <pt x="185" y="211" on="0"/>
        <pt x="232" y="194" on="1"/>
        <pt x="232" y="312" on="1"/>
        <pt x="293" y="417" on="1"/>
        <pt x="271" y="425" on="0"/>
        <pt x="213" y="441" on="0"/>
        <pt x="194" y="441" on="1"/>
        <pt x="193" y="441" on="0"/>
        <pt x="189" y="441" on="0"/>
        <pt x="188" y="440" on="1"/>
        <pt x="195" y="400" on="0"/>
        <pt x="156" y="347" on="0"/>
        <pt x="124" y="347" on="1"/>
        <pt x="99" y="347" on="0"/>
        <pt x="65" y="381" on="0"/>
        <pt x="65" y="410" on="1"/>
        <pt x="65" y="441" on="0"/>
        <pt x="117" y="500" on="0"/>
        <pt x="166" y="500" on="1"/>
        <pt x="202" y="500" on="0"/>
        <pt x="258" y="483" on="0"/>
        <pt x="307" y="465" on="1"/>
        <pt x="305" y="655" on="1"/>
        <pt x="317" y="672" on="1"/>
        <pt x="327" y="685" on="0"/>
        <pt x="358" y="704" on="0"/>
        <pt x="375" y="704" on="1"/>
        <pt x="403" y="704" on="0"/>
        <pt x="433" y="664" on="0"/>
        <pt x="436" y="642" on="1"/>
        <pt x="439" y="621" on="1"/>
        <pt x="347" y="451" on="1"/>
        <pt x="370" y="442" on="0"/>
        <pt x="430" y="426" on="0"/>
        <pt x="449" y="426" on="1"/>
        <pt x="455" y="426" on="1"/>
        <pt x="448" y="466" on="0"/>
        <pt x="487" y="519" on="0"/>
        <pt x="519" y="519" on="1"/>
        <pt x="544" y="519" on="0"/>
        <pt x="578" y="486" on="0"/>
        <pt x="578" y="456" on="1"/>
        <pt x="578" y="425" on="0"/>
        <pt x="526" y="366" on="0"/>
        <pt x="477" y="366" on="1"/>
        <pt x="442" y="366" on="0"/>
        <pt x="385" y="383" on="0"/>
        <pt x="338" y="400" on="1"/>
        <pt x="338" y="282" on="1"/>
        <pt x="278" y="177" on="1"/>
        <pt x="300" y="169" on="0"/>
        <pt x="358" y="154" on="0"/>
        <pt x="376" y="154" on="1"/>
        <pt x="383" y="154" on="1"/>
        <pt x="376" y="194" on="0"/>
        <pt x="415" y="247" on="0"/>
        <pt x="447" y="247" on="1"/>
        <pt x="472" y="247" on="0"/>
        <pt x="506" y="213" on="0"/>
        <pt x="506" y="184" on="1"/>
        <pt x="506" y="153" on="0"/>
        <pt x="454" y="94" on="0"/>
        <pt x="405" y="94" on="1"/>
        <pt x="369" y="94" on="0"/>
        <pt x="312" y="111" on="0"/>
        <pt x="263" y="129" on="1"/>
        <pt x="266" y="-61" on="1"/>
        <pt x="254" y="-77" on="1"/>
        <pt x="244" y="-91" on="0"/>
        <pt x="213" y="-110" on="0"/>
      </contour>
    </TTGlyph>
    <TTGlyph name="dcaron" xMin="24" yMin="-10" xMax="796" yMax="796">
      <component glyphName="d" x="0" y="0" flags="0x204"/>
      <component glyphName="caron.alt" x="488" y="14" flags="0x4"/>
    </TTGlyph>
    <TTGlyph name="dcroat" xMin="22" yMin="-10" xMax="632" yMax="691">
      <contour>
        <pt x="162" y="-10" on="1"/>
        <pt x="126" y="-10" on="0"/>
        <pt x="73" y="17" on="0"/>
        <pt x="39" y="61" on="0"/>
        <pt x="22" y="121" on="0"/>
        <pt x="22" y="154" on="1"/>
        <pt x="23" y="227" on="0"/>
        <pt x="78" y="363" on="0"/>
        <pt x="120" y="404" on="1"/>
        <pt x="154" y="438" on="0"/>
        <pt x="224" y="472" on="0"/>
        <pt x="264" y="472" on="1"/>
        <pt x="310" y="472" on="0"/>
        <pt x="364" y="426" on="0"/>
        <pt x="376" y="397" on="1"/>
        <pt x="404" y="503" on="1"/>
        <pt x="286" y="503" on="1"/>
        <pt x="303" y="568" on="1"/>
        <pt x="421" y="568" on="1"/>
        <pt x="433" y="614" on="1"/>
        <pt x="353" y="614" on="1"/>
        <pt x="373" y="691" on="1"/>
        <pt x="597" y="691" on="1"/>
        <pt x="565" y="568" on="1"/>
        <pt x="632" y="568" on="1"/>
        <pt x="616" y="503" on="1"/>
        <pt x="548" y="503" on="1"/>
        <pt x="456" y="155" on="1"/>
        <pt x="452" y="139" on="0"/>
        <pt x="448" y="115" on="0"/>
        <pt x="448" y="105" on="1"/>
        <pt x="448" y="95" on="0"/>
        <pt x="458" y="83" on="0"/>
        <pt x="468" y="83" on="1"/>
        <pt x="481" y="83" on="0"/>
        <pt x="510" y="120" on="0"/>
        <pt x="529" y="167" on="1"/>
        <pt x="581" y="149" on="1"/>
        <pt x="550" y="63" on="0"/>
        <pt x="469" y="-10" on="0"/>
        <pt x="418" y="-10" on="1"/>
        <pt x="376" y="-10" on="0"/>
        <pt x="323" y="37" on="0"/>
        <pt x="323" y="84" on="1"/>
        <pt x="323" y="91" on="0"/>
        <pt x="323" y="102" on="0"/>
        <pt x="324" y="108" on="1"/>
        <pt x="320" y="110" on="1"/>
        <pt x="290" y="49" on="0"/>
        <pt x="208" y="-10" on="0"/>
      </contour>
      <contour>
        <pt x="217" y="82" on="1"/>
        <pt x="245" y="82" on="0"/>
        <pt x="294" y="135" on="0"/>
        <pt x="330" y="210" on="0"/>
        <pt x="352" y="294" on="0"/>
        <pt x="352" y="326" on="1"/>
        <pt x="353" y="366" on="0"/>
        <pt x="324" y="393" on="0"/>
        <pt x="304" y="393" on="1"/>
        <pt x="274" y="394" on="0"/>
        <pt x="224" y="343" on="0"/>
        <pt x="189" y="269" on="0"/>
        <pt x="169" y="187" on="0"/>
        <pt x="169" y="157" on="1"/>
        <pt x="169" y="117" on="0"/>
        <pt x="196" y="82" on="0"/>
      </contour>
    </TTGlyph>
    <TTGlyph name="degree" xMin="94" yMin="346" xMax="440" yMax="674">
      <contour>
        <pt x="251" y="346" on="1"/>
        <pt x="211" y="346" on="0"/>
        <pt x="152" y="370" on="0"/>
        <pt x="113" y="409" on="0"/>
        <pt x="94" y="460" on="0"/>
        <pt x="94" y="487" on="1"/>
        <pt x="94" y="567" on="0"/>
        <pt x="202" y="674" on="0"/>
        <pt x="283" y="674" on="1"/>
        <pt x="323" y="674" on="0"/>
        <pt x="382" y="650" on="0"/>
        <pt x="421" y="612" on="0"/>
        <pt x="440" y="561" on="0"/>
        <pt x="440" y="534" on="1"/>
        <pt x="440" y="453" on="0"/>
        <pt x="332" y="346" on="0"/>
      </contour>
      <contour>
        <pt x="256" y="413" on="1"/>
        <pt x="280" y="413" on="0"/>
        <pt x="314" y="435" on="0"/>
        <pt x="336" y="470" on="0"/>
        <pt x="347" y="512" on="0"/>
        <pt x="347" y="532" on="1"/>
        <pt x="347" y="568" on="0"/>
        <pt x="310" y="607" on="0"/>
        <pt x="278" y="607" on="1"/>
        <pt x="255" y="607" on="0"/>
        <pt x="221" y="585" on="0"/>
        <pt x="199" y="550" on="0"/>
        <pt x="188" y="508" on="0"/>
        <pt x="188" y="488" on="1"/>
        <pt x="188" y="452" on="0"/>
        <pt x="225" y="413" on="0"/>
      </contour>
    </TTGlyph>
    <TTGlyph name="degree.tab" xMin="124" yMin="284" xMax="538" yMax="674">
      <contour>
        <pt x="310" y="284" on="1"/>
        <pt x="263" y="284" on="0"/>
        <pt x="193" y="312" on="0"/>
        <pt x="147" y="359" on="0"/>
        <pt x="124" y="421" on="0"/>
        <pt x="124" y="454" on="1"/>
        <pt x="124" y="501" on="0"/>
        <pt x="159" y="582" on="0"/>
        <pt x="220" y="641" on="0"/>
        <pt x="305" y="674" on="0"/>
        <pt x="354" y="674" on="1"/>
        <pt x="400" y="674" on="0"/>
        <pt x="470" y="645" on="0"/>
        <pt x="515" y="598" on="0"/>
        <pt x="538" y="536" on="0"/>
        <pt x="538" y="503" on="1"/>
        <pt x="538" y="456" on="0"/>
        <pt x="503" y="375" on="0"/>
        <pt x="443" y="317" on="0"/>
        <pt x="359" y="284" on="0"/>
      </contour>
      <contour>
        <pt x="316" y="357" on="1"/>
        <pt x="347" y="357" on="0"/>
        <pt x="392" y="384" on="0"/>
        <pt x="421" y="426" on="0"/>
        <pt x="435" y="478" on="0"/>
        <pt x="435" y="503" on="1"/>
        <pt x="435" y="550" on="0"/>
        <pt x="387" y="601" on="0"/>
        <pt x="346" y="601" on="1"/>
        <pt x="316" y="601" on="0"/>
        <pt x="271" y="574" on="0"/>
        <pt x="242" y="531" on="0"/>
        <pt x="228" y="479" on="0"/>
        <pt x="228" y="454" on="1"/>
        <pt x="228" y="408" on="0"/>
        <pt x="276" y="357" on="0"/>
      </contour>
    </TTGlyph>
    <TTGlyph name="dieresis" xMin="116" yMin="538" xMax="462" yMax="693">
      <contour>
        <pt x="182" y="538" on="1"/>
        <pt x="154" y="538" on="0"/>
        <pt x="116" y="575" on="0"/>
        <pt x="116" y="606" on="1"/>
        <pt x="116" y="636" on="0"/>
        <pt x="160" y="693" on="0"/>
        <pt x="200" y="693" on="1"/>
        <pt x="228" y="693" on="0"/>
        <pt x="266" y="656" on="0"/>
        <pt x="266" y="625" on="1"/>
        <pt x="266" y="595" on="0"/>
        <pt x="222" y="538" on="0"/>
      </contour>
      <contour>
        <pt x="378" y="538" on="1"/>
        <pt x="350" y="538" on="0"/>
        <pt x="312" y="575" on="0"/>
        <pt x="312" y="606" on="1"/>
        <pt x="312" y="636" on="0"/>
        <pt x="356" y="693" on="0"/>
        <pt x="396" y="693" on="1"/>
        <pt x="424" y="693" on="0"/>
        <pt x="462" y="656" on="0"/>
        <pt x="462" y="625" on="1"/>
        <pt x="462" y="595" on="0"/>
        <pt x="418" y="538" on="0"/>
      </contour>
    </TTGlyph>
    <TTGlyph name="divide" xMin="53" yMin="74" xMax="510" yMax="560">
      <contour>
        <pt x="317" y="407" on="1"/>
        <pt x="288" y="407" on="0"/>
        <pt x="249" y="446" on="0"/>
        <pt x="249" y="476" on="1"/>
        <pt x="249" y="509" on="0"/>
        <pt x="295" y="560" on="0"/>
        <pt x="328" y="560" on="1"/>
        <pt x="357" y="560" on="0"/>
        <pt x="395" y="520" on="0"/>
        <pt x="395" y="491" on="1"/>
        <pt x="395" y="458" on="0"/>
        <pt x="350" y="407" on="0"/>
      </contour>
      <contour>
        <pt x="53" y="278" on="1"/>
        <pt x="72" y="357" on="1"/>
        <pt x="510" y="357" on="1"/>
        <pt x="490" y="278" on="1"/>
      </contour>
      <contour>
        <pt x="234" y="74" on="1"/>
        <pt x="205" y="74" on="0"/>
        <pt x="167" y="114" on="0"/>
        <pt x="167" y="143" on="1"/>
        <pt x="167" y="176" on="0"/>
        <pt x="212" y="227" on="0"/>
        <pt x="245" y="227" on="1"/>
        <pt x="275" y="227" on="0"/>
        <pt x="313" y="188" on="0"/>
        <pt x="313" y="158" on="1"/>
        <pt x="313" y="125" on="0"/>
        <pt x="268" y="74" on="0"/>
      </contour>
    </TTGlyph>
    <TTGlyph name="divide.osf" xMin="44" yMin="42" xMax="501" yMax="527">
      <contour>
        <pt x="309" y="374" on="1"/>
        <pt x="279" y="374" on="0"/>
        <pt x="241" y="414" on="0"/>
        <pt x="241" y="443" on="1"/>
        <pt x="241" y="476" on="0"/>
        <pt x="286" y="527" on="0"/>
        <pt x="320" y="527" on="1"/>
        <pt x="349" y="527" on="0"/>
        <pt x="387" y="488" on="0"/>
        <pt x="387" y="458" on="1"/>
        <pt x="387" y="425" on="0"/>
        <pt x="342" y="374" on="0"/>
      </contour>
      <contour>
        <pt x="44" y="245" on="1"/>
        <pt x="64" y="325" on="1"/>
        <pt x="501" y="325" on="1"/>
        <pt x="482" y="245" on="1"/>
      </contour>
      <contour>
        <pt x="226" y="42" on="1"/>
        <pt x="197" y="42" on="0"/>
        <pt x="159" y="81" on="0"/>
        <pt x="159" y="111" on="1"/>
        <pt x="159" y="144" on="0"/>
        <pt x="204" y="195" on="0"/>
        <pt x="237" y="195" on="1"/>
        <pt x="266" y="195" on="0"/>
        <pt x="304" y="156" on="0"/>
        <pt x="304" y="126" on="1"/>
        <pt x="304" y="93" on="0"/>
        <pt x="259" y="42" on="0"/>
      </contour>
    </TTGlyph>
    <TTGlyph name="divide.tab" xMin="62" yMin="74" xMax="519" yMax="559">
      <contour>
        <pt x="326" y="406" on="1"/>
        <pt x="297" y="406" on="0"/>
        <pt x="258" y="445" on="0"/>
        <pt x="258" y="475" on="1"/>
        <pt x="258" y="508" on="0"/>
        <pt x="304" y="559" on="0"/>
        <pt x="337" y="559" on="1"/>
        <pt x="366" y="559" on="0"/>
        <pt x="404" y="520" on="0"/>
        <pt x="404" y="490" on="1"/>
        <pt x="404" y="457" on="0"/>
        <pt x="359" y="406" on="0"/>
      </contour>
      <contour>
        <pt x="62" y="277" on="1"/>
        <pt x="81" y="356" on="1"/>
        <pt x="519" y="356" on="1"/>
        <pt x="499" y="277" on="1"/>
      </contour>
      <contour>
        <pt x="243" y="74" on="1"/>
        <pt x="214" y="74" on="0"/>
        <pt x="176" y="113" on="0"/>
        <pt x="176" y="143" on="1"/>
        <pt x="176" y="176" on="0"/>
        <pt x="221" y="227" on="0"/>
        <pt x="254" y="227" on="1"/>
        <pt x="284" y="227" on="0"/>
        <pt x="322" y="187" on="0"/>
        <pt x="322" y="158" on="1"/>
        <pt x="322" y="125" on="0"/>
        <pt x="277" y="74" on="0"/>
      </contour>
    </TTGlyph>
    <TTGlyph name="dollar" xMin="6" yMin="-91" xMax="577" yMax="714">
      <contour>
        <pt x="236" y="-91" on="1"/>
        <pt x="161" y="-82" on="1"/>
        <pt x="183" y="8" on="1"/>
        <pt x="108" y="21" on="0"/>
        <pt x="6" y="94" on="0"/>
        <pt x="6" y="146" on="1"/>
        <pt x="6" y="180" on="0"/>
        <pt x="49" y="235" on="0"/>
        <pt x="87" y="235" on="1"/>
        <pt x="118" y="235" on="0"/>
        <pt x="161" y="196" on="0"/>
        <pt x="161" y="167" on="1"/>
        <pt x="161" y="148" on="0"/>
        <pt x="142" y="112" on="0"/>
        <pt x="126" y="102" on="1"/>
        <pt x="135" y="92" on="0"/>
        <pt x="173" y="73" on="0"/>
        <pt x="198" y="67" on="1"/>
        <pt x="248" y="266" on="1"/>
        <pt x="179" y="294" on="0"/>
        <pt x="91" y="366" on="0"/>
        <pt x="91" y="432" on="1"/>
        <pt x="91" y="478" on="0"/>
        <pt x="130" y="553" on="0"/>
        <pt x="198" y="606" on="0"/>
        <pt x="288" y="636" on="0"/>
        <pt x="339" y="636" on="1"/>
        <pt x="358" y="714" on="1"/>
        <pt x="433" y="705" on="1"/>
        <pt x="414" y="630" on="1"/>
        <pt x="486" y="617" on="0"/>
        <pt x="577" y="546" on="0"/>
        <pt x="577" y="497" on="1"/>
        <pt x="577" y="463" on="0"/>
        <pt x="536" y="409" on="0"/>
        <pt x="499" y="409" on="1"/>
        <pt x="468" y="409" on="0"/>
        <pt x="426" y="447" on="0"/>
        <pt x="426" y="475" on="1"/>
        <pt x="426" y="494" on="0"/>
        <pt x="444" y="529" on="0"/>
        <pt x="458" y="539" on="1"/>
        <pt x="452" y="547" on="0"/>
        <pt x="422" y="565" on="0"/>
        <pt x="399" y="571" on="1"/>
        <pt x="351" y="377" on="1"/>
        <pt x="424" y="347" on="0"/>
        <pt x="518" y="272" on="0"/>
        <pt x="518" y="202" on="1"/>
        <pt x="518" y="159" on="0"/>
        <pt x="484" y="85" on="0"/>
        <pt x="421" y="31" on="0"/>
        <pt x="329" y="0" on="0"/>
        <pt x="271" y="0" on="1"/>
        <pt x="268" y="0" on="0"/>
        <pt x="261" y="0" on="0"/>
        <pt x="258" y="0" on="1"/>
      </contour>
      <contour>
        <pt x="223" y="483" on="1"/>
        <pt x="223" y="455" on="0"/>
        <pt x="256" y="419" on="0"/>
        <pt x="284" y="405" on="1"/>
        <pt x="327" y="576" on="1"/>
        <pt x="275" y="571" on="0"/>
        <pt x="223" y="517" on="0"/>
      </contour>
      <contour>
        <pt x="389" y="152" on="1"/>
        <pt x="389" y="183" on="0"/>
        <pt x="347" y="222" on="0"/>
        <pt x="314" y="238" on="1"/>
        <pt x="270" y="60" on="1"/>
        <pt x="336" y="61" on="0"/>
        <pt x="389" y="115" on="0"/>
      </contour>
    </TTGlyph>
    <TTGlyph name="dollar.osf" xMin="7" yMin="-102" xMax="553" yMax="648">
      <contour>
        <pt x="230" y="-102" on="1"/>
        <pt x="155" y="-92" on="1"/>
        <pt x="177" y="-3" on="1"/>
        <pt x="105" y="11" on="0"/>
        <pt x="7" y="82" on="0"/>
        <pt x="7" y="133" on="1"/>
        <pt x="7" y="167" on="0"/>
        <pt x="50" y="217" on="0"/>
        <pt x="88" y="217" on="1"/>
        <pt x="119" y="217" on="0"/>
        <pt x="162" y="180" on="0"/>
        <pt x="162" y="153" on="1"/>
        <pt x="162" y="136" on="0"/>
        <pt x="143" y="100" on="0"/>
        <pt x="127" y="90" on="1"/>
        <pt x="135" y="80" on="0"/>
        <pt x="170" y="63" on="0"/>
        <pt x="192" y="58" on="1"/>
        <pt x="236" y="230" on="1"/>
        <pt x="167" y="255" on="0"/>
        <pt x="76" y="321" on="0"/>
        <pt x="76" y="379" on="1"/>
        <pt x="76" y="421" on="0"/>
        <pt x="115" y="492" on="0"/>
        <pt x="181" y="542" on="0"/>
        <pt x="270" y="570" on="0"/>
        <pt x="320" y="570" on="1"/>
        <pt x="339" y="648" on="1"/>
        <pt x="414" y="639" on="1"/>
        <pt x="395" y="564" on="1"/>
        <pt x="464" y="551" on="0"/>
        <pt x="553" y="481" on="0"/>
        <pt x="553" y="433" on="1"/>
        <pt x="553" y="399" on="0"/>
        <pt x="512" y="349" on="0"/>
        <pt x="475" y="349" on="1"/>
        <pt x="444" y="349" on="0"/>
        <pt x="403" y="385" on="0"/>
        <pt x="403" y="412" on="1"/>
        <pt x="403" y="429" on="0"/>
        <pt x="420" y="463" on="0"/>
        <pt x="435" y="473" on="1"/>
        <pt x="429" y="481" on="0"/>
        <pt x="401" y="499" on="0"/>
        <pt x="380" y="504" on="1"/>
        <pt x="338" y="334" on="1"/>
        <pt x="411" y="308" on="0"/>
        <pt x="506" y="239" on="0"/>
        <pt x="506" y="176" on="1"/>
        <pt x="506" y="97" on="0"/>
        <pt x="378" y="-11" on="0"/>
        <pt x="267" y="-11" on="1"/>
        <pt x="263" y="-11" on="0"/>
        <pt x="256" y="-11" on="0"/>
        <pt x="252" y="-11" on="1"/>
      </contour>
      <contour>
        <pt x="208" y="430" on="1"/>
        <pt x="208" y="404" on="0"/>
        <pt x="241" y="372" on="0"/>
        <pt x="270" y="359" on="1"/>
        <pt x="308" y="510" on="1"/>
        <pt x="259" y="506" on="0"/>
        <pt x="208" y="458" on="0"/>
      </contour>
      <contour>
        <pt x="377" y="127" on="1"/>
        <pt x="377" y="155" on="0"/>
        <pt x="336" y="192" on="0"/>
        <pt x="303" y="205" on="1"/>
        <pt x="264" y="49" on="1"/>
        <pt x="325" y="49" on="0"/>
        <pt x="377" y="95" on="0"/>
      </contour>
    </TTGlyph>
    <TTGlyph name="dollar.tab" xMin="18" yMin="-91" xMax="550" yMax="714">
      <contour>
        <pt x="225" y="-91" on="1"/>
        <pt x="155" y="-82" on="1"/>
        <pt x="176" y="8" on="1"/>
        <pt x="110" y="21" on="0"/>
        <pt x="18" y="91" on="0"/>
        <pt x="18" y="146" on="1"/>
        <pt x="18" y="178" on="0"/>
        <pt x="57" y="233" on="0"/>
        <pt x="95" y="233" on="1"/>
        <pt x="123" y="233" on="0"/>
        <pt x="165" y="196" on="0"/>
        <pt x="165" y="166" on="1"/>
        <pt x="165" y="147" on="0"/>
        <pt x="148" y="111" on="0"/>
        <pt x="132" y="101" on="1"/>
        <pt x="141" y="91" on="0"/>
        <pt x="173" y="73" on="0"/>
        <pt x="195" y="68" on="1"/>
        <pt x="244" y="265" on="1"/>
        <pt x="181" y="294" on="0"/>
        <pt x="99" y="365" on="0"/>
        <pt x="100" y="432" on="1"/>
        <pt x="100" y="478" on="0"/>
        <pt x="137" y="553" on="0"/>
        <pt x="200" y="606" on="0"/>
        <pt x="285" y="636" on="0"/>
        <pt x="333" y="636" on="1"/>
        <pt x="352" y="714" on="1"/>
        <pt x="423" y="705" on="1"/>
        <pt x="404" y="629" on="1"/>
        <pt x="467" y="616" on="0"/>
        <pt x="550" y="547" on="0"/>
        <pt x="550" y="498" on="1"/>
        <pt x="550" y="466" on="0"/>
        <pt x="513" y="411" on="0"/>
        <pt x="476" y="411" on="1"/>
        <pt x="447" y="411" on="0"/>
        <pt x="407" y="449" on="0"/>
        <pt x="407" y="477" on="1"/>
        <pt x="407" y="496" on="0"/>
        <pt x="423" y="530" on="0"/>
        <pt x="436" y="541" on="1"/>
        <pt x="430" y="548" on="0"/>
        <pt x="405" y="565" on="0"/>
        <pt x="386" y="570" on="1"/>
        <pt x="338" y="377" on="1"/>
        <pt x="406" y="346" on="0"/>
        <pt x="493" y="272" on="0"/>
        <pt x="492" y="202" on="1"/>
        <pt x="492" y="159" on="0"/>
        <pt x="460" y="85" on="0"/>
        <pt x="402" y="31" on="0"/>
        <pt x="316" y="0" on="0"/>
        <pt x="262" y="0" on="1"/>
        <pt x="258" y="0" on="0"/>
        <pt x="252" y="0" on="0"/>
        <pt x="248" y="0" on="1"/>
      </contour>
      <contour>
        <pt x="227" y="481" on="1"/>
        <pt x="226" y="453" on="0"/>
        <pt x="256" y="418" on="0"/>
        <pt x="281" y="404" on="1"/>
        <pt x="324" y="577" on="1"/>
        <pt x="275" y="573" on="0"/>
        <pt x="227" y="516" on="0"/>
      </contour>
      <contour>
        <pt x="369" y="153" on="1"/>
        <pt x="369" y="184" on="0"/>
        <pt x="332" y="223" on="0"/>
        <pt x="302" y="239" on="1"/>
        <pt x="257" y="60" on="1"/>
        <pt x="259" y="60" on="1"/>
        <pt x="319" y="60" on="0"/>
        <pt x="368" y="115" on="0"/>
      </contour>
    </TTGlyph>
    <TTGlyph name="dotaccent" xMin="121" yMin="531" xMax="285" yMax="693">
      <contour>
        <pt x="193" y="531" on="1"/>
        <pt x="162" y="531" on="0"/>
        <pt x="121" y="569" on="0"/>
        <pt x="121" y="603" on="1"/>
        <pt x="121" y="634" on="0"/>
        <pt x="169" y="693" on="0"/>
        <pt x="213" y="693" on="1"/>
        <pt x="244" y="693" on="0"/>
        <pt x="285" y="655" on="0"/>
        <pt x="285" y="622" on="1"/>
        <pt x="285" y="591" on="0"/>
        <pt x="237" y="531" on="0"/>
      </contour>
    </TTGlyph>
    <TTGlyph name="dotlessi" xMin="13" yMin="-10" xMax="341" yMax="479">
      <contour>
        <pt x="171" y="-10" on="1"/>
        <pt x="126" y="-10" on="0"/>
        <pt x="69" y="43" on="0"/>
        <pt x="69" y="89" on="1"/>
        <pt x="69" y="120" on="0"/>
        <pt x="95" y="201" on="0"/>
        <pt x="126" y="280" on="0"/>
        <pt x="152" y="350" on="0"/>
        <pt x="152" y="369" on="1"/>
        <pt x="152" y="380" on="0"/>
        <pt x="143" y="388" on="0"/>
        <pt x="137" y="388" on="1"/>
        <pt x="121" y="388" on="0"/>
        <pt x="85" y="334" on="0"/>
        <pt x="65" y="289" on="1"/>
        <pt x="13" y="309" on="1"/>
        <pt x="47" y="390" on="0"/>
        <pt x="135" y="479" on="0"/>
        <pt x="193" y="479" on="1"/>
        <pt x="235" y="479" on="0"/>
        <pt x="289" y="427" on="0"/>
        <pt x="289" y="384" on="1"/>
        <pt x="289" y="354" on="0"/>
        <pt x="263" y="273" on="0"/>
        <pt x="233" y="193" on="0"/>
        <pt x="207" y="122" on="0"/>
        <pt x="207" y="103" on="1"/>
        <pt x="207" y="92" on="0"/>
        <pt x="218" y="83" on="0"/>
        <pt x="225" y="83" on="1"/>
        <pt x="237" y="83" on="0"/>
        <pt x="267" y="117" on="0"/>
        <pt x="289" y="167" on="1"/>
        <pt x="341" y="150" on="1"/>
        <pt x="312" y="70" on="0"/>
        <pt x="224" y="-10" on="0"/>
      </contour>
    </TTGlyph>
    <TTGlyph name="dotmath" xMin="114" yMin="226" xMax="285" yMax="411">
      <component glyphName="period" x="111" y="243" flags="0x4"/>
    </TTGlyph>
    <TTGlyph name="dotmath.osf" xMin="105" yMin="189" xMax="276" yMax="374">
      <component glyphName="period" x="102" y="206" flags="0x4"/>
    </TTGlyph>
    <TTGlyph name="dotmath.tab" xMin="70" yMin="225" xMax="241" yMax="410">
      <component glyphName="period" x="67" y="242" flags="0x4"/>
    </TTGlyph>
    <TTGlyph name="e" xMin="23" yMin="-10" xMax="479" yMax="479">
      <contour>
        <pt x="219" y="-10" on="1"/>
        <pt x="131" y="-10" on="0"/>
        <pt x="23" y="91" on="0"/>
        <pt x="23" y="177" on="1"/>
        <pt x="23" y="235" on="0"/>
        <pt x="69" y="344" on="0"/>
        <pt x="150" y="428" on="0"/>
        <pt x="261" y="479" on="0"/>
        <pt x="325" y="479" on="1"/>
        <pt x="399" y="479" on="0"/>
        <pt x="479" y="414" on="0"/>
        <pt x="479" y="363" on="1"/>
        <pt x="479" y="296" on="0"/>
        <pt x="332" y="196" on="0"/>
        <pt x="171" y="190" on="1"/>
        <pt x="171" y="189" on="0"/>
        <pt x="171" y="184" on="0"/>
        <pt x="171" y="182" on="1"/>
        <pt x="171" y="116" on="0"/>
        <pt x="231" y="68" on="0"/>
        <pt x="268" y="68" on="1"/>
        <pt x="301" y="68" on="0"/>
        <pt x="368" y="107" on="0"/>
        <pt x="402" y="148" on="1"/>
        <pt x="446" y="112" on="1"/>
        <pt x="406" y="61" on="0"/>
        <pt x="300" y="-10" on="0"/>
      </contour>
      <contour>
        <pt x="305" y="416" on="1"/>
        <pt x="282" y="416" on="0"/>
        <pt x="241" y="385" on="0"/>
        <pt x="209" y="336" on="0"/>
        <pt x="184" y="274" on="0"/>
        <pt x="178" y="243" on="1"/>
        <pt x="275" y="250" on="0"/>
        <pt x="347" y="325" on="0"/>
        <pt x="347" y="365" on="1"/>
        <pt x="347" y="388" on="0"/>
        <pt x="325" y="416" on="0"/>
      </contour>
    </TTGlyph>
    <TTGlyph name="eacute" xMin="23" yMin="-10" xMax="504" yMax="751">
      <component glyphName="e" x="0" y="0" flags="0x204"/>
      <component glyphName="acute" x="151" y="0" flags="0x4"/>
    </TTGlyph>
    <TTGlyph name="ebreve" xMin="23" yMin="-10" xMax="517" yMax="717">
      <component glyphName="e" x="0" y="0" flags="0x204"/>
      <component glyphName="breve" x="59" y="0" flags="0x4"/>
    </TTGlyph>
    <TTGlyph name="ecaron" xMin="23" yMin="-10" xMax="524" yMax="735">
      <component glyphName="e" x="0" y="0" flags="0x204"/>
      <component glyphName="caron" x="79" y="0" flags="0x4"/>
    </TTGlyph>
    <TTGlyph name="ecircumflex" xMin="23" yMin="-10" xMax="480" yMax="732">
      <component glyphName="e" x="0" y="0" flags="0x204"/>
      <component glyphName="circumflex" x="65" y="0" flags="0x4"/>
    </TTGlyph>
    <TTGlyph name="edieresis" xMin="23" yMin="-10" xMax="518" yMax="693">
      <component glyphName="e" x="0" y="0" flags="0x204"/>
      <component glyphName="dieresis" x="56" y="0" flags="0x4"/>
    </TTGlyph>
    <TTGlyph name="edotaccent" xMin="23" yMin="-10" xMax="479" yMax="693">
      <component glyphName="e" x="0" y="0" flags="0x204"/>
      <component glyphName="dotaccent" x="142" y="0" flags="0x4"/>
    </TTGlyph>
    <TTGlyph name="egrave" xMin="23" yMin="-10" xMax="479" yMax="752">
      <component glyphName="e" x="0" y="0" flags="0x204"/>
      <component glyphName="grave" x="51" y="0" flags="0x4"/>
    </TTGlyph>
    <TTGlyph name="eight" xMin="19" yMin="-15" xMax="566" yMax="650">
      <contour>
        <pt x="259" y="-15" on="1"/>
        <pt x="141" y="-15" on="0"/>
        <pt x="19" y="78" on="0"/>
        <pt x="19" y="143" on="1"/>
        <pt x="19" y="208" on="0"/>
        <pt x="111" y="290" on="0"/>
        <pt x="185" y="302" on="1"/>
        <pt x="147" y="324" on="0"/>
        <pt x="96" y="393" on="0"/>
        <pt x="96" y="444" on="1"/>
        <pt x="96" y="484" on="0"/>
        <pt x="131" y="559" on="0"/>
        <pt x="196" y="616" on="0"/>
        <pt x="288" y="650" on="0"/>
        <pt x="345" y="650" on="1"/>
        <pt x="400" y="650" on="0"/>
        <pt x="483" y="623" on="0"/>
        <pt x="538" y="579" on="0"/>
        <pt x="566" y="523" on="0"/>
        <pt x="566" y="494" on="1"/>
        <pt x="566" y="432" on="0"/>
        <pt x="477" y="355" on="0"/>
        <pt x="413" y="343" on="1"/>
        <pt x="455" y="320" on="0"/>
        <pt x="517" y="250" on="0"/>
        <pt x="517" y="191" on="1"/>
        <pt x="517" y="148" on="0"/>
        <pt x="481" y="73" on="0"/>
        <pt x="415" y="17" on="0"/>
        <pt x="319" y="-15" on="0"/>
      </contour>
      <contour>
        <pt x="243" y="493" on="1"/>
        <pt x="243" y="450" on="0"/>
        <pt x="314" y="395" on="0"/>
        <pt x="374" y="369" on="1"/>
        <pt x="411" y="394" on="0"/>
        <pt x="448" y="458" on="0"/>
        <pt x="448" y="492" on="1"/>
        <pt x="448" y="526" on="0"/>
        <pt x="399" y="582" on="0"/>
        <pt x="347" y="582" on="1"/>
        <pt x="300" y="582" on="0"/>
        <pt x="243" y="530" on="0"/>
      </contour>
      <contour>
        <pt x="139" y="151" on="1"/>
        <pt x="139" y="113" on="0"/>
        <pt x="199" y="53" on="0"/>
        <pt x="260" y="53" on="1"/>
        <pt x="311" y="53" on="0"/>
        <pt x="373" y="105" on="0"/>
        <pt x="373" y="146" on="1"/>
        <pt x="373" y="188" on="0"/>
        <pt x="294" y="244" on="0"/>
        <pt x="224" y="276" on="1"/>
        <pt x="184" y="252" on="0"/>
        <pt x="139" y="188" on="0"/>
      </contour>
    </TTGlyph>
    <TTGlyph name="eight.den" xMin="16" yMin="-82" xMax="395" yMax="400">
      <component glyphName="eight.small" x="-17" y="-70" flags="0x4"/>
    </TTGlyph>
    <TTGlyph name="eight.inf" xMin="-14" yMin="-202" xMax="365" yMax="280">
      <component glyphName="eight.small" x="-47" y="-190" flags="0x4"/>
    </TTGlyph>
    <TTGlyph name="eight.num" xMin="75" yMin="158" xMax="454" yMax="640">
      <component glyphName="eight.small" x="42" y="170" flags="0x4"/>
    </TTGlyph>
    <TTGlyph name="eight.osf" xMin="20" yMin="-15" xMax="562" yMax="645">
      <contour>
        <pt x="259" y="-15" on="1"/>
        <pt x="141" y="-15" on="0"/>
        <pt x="20" y="78" on="0"/>
        <pt x="20" y="143" on="1"/>
        <pt x="20" y="207" on="0"/>
        <pt x="111" y="288" on="0"/>
        <pt x="184" y="299" on="1"/>
        <pt x="147" y="320" on="0"/>
        <pt x="95" y="388" on="0"/>
        <pt x="95" y="440" on="1"/>
        <pt x="95" y="480" on="0"/>
        <pt x="130" y="554" on="0"/>
        <pt x="194" y="611" on="0"/>
        <pt x="286" y="645" on="0"/>
        <pt x="342" y="645" on="1"/>
        <pt x="396" y="645" on="0"/>
        <pt x="479" y="618" on="0"/>
        <pt x="534" y="574" on="0"/>
        <pt x="562" y="518" on="0"/>
        <pt x="562" y="489" on="1"/>
        <pt x="562" y="428" on="0"/>
        <pt x="476" y="352" on="0"/>
        <pt x="413" y="341" on="1"/>
        <pt x="454" y="317" on="0"/>
        <pt x="515" y="247" on="0"/>
        <pt x="515" y="190" on="1"/>
        <pt x="515" y="147" on="0"/>
        <pt x="480" y="72" on="0"/>
        <pt x="414" y="17" on="0"/>
        <pt x="318" y="-15" on="0"/>
      </contour>
      <contour>
        <pt x="242" y="488" on="1"/>
        <pt x="242" y="448" on="0"/>
        <pt x="308" y="396" on="0"/>
        <pt x="373" y="367" on="1"/>
        <pt x="408" y="391" on="0"/>
        <pt x="444" y="453" on="0"/>
        <pt x="444" y="487" on="1"/>
        <pt x="444" y="521" on="0"/>
        <pt x="395" y="577" on="0"/>
        <pt x="344" y="577" on="1"/>
        <pt x="298" y="577" on="0"/>
        <pt x="242" y="525" on="0"/>
      </contour>
      <contour>
        <pt x="140" y="150" on="1"/>
        <pt x="140" y="112" on="0"/>
        <pt x="199" y="53" on="0"/>
        <pt x="259" y="53" on="1"/>
        <pt x="309" y="53" on="0"/>
        <pt x="372" y="105" on="0"/>
        <pt x="372" y="145" on="1"/>
        <pt x="372" y="187" on="0"/>
        <pt x="294" y="241" on="0"/>
        <pt x="222" y="273" on="1"/>
        <pt x="183" y="249" on="0"/>
        <pt x="140" y="187" on="0"/>
      </contour>
    </TTGlyph>
    <TTGlyph name="eight.small" xMin="33" yMin="-12" xMax="412" yMax="470">
      <contour>
        <pt x="195" y="-12" on="1"/>
        <pt x="115" y="-12" on="0"/>
        <pt x="33" y="55" on="0"/>
        <pt x="33" y="102" on="1"/>
        <pt x="33" y="150" on="0"/>
        <pt x="100" y="209" on="0"/>
        <pt x="154" y="217" on="1"/>
        <pt x="126" y="232" on="0"/>
        <pt x="85" y="283" on="0"/>
        <pt x="85" y="322" on="1"/>
        <pt x="85" y="351" on="0"/>
        <pt x="110" y="404" on="0"/>
        <pt x="156" y="445" on="0"/>
        <pt x="221" y="470" on="0"/>
        <pt x="260" y="470" on="1"/>
        <pt x="335" y="470" on="0"/>
        <pt x="412" y="399" on="0"/>
        <pt x="412" y="357" on="1"/>
        <pt x="412" y="311" on="0"/>
        <pt x="345" y="255" on="0"/>
        <pt x="298" y="248" on="1"/>
        <pt x="329" y="230" on="0"/>
        <pt x="375" y="178" on="0"/>
        <pt x="375" y="135" on="1"/>
        <pt x="375" y="75" on="0"/>
        <pt x="279" y="-12" on="0"/>
      </contour>
      <contour>
        <pt x="195" y="356" on="1"/>
        <pt x="195" y="326" on="0"/>
        <pt x="237" y="287" on="0"/>
        <pt x="272" y="268" on="1"/>
        <pt x="297" y="286" on="0"/>
        <pt x="323" y="334" on="0"/>
        <pt x="323" y="358" on="1"/>
        <pt x="323" y="380" on="0"/>
        <pt x="294" y="420" on="0"/>
        <pt x="261" y="420" on="1"/>
        <pt x="232" y="420" on="0"/>
        <pt x="195" y="383" on="0"/>
      </contour>
      <contour>
        <pt x="121" y="106" on="1"/>
        <pt x="121" y="79" on="0"/>
        <pt x="156" y="39" on="0"/>
        <pt x="193" y="39" on="1"/>
        <pt x="224" y="39" on="0"/>
        <pt x="267" y="75" on="0"/>
        <pt x="267" y="104" on="1"/>
        <pt x="267" y="135" on="0"/>
        <pt x="219" y="175" on="0"/>
        <pt x="179" y="197" on="1"/>
        <pt x="151" y="178" on="0"/>
        <pt x="121" y="132" on="0"/>
      </contour>
    </TTGlyph>
    <TTGlyph name="eight.sup" xMin="94" yMin="233" xMax="473" yMax="715">
      <component glyphName="eight.small" x="61" y="245" flags="0x4"/>
    </TTGlyph>
    <TTGlyph name="eight.tab" xMin="34" yMin="-15" xMax="547" yMax="650">
      <contour>
        <pt x="253" y="-15" on="1"/>
        <pt x="146" y="-15" on="0"/>
        <pt x="34" y="79" on="0"/>
        <pt x="34" y="143" on="1"/>
        <pt x="34" y="208" on="0"/>
        <pt x="123" y="289" on="0"/>
        <pt x="195" y="302" on="1"/>
        <pt x="159" y="323" on="0"/>
        <pt x="108" y="394" on="0"/>
        <pt x="108" y="446" on="1"/>
        <pt x="108" y="485" on="0"/>
        <pt x="141" y="559" on="0"/>
        <pt x="202" y="616" on="0"/>
        <pt x="290" y="650" on="0"/>
        <pt x="344" y="650" on="1"/>
        <pt x="394" y="650" on="0"/>
        <pt x="470" y="623" on="0"/>
        <pt x="521" y="579" on="0"/>
        <pt x="547" y="523" on="0"/>
        <pt x="547" y="494" on="1"/>
        <pt x="547" y="432" on="0"/>
        <pt x="460" y="355" on="0"/>
        <pt x="397" y="343" on="1"/>
        <pt x="437" y="319" on="0"/>
        <pt x="496" y="248" on="0"/>
        <pt x="496" y="189" on="1"/>
        <pt x="496" y="148" on="0"/>
        <pt x="463" y="73" on="0"/>
        <pt x="400" y="18" on="0"/>
        <pt x="310" y="-15" on="0"/>
      </contour>
      <contour>
        <pt x="254" y="492" on="1"/>
        <pt x="254" y="452" on="0"/>
        <pt x="309" y="399" on="0"/>
        <pt x="360" y="371" on="1"/>
        <pt x="395" y="395" on="0"/>
        <pt x="431" y="460" on="0"/>
        <pt x="431" y="494" on="1"/>
        <pt x="431" y="528" on="0"/>
        <pt x="390" y="582" on="0"/>
        <pt x="345" y="582" on="1"/>
        <pt x="304" y="582" on="0"/>
        <pt x="254" y="530" on="0"/>
      </contour>
      <contour>
        <pt x="151" y="149" on="1"/>
        <pt x="151" y="111" on="0"/>
        <pt x="201" y="53" on="0"/>
        <pt x="252" y="53" on="1"/>
        <pt x="297" y="53" on="0"/>
        <pt x="353" y="106" on="0"/>
        <pt x="353" y="147" on="1"/>
        <pt x="353" y="187" on="0"/>
        <pt x="290" y="243" on="0"/>
        <pt x="233" y="274" on="1"/>
        <pt x="194" y="250" on="0"/>
        <pt x="151" y="186" on="0"/>
      </contour>
    </TTGlyph>
    <TTGlyph name="ellipsis" xMin="3" yMin="-17" xMax="676" yMax="168">
      <component glyphName="period" x="0" y="0" flags="0x4"/>
      <component glyphName="period" x="250" y="0" flags="0x4"/>
      <component glyphName="period" x="502" y="0" flags="0x4"/>
    </TTGlyph>
    <TTGlyph name="emacron" xMin="23" yMin="-10" xMax="500" yMax="638">
      <component glyphName="e" x="0" y="0" flags="0x204"/>
      <component glyphName="macron" x="67" y="0" flags="0x4"/>
    </TTGlyph>
    <TTGlyph name="emdash" xMin="41" yMin="204" xMax="747" yMax="296">
      <contour>
        <pt x="41" y="204" on="1"/>
        <pt x="63" y="296" on="1"/>
        <pt x="747" y="296" on="1"/>
        <pt x="724" y="204" on="1"/>
      </contour>
    </TTGlyph>
    <TTGlyph name="endash" xMin="41" yMin="204" xMax="497" yMax="296">
      <contour>
        <pt x="41" y="204" on="1"/>
        <pt x="63" y="296" on="1"/>
        <pt x="497" y="296" on="1"/>
        <pt x="474" y="204" on="1"/>
      </contour>
    </TTGlyph>
    <TTGlyph name="endash.tab" xMin="62" yMin="271" xMax="518" yMax="363">
      <contour>
        <pt x="62" y="271" on="1"/>
        <pt x="85" y="363" on="1"/>
        <pt x="518" y="363" on="1"/>
        <pt x="496" y="271" on="1"/>
      </contour>
    </TTGlyph>
    <TTGlyph name="eogonek" xMin="23" yMin="-250" xMax="479" yMax="479">
      <contour>
        <pt x="211" y="-250" on="1"/>
        <pt x="162" y="-250" on="0"/>
        <pt x="87" y="-204" on="0"/>
        <pt x="87" y="-154" on="1"/>
        <pt x="87" y="-116" on="0"/>
        <pt x="145" y="-50" on="0"/>
        <pt x="215" y="-10" on="1"/>
        <pt x="128" y="-9" on="0"/>
        <pt x="23" y="92" on="0"/>
        <pt x="23" y="177" on="1"/>
        <pt x="23" y="235" on="0"/>
        <pt x="69" y="344" on="0"/>
        <pt x="150" y="428" on="0"/>
        <pt x="261" y="479" on="0"/>
        <pt x="325" y="479" on="1"/>
        <pt x="399" y="479" on="0"/>
        <pt x="479" y="414" on="0"/>
        <pt x="479" y="363" on="1"/>
        <pt x="479" y="296" on="0"/>
        <pt x="332" y="196" on="0"/>
        <pt x="171" y="190" on="1"/>
        <pt x="171" y="189" on="0"/>
        <pt x="171" y="184" on="0"/>
        <pt x="171" y="182" on="1"/>
        <pt x="171" y="116" on="0"/>
        <pt x="231" y="68" on="0"/>
        <pt x="268" y="68" on="1"/>
        <pt x="301" y="68" on="0"/>
        <pt x="368" y="107" on="0"/>
        <pt x="402" y="148" on="1"/>
        <pt x="446" y="112" on="1"/>
        <pt x="425" y="86" on="0"/>
        <pt x="386" y="47" on="0"/>
        <pt x="356" y="26" on="1"/>
        <pt x="311" y="-6" on="1"/>
        <pt x="248" y="-51" on="0"/>
        <pt x="201" y="-108" on="0"/>
        <pt x="201" y="-133" on="1"/>
        <pt x="201" y="-150" on="0"/>
        <pt x="224" y="-178" on="0"/>
        <pt x="251" y="-178" on="1"/>
        <pt x="265" y="-178" on="0"/>
        <pt x="295" y="-169" on="0"/>
        <pt x="311" y="-160" on="1"/>
        <pt x="331" y="-212" on="1"/>
        <pt x="306" y="-228" on="0"/>
        <pt x="245" y="-250" on="0"/>
      </contour>
      <contour>
        <pt x="305" y="416" on="1"/>
        <pt x="282" y="416" on="0"/>
        <pt x="241" y="385" on="0"/>
        <pt x="209" y="336" on="0"/>
        <pt x="184" y="274" on="0"/>
        <pt x="178" y="243" on="1"/>
        <pt x="275" y="250" on="0"/>
        <pt x="347" y="325" on="0"/>
        <pt x="347" y="365" on="1"/>
        <pt x="347" y="388" on="0"/>
        <pt x="325" y="416" on="0"/>
      </contour>
    </TTGlyph>
    <TTGlyph name="equal" xMin="39" yMin="175" xMax="528" yMax="459">
      <contour>
        <pt x="88" y="373" on="1"/>
        <pt x="111" y="459" on="1"/>
        <pt x="528" y="459" on="1"/>
        <pt x="505" y="373" on="1"/>
      </contour>
      <contour>
        <pt x="39" y="175" on="1"/>
        <pt x="61" y="261" on="1"/>
        <pt x="478" y="261" on="1"/>
        <pt x="456" y="175" on="1"/>
      </contour>
    </TTGlyph>
    <TTGlyph name="equal.osf" xMin="31" yMin="142" xMax="519" yMax="427">
      <contour>
        <pt x="80" y="340" on="1"/>
        <pt x="102" y="427" on="1"/>
        <pt x="519" y="427" on="1"/>
        <pt x="497" y="340" on="1"/>
      </contour>
      <contour>
        <pt x="31" y="142" on="1"/>
        <pt x="53" y="229" on="1"/>
        <pt x="470" y="229" on="1"/>
        <pt x="448" y="142" on="1"/>
      </contour>
    </TTGlyph>
    <TTGlyph name="equal.tab" xMin="46" yMin="175" xMax="534" yMax="459">
      <contour>
        <pt x="95" y="373" on="1"/>
        <pt x="117" y="459" on="1"/>
        <pt x="534" y="459" on="1"/>
        <pt x="512" y="373" on="1"/>
      </contour>
      <contour>
        <pt x="46" y="175" on="1"/>
        <pt x="68" y="261" on="1"/>
        <pt x="485" y="261" on="1"/>
        <pt x="463" y="175" on="1"/>
      </contour>
    </TTGlyph>
    <TTGlyph name="eth" xMin="23" yMin="-10" xMax="564" yMax="700">
      <contour>
        <pt x="229" y="-10" on="1"/>
        <pt x="138" y="-10" on="0"/>
        <pt x="23" y="99" on="0"/>
        <pt x="23" y="186" on="1"/>
        <pt x="23" y="246" on="0"/>
        <pt x="65" y="346" on="0"/>
        <pt x="133" y="416" on="0"/>
        <pt x="220" y="456" on="0"/>
        <pt x="264" y="456" on="1"/>
        <pt x="312" y="456" on="0"/>
        <pt x="370" y="426" on="0"/>
        <pt x="385" y="405" on="1"/>
        <pt x="386" y="436" on="0"/>
        <pt x="373" y="506" on="0"/>
        <pt x="360" y="540" on="1"/>
        <pt x="237" y="501" on="1"/>
        <pt x="218" y="564" on="1"/>
        <pt x="334" y="601" on="1"/>
        <pt x="324" y="619" on="0"/>
        <pt x="303" y="655" on="0"/>
        <pt x="291" y="671" on="1"/>
        <pt x="383" y="700" on="1"/>
        <pt x="398" y="684" on="0"/>
        <pt x="425" y="651" on="0"/>
        <pt x="436" y="634" on="1"/>
        <pt x="545" y="669" on="1"/>
        <pt x="564" y="606" on="1"/>
        <pt x="471" y="576" on="1"/>
        <pt x="496" y="527" on="0"/>
        <pt x="523" y="418" on="0"/>
        <pt x="523" y="359" on="1"/>
        <pt x="523" y="274" on="0"/>
        <pt x="476" y="136" on="0"/>
        <pt x="397" y="41" on="0"/>
        <pt x="289" y="-10" on="0"/>
      </contour>
      <contour>
        <pt x="226" y="53" on="1"/>
        <pt x="257" y="53" on="0"/>
        <pt x="307" y="109" on="0"/>
        <pt x="342" y="187" on="0"/>
        <pt x="360" y="275" on="0"/>
        <pt x="360" y="306" on="1"/>
        <pt x="360" y="352" on="0"/>
        <pt x="326" y="383" on="0"/>
        <pt x="303" y="383" on="1"/>
        <pt x="272" y="383" on="0"/>
        <pt x="223" y="329" on="0"/>
        <pt x="189" y="251" on="0"/>
        <pt x="171" y="164" on="0"/>
        <pt x="171" y="132" on="1"/>
        <pt x="171" y="86" on="0"/>
        <pt x="204" y="53" on="0"/>
      </contour>
    </TTGlyph>
    <TTGlyph name="exclam" xMin="29" yMin="-17" xMax="333" yMax="684">
      <contour>
        <pt x="175" y="196" on="1"/>
        <pt x="109" y="209" on="1"/>
        <pt x="120" y="285" on="0"/>
        <pt x="134" y="442" on="0"/>
        <pt x="143" y="540" on="1"/>
        <pt x="148" y="599" on="0"/>
        <pt x="182" y="684" on="0"/>
        <pt x="241" y="684" on="1"/>
        <pt x="282" y="684" on="0"/>
        <pt x="333" y="639" on="0"/>
        <pt x="333" y="606" on="1"/>
        <pt x="333" y="579" on="0"/>
        <pt x="307" y="514" on="0"/>
        <pt x="285" y="458" on="1"/>
        <pt x="258" y="395" on="0"/>
        <pt x="206" y="271" on="0"/>
      </contour>
      <contour>
        <pt x="110" y="-17" on="1"/>
        <pt x="76" y="-17" on="0"/>
        <pt x="30" y="25" on="0"/>
        <pt x="29" y="58" on="1"/>
        <pt x="29" y="92" on="0"/>
        <pt x="78" y="147" on="0"/>
        <pt x="118" y="147" on="1"/>
        <pt x="152" y="147" on="0"/>
        <pt x="198" y="105" on="0"/>
        <pt x="199" y="73" on="1"/>
        <pt x="199" y="38" on="0"/>
        <pt x="150" y="-17" on="0"/>
      </contour>
    </TTGlyph>
    <TTGlyph name="exclamdown" xMin="22" yMin="-17" xMax="326" yMax="684">
      <contour>
        <pt x="245" y="684" on="1"/>
        <pt x="279" y="684" on="0"/>
        <pt x="325" y="642" on="0"/>
        <pt x="326" y="609" on="1"/>
        <pt x="326" y="575" on="0"/>
        <pt x="277" y="520" on="0"/>
        <pt x="237" y="520" on="1"/>
        <pt x="203" y="520" on="0"/>
        <pt x="157" y="562" on="0"/>
        <pt x="156" y="594" on="1"/>
        <pt x="156" y="629" on="0"/>
        <pt x="205" y="684" on="0"/>
      </contour>
      <contour>
        <pt x="180" y="471" on="1"/>
        <pt x="246" y="458" on="1"/>
        <pt x="235" y="382" on="0"/>
        <pt x="221" y="225" on="0"/>
        <pt x="212" y="127" on="1"/>
        <pt x="207" y="68" on="0"/>
        <pt x="173" y="-17" on="0"/>
        <pt x="114" y="-17" on="1"/>
        <pt x="73" y="-17" on="0"/>
        <pt x="22" y="28" on="0"/>
        <pt x="22" y="61" on="1"/>
        <pt x="22" y="88" on="0"/>
        <pt x="48" y="153" on="0"/>
        <pt x="70" y="209" on="1"/>
        <pt x="97" y="272" on="0"/>
        <pt x="149" y="396" on="0"/>
      </contour>
    </TTGlyph>
    <TTGlyph name="f" xMin="-134" yMin="-174" xMax="537" yMax="697">
      <contour>
        <pt x="-27" y="-174" on="1"/>
        <pt x="-79" y="-174" on="0"/>
        <pt x="-134" y="-124" on="0"/>
        <pt x="-134" y="-87" on="1"/>
        <pt x="-134" y="-59" on="0"/>
        <pt x="-98" y="-14" on="0"/>
        <pt x="-64" y="-14" on="1"/>
        <pt x="-37" y="-14" on="0"/>
        <pt x="-5" y="-46" on="0"/>
        <pt x="-5" y="-70" on="1"/>
        <pt x="-5" y="-90" on="0"/>
        <pt x="-18" y="-117" on="0"/>
        <pt x="-25" y="-124" on="1"/>
        <pt x="0" y="-124" on="0"/>
        <pt x="31" y="-84" on="0"/>
        <pt x="44" y="-19" on="1"/>
        <pt x="126" y="385" on="1"/>
        <pt x="38" y="385" on="1"/>
        <pt x="56" y="461" on="1"/>
        <pt x="141" y="461" on="1"/>
        <pt x="167" y="573" on="0"/>
        <pt x="289" y="697" on="0"/>
        <pt x="390" y="697" on="1"/>
        <pt x="462" y="697" on="0"/>
        <pt x="537" y="638" on="0"/>
        <pt x="537" y="596" on="1"/>
        <pt x="537" y="564" on="0"/>
        <pt x="497" y="512" on="0"/>
        <pt x="460" y="512" on="1"/>
        <pt x="430" y="512" on="0"/>
        <pt x="392" y="546" on="0"/>
        <pt x="392" y="574" on="1"/>
        <pt x="392" y="591" on="0"/>
        <pt x="407" y="624" on="0"/>
        <pt x="420" y="634" on="1"/>
        <pt x="415" y="637" on="0"/>
        <pt x="400" y="641" on="0"/>
        <pt x="392" y="641" on="1"/>
        <pt x="353" y="641" on="0"/>
        <pt x="313" y="586" on="0"/>
        <pt x="300" y="528" on="1"/>
        <pt x="286" y="461" on="1"/>
        <pt x="421" y="461" on="1"/>
        <pt x="403" y="385" on="1"/>
        <pt x="270" y="385" on="1"/>
        <pt x="208" y="91" on="1"/>
        <pt x="180" y="-39" on="0"/>
        <pt x="59" y="-174" on="0"/>
      </contour>
    </TTGlyph>
    <TTGlyph name="f_b" xMin="-134" yMin="-174" xMax="839" yMax="697">
      <contour>
        <pt x="-27" y="-174" on="1"/>
        <pt x="-79" y="-174" on="0"/>
        <pt x="-134" y="-124" on="0"/>
        <pt x="-134" y="-87" on="1"/>
        <pt x="-134" y="-59" on="0"/>
        <pt x="-98" y="-14" on="0"/>
        <pt x="-64" y="-14" on="1"/>
        <pt x="-37" y="-14" on="0"/>
        <pt x="-5" y="-46" on="0"/>
        <pt x="-5" y="-70" on="1"/>
        <pt x="-5" y="-90" on="0"/>
        <pt x="-18" y="-117" on="0"/>
        <pt x="-25" y="-124" on="1"/>
        <pt x="0" y="-124" on="0"/>
        <pt x="31" y="-84" on="0"/>
        <pt x="44" y="-19" on="1"/>
        <pt x="126" y="385" on="1"/>
        <pt x="38" y="385" on="1"/>
        <pt x="56" y="461" on="1"/>
        <pt x="141" y="461" on="1"/>
        <pt x="167" y="571" on="0"/>
        <pt x="297" y="697" on="0"/>
        <pt x="401" y="697" on="1"/>
        <pt x="430" y="697" on="0"/>
        <pt x="478" y="688" on="0"/>
        <pt x="497" y="680" on="1"/>
        <pt x="638" y="696" on="1"/>
        <pt x="531" y="350" on="1"/>
        <pt x="539" y="347" on="1"/>
        <pt x="573" y="413" on="0"/>
        <pt x="659" y="479" on="0"/>
        <pt x="707" y="479" on="1"/>
        <pt x="774" y="479" on="0"/>
        <pt x="839" y="385" on="0"/>
        <pt x="839" y="316" on="1"/>
        <pt x="839" y="259" on="0"/>
        <pt x="798" y="143" on="0"/>
        <pt x="723" y="49" on="0"/>
        <pt x="617" y="-10" on="0"/>
        <pt x="552" y="-10" on="1"/>
        <pt x="459" y="-10" on="0"/>
        <pt x="365" y="87" on="0"/>
        <pt x="365" y="164" on="1"/>
        <pt x="365" y="195" on="0"/>
        <pt x="382" y="285" on="0"/>
        <pt x="398" y="344" on="1"/>
        <pt x="409" y="385" on="1"/>
        <pt x="270" y="385" on="1"/>
        <pt x="208" y="91" on="1"/>
        <pt x="180" y="-39" on="0"/>
        <pt x="59" y="-174" on="0"/>
      </contour>
      <contour>
        <pt x="289" y="476" on="1"/>
        <pt x="286" y="461" on="1"/>
        <pt x="430" y="461" on="1"/>
        <pt x="446" y="522" on="1"/>
        <pt x="433" y="530" on="0"/>
        <pt x="418" y="557" on="0"/>
        <pt x="418" y="574" on="1"/>
        <pt x="418" y="591" on="0"/>
        <pt x="432" y="623" on="0"/>
        <pt x="445" y="633" on="1"/>
        <pt x="441" y="636" on="0"/>
        <pt x="419" y="641" on="0"/>
        <pt x="405" y="641" on="1"/>
        <pt x="348" y="641" on="0"/>
        <pt x="306" y="557" on="0"/>
      </contour>
      <contour>
        <pt x="557" y="61" on="1"/>
        <pt x="588" y="61" on="0"/>
        <pt x="638" y="116" on="0"/>
        <pt x="673" y="192" on="0"/>
        <pt x="692" y="277" on="0"/>
        <pt x="692" y="307" on="1"/>
        <pt x="692" y="347" on="0"/>
        <pt x="664" y="385" on="0"/>
        <pt x="641" y="385" on="1"/>
        <pt x="614" y="385" on="0"/>
        <pt x="565" y="334" on="0"/>
        <pt x="527" y="259" on="0"/>
        <pt x="505" y="172" on="0"/>
        <pt x="505" y="137" on="1"/>
        <pt x="505" y="98" on="0"/>
        <pt x="534" y="61" on="0"/>
      </contour>
    </TTGlyph>
    <TTGlyph name="f_f" xMin="-134" yMin="-174" xMax="839" yMax="697">
      <contour>
        <pt x="-27" y="-174" on="1"/>
        <pt x="-79" y="-174" on="0"/>
        <pt x="-134" y="-124" on="0"/>
        <pt x="-134" y="-87" on="1"/>
        <pt x="-134" y="-59" on="0"/>
        <pt x="-98" y="-14" on="0"/>
        <pt x="-64" y="-14" on="1"/>
        <pt x="-37" y="-14" on="0"/>
        <pt x="-5" y="-46" on="0"/>
        <pt x="-5" y="-70" on="1"/>
        <pt x="-5" y="-90" on="0"/>
        <pt x="-18" y="-117" on="0"/>
        <pt x="-25" y="-124" on="1"/>
        <pt x="0" y="-124" on="0"/>
        <pt x="31" y="-84" on="0"/>
        <pt x="44" y="-19" on="1"/>
        <pt x="126" y="385" on="1"/>
        <pt x="38" y="385" on="1"/>
        <pt x="56" y="461" on="1"/>
        <pt x="141" y="461" on="1"/>
        <pt x="169" y="577" on="0"/>
        <pt x="301" y="694" on="0"/>
        <pt x="400" y="694" on="1"/>
        <pt x="451" y="694" on="0"/>
        <pt x="523" y="667" on="0"/>
        <pt x="542" y="646" on="1"/>
        <pt x="571" y="671" on="0"/>
        <pt x="645" y="697" on="0"/>
        <pt x="691" y="697" on="1"/>
        <pt x="763" y="697" on="0"/>
        <pt x="839" y="638" on="0"/>
        <pt x="839" y="596" on="1"/>
        <pt x="839" y="564" on="0"/>
        <pt x="798" y="512" on="0"/>
        <pt x="761" y="512" on="1"/>
        <pt x="731" y="512" on="0"/>
        <pt x="693" y="546" on="0"/>
        <pt x="693" y="574" on="1"/>
        <pt x="693" y="591" on="0"/>
        <pt x="708" y="624" on="0"/>
        <pt x="721" y="634" on="1"/>
        <pt x="716" y="637" on="0"/>
        <pt x="701" y="641" on="0"/>
        <pt x="693" y="641" on="1"/>
        <pt x="654" y="641" on="0"/>
        <pt x="614" y="586" on="0"/>
        <pt x="602" y="528" on="1"/>
        <pt x="588" y="461" on="1"/>
        <pt x="722" y="461" on="1"/>
        <pt x="704" y="385" on="1"/>
        <pt x="572" y="385" on="1"/>
        <pt x="509" y="91" on="1"/>
        <pt x="482" y="-36" on="0"/>
        <pt x="363" y="-174" on="0"/>
        <pt x="271" y="-174" on="1"/>
        <pt x="219" y="-174" on="0"/>
        <pt x="160" y="-124" on="0"/>
        <pt x="160" y="-87" on="1"/>
        <pt x="160" y="-59" on="0"/>
        <pt x="197" y="-14" on="0"/>
        <pt x="230" y="-14" on="1"/>
        <pt x="257" y="-14" on="0"/>
        <pt x="289" y="-46" on="0"/>
        <pt x="289" y="-70" on="1"/>
        <pt x="289" y="-90" on="0"/>
        <pt x="278" y="-116" on="0"/>
        <pt x="270" y="-124" on="1"/>
        <pt x="298" y="-125" on="0"/>
        <pt x="333" y="-82" on="0"/>
        <pt x="346" y="-16" on="1"/>
        <pt x="427" y="385" on="1"/>
        <pt x="270" y="385" on="1"/>
        <pt x="208" y="91" on="1"/>
        <pt x="180" y="-39" on="0"/>
        <pt x="59" y="-174" on="0"/>
      </contour>
      <contour>
        <pt x="288" y="472" on="1"/>
        <pt x="286" y="461" on="1"/>
        <pt x="442" y="461" on="1"/>
        <pt x="446" y="475" on="0"/>
        <pt x="453" y="501" on="0"/>
        <pt x="457" y="514" on="1"/>
        <pt x="440" y="521" on="0"/>
        <pt x="418" y="550" on="0"/>
        <pt x="418" y="571" on="1"/>
        <pt x="418" y="588" on="0"/>
        <pt x="433" y="620" on="0"/>
        <pt x="445" y="630" on="1"/>
        <pt x="441" y="633" on="0"/>
        <pt x="419" y="638" on="0"/>
        <pt x="405" y="638" on="1"/>
        <pt x="348" y="638" on="0"/>
        <pt x="306" y="554" on="0"/>
      </contour>
    </TTGlyph>
</ttFont>
